<svg width="310" height="136" viewBox="0 0 310 136" fill="none" xmlns="http://www.w3.org/2000/svg">
<rect x="145.122" y="319.414" width="10.9457" height="438.821" transform="rotate(-135 145.122 319.414)" fill="#E51F27"/>
<rect x="136.173" y="310.465" width="10.2616" height="438.821" transform="rotate(-135 136.173 310.465)" fill="#E51F27"/>
<rect x="126.981" y="301.275" width="9.57745" height="438.821" transform="rotate(-135 126.981 301.275)" fill="#E51F27"/>
<rect x="117.307" y="291.597" width="8.20925" height="438.821" transform="rotate(-135 117.307 291.597)" fill="#E51F27"/>
<rect x="107.632" y="281.924" width="7.18309" height="438.821" transform="rotate(-135 107.632 281.924)" fill="#E51F27"/>
<rect x="96.7483" y="271.04" width="6.15693" height="438.821" transform="rotate(-135 96.7483 271.04)" fill="#E51F27"/>
<rect x="84.6554" y="258.945" width="6.15693" height="438.821" transform="rotate(-135 84.6554 258.945)" fill="#E51F27"/>
<rect x="72.5608" y="246.855" width="5.47283" height="438.821" transform="rotate(-135 72.5608 246.855)" fill="#E51F27"/>
<rect x="58.5331" y="232.825" width="4.10462" height="438.821" transform="rotate(-135 58.5331 232.825)" fill="#E51F27"/>
<rect x="40.1509" y="214.444" width="2.39436" height="438.821" transform="rotate(-135 40.1509 214.444)" fill="#E51F27"/>
<rect x="20.5607" y="194.851" width="0.85513" height="438.821" transform="rotate(-135 20.5607 194.851)" fill="#E51F27"/>
<rect x="4.47534" y="178.769" width="0.342052" height="438.821" transform="rotate(-135 4.47534 178.769)" fill="#E51F27"/>
<rect x="145.122" y="319.413" width="205.231" height="438.821" transform="rotate(-135 145.122 319.413)" fill="url(#paint0_linear_1201_2005)" fill-opacity="0.5"/>
<defs>
<linearGradient id="paint0_linear_1201_2005" x1="145.122" y1="527.772" x2="352.106" y2="532.99" gradientUnits="userSpaceOnUse">
<stop stop-color="#E51F27"/>
<stop offset="1" stop-color="#7F1116" stop-opacity="0"/>
</linearGradient>
</defs>
</svg>
