<svg class="svg-icon" style="width: 1em; height: 1em;vertical-align: middle;fill: currentColor;overflow: hidden;" viewBox="0 0 1024 1024" version="1.1" xmlns="http://www.w3.org/2000/svg"><path d="M883.184 503.408c-0.2-6.72-3.184-12.32-9.264-14.096-10.56-3.12-17.064-10.96-24.576-17.92-16.984-15.656-34.304-30.96-51.424-46.48-3.816-3.44-7.424-7.12-11.064-10.744-47.52-47.088-95.08-94.192-142.592-141.296-3.68-3.632-7.016-7.68-11.152-10.688-22.376-16.184-39.84-37.536-59.8-56.32-13.696-12.88-27.416-25.824-44.48-34.344-13.152-6.56-31.52 3.168-32.88 17.776a2104.96 2104.96 0 0 0-4.68 61.504c-1.52 23.96-2.672 47.936-4.104 71.896-0.4 6.76-2.96 9.384-9.52 9.36-43.784-0.224-87.648 0.96-131.312-1.344-41.184-2.184-82.32-2.344-123.48-2.24-17.944 0.048-35.92 1.864-53.84 3.472-14.4 1.296-23.28 9.68-26.016 23.776-0.96 5.016-1.2 10.24-1.2 15.36-0.112 46.28-0.064 92.56-0.064 138.84H140.8c0 48.064-0.136 96.128 0.096 144.184 0.08 17.376 14.336 35.616 31.12 39.52 12.48 2.912 25.304 4.272 37.92 6.616 15.28 2.832 30.456 3.536 45.856 0.296 5.648-1.168 11.816-0.256 17.712 0.16 5.976 0.456 11.88 2.056 17.84 2.224 62.584 1.504 125.2 3.304 187.704-3.04 6.84-0.672 13.728-0.52 20.6-0.536 4.48 0 7.44 3.24 7.68 8.24 1.6 34.24 3.176 68.48 4.76 102.72 0.16 4.288-0.24 8.72 0.672 12.832 1.68 7.464 3.696 14.96 6.56 22.016 1.096 2.72 4.8 5.784 7.64 6.144 14.664 1.824 28.32 1.84 40.032-10.904 17.384-18.96 37.04-35.792 54.784-54.4 26.08-27.312 57.704-48.784 81.224-78.72 1-1.256 2.664-2.24 4.24-2.776 8.608-2.96 13.392-10.44 19.416-16.416a3852.184 3852.184 0 0 0 39.952-40.096c4.736-4.88 8.896-10.336 13.36-15.48 3.328-3.84 6.536-7.8 10.08-11.44 4.16-4.32 9.312-7.816 12.856-12.56 13.44-17.976 28.8-33.888 47.2-46.904 12.936-9.12 20.72-22.616 28.816-35.792 4.28-6.96 4.464-14.592 4.24-22.384z m-112.368-4.184c-17.152 20.32-34.784 40.224-52.16 60.32-11.8 13.624-23.44 27.384-35.464 40.8-1.88 2.096-5.52 2.64-8.32 3.92-0.432-2.376-1.32-4.784-1.232-7.12 0.2-4.24 1.704-8.48 1.44-12.64-0.544-8.128-11.56-13.08-17.48-7.76-4.344 3.904-9.04 8.528-10.96 13.76-3.2 8.752-4.584 18.208-6.08 27.488-1.384 8.416-2.048 16.992-2.768 25.52-0.72 8.08-3.584 15.2-9.984 20.16-4.984 3.856-6.28 12.608-15.016 11.52-0.744-5.872-2.296-11.76-1.944-17.568 0.424-7.648 2.752-15.16 3.392-22.824 0.264-3.04-1.2-6.68-2.976-9.28-1.04-1.464-4.8-2.48-6.536-1.76-5.88 2.456-9.328 7.656-10.856 13.6-3.632 14.04-7.136 28.16-9.984 42.4-2.16 10.88-2.984 22.048-4.984 33.008-0.56 3.136-3.04 5.976-4.776 8.88-0.4 0.64-1.536 1.456-2.08 1.304-1.376-0.384-3.6-1.088-3.76-1.968-1.704-9.216-3.496-18.464-4.456-27.792-2.048-19.6-3.392-39.28-5.504-58.848-0.784-7.04-4-13.568-11.504-15.68-6.784-1.92-9.728-5.2-9.56-12.592 0.136-5.8-1.28-11.824-3.064-17.408-0.936-3.008-3.68-5.8-6.24-7.84-5.488-4.424-15.072-1.064-16.76 5.496-2.56 9.88-5.04 19.792-7.824 29.6-0.376 1.264-2.528 2.024-3.856 3.024-1.2-1.76-3.328-3.496-3.36-5.328-0.224-5.12 0.608-10.24 0.688-15.392a58.504 58.504 0 0 0-0.824-10.224c-0.976-6.056-6.32-11.408-11.808-12.048-5.712-0.664-10.128 2.024-13.216 6.36-2.4 3.408-4.48 7.36-5.48 11.392-2.048 8.296-3.184 16.8-4.96 25.176-0.288 1.464-1.824 2.68-2.8 4-1.184-2-3.456-4.128-3.296-6.024 0.928-9.336 2.6-18.6 3.88-27.92 0.912-6.76 1.88-13.536 2.32-20.352 0.176-2.432-0.272-5.6-1.76-7.296-2.64-3.04-5.92-6.096-9.584-7.52-4.28-1.624-8.8 0.56-10.96 4.56-3.248 5.968-6.304 12.216-8.32 18.696-4.32 13.896-7.84 28.032-11.896 42-0.664 2.344-1.904 5.104-3.76 6.36-1.84 1.28-4.856 1.36-7.248 1.056-1.304-0.16-3.416-2.24-3.36-3.36 0.72-14.48 1.704-28.96 2.72-43.416 0.64-9.336 1.92-18.664 1.976-28 0.048-5.712-8.36-10.24-13.64-7.56-2.696 1.384-5.416 4.336-6.384 7.168a3179.536 3179.536 0 0 0-20.736 63.52c-3.984 12.584-6.88 14.576-20.24 12.64-3.816-0.56-6.496-2.768-6.496-6.616 0-13.736 0.536-27.464 0.464-41.2-0.04-5.896-0.56-11.92-1.872-17.68-1.424-6.32-10.48-8.72-14.224-3.76-4.616 6.104-9.408 12.432-12.192 19.44-5.68 14.264-11.144 28.72-12.544 44.368-0.752 8.536-6.016 11.776-14.08 9.36-2.096-0.624-5.12-3.088-5.152-4.76-0.16-8.528 0.344-17.08 0.88-25.6 0.88-13.68 2.12-27.336 2.856-41.04 0.24-4.424-1.704-8.32-6.144-10.352-4.456-2.08-10.4-0.68-14.104 3.072-7.52 7.584-11.28 17.296-14.304 27.072-3.584 11.416-5.8 23.264-8.832 34.848-0.376 1.4-1.968 2.96-3.376 3.536-4.584 1.88-2.984-2.48-3.68-4.216-0.576-1.536-0.464-3.376-0.464-5.104-0.048-14.576 0.016-29.16-0.136-43.736a71.416 71.416 0 0 0-1.256-12.512c-0.24-1.2-2.288-2.6-3.68-2.832-1.36-0.216-3.896 0.584-4.272 1.568-2.432 6.288-4.584 12.72-6.52 19.176-3.392 11.44-6.52 22.96-10 34.4-0.424 1.384-2.816 3.504-3.464 3.232-2.24-0.904-5.464-2.4-5.872-4.24-1.52-6.616-2.72-13.44-2.776-20.224-0.24-31.744-0.128-63.488-0.128-95.232h0.424c0-35.216-0.032-70.4 0.032-105.624 0-4.8 3.2-8 7.712-8.4 2.56-0.224 5.152-0.352 7.712-0.4 87.52-2 175.024-4.608 262.56-5.544 22.56-0.24 41.56-8.72 61.136-17.088 3.072-1.32 4.576-4.424 4.208-8.464-1.2-13.656-1.904-27.36-2.936-41.04-1.088-14.512-2.44-29.024-3.36-43.552-0.16-2.264 0.88-5.76 2.48-6.624 1.52-0.832 5.216 0.256 6.752 1.76 15.984 15.6 31.656 31.48 47.52 47.16 6.096 6.024 12.496 11.736 18.68 17.648a3463.2 3463.2 0 0 1 25.88 24.96c3.704 3.6 7.104 7.488 10.896 10.96 27.76 25.536 55.76 50.824 83.336 76.584 9.384 8.752 17.68 18.672 26.512 28.024 3.52 3.736 6.688 8.08 10.88 10.896 17.92 12.104 16.976 14.544 4.216 29.648z"  /></svg>