<svg xmlns="http://www.w3.org/2000/svg" xmlns:xlink="http://www.w3.org/1999/xlink" version="1.1" width="256" height="256" viewBox="0 0 256 256" xml:space="preserve">

<defs>
</defs>
<g style="stroke: none; stroke-width: 0; stroke-dasharray: none; stroke-linecap: butt; stroke-linejoin: miter; stroke-miterlimit: 10; fill: none; fill-rule: nonzero; opacity: 1;" transform="translate(1.4065934065934016 1.4065934065934016) scale(2.81 2.81)" >
	<path d="M 45 70.499 C 30.939 70.499 19.5 59.06 19.5 45 S 30.939 19.501 45 19.501 c 14.061 0 25.5 11.439 25.5 25.499 S 59.06 70.499 45 70.499 z M 45 25.501 C 34.247 25.501 25.5 34.248 25.5 45 c 0 10.752 8.747 19.499 19.499 19.499 s 19.5 -8.748 19.5 -19.499 C 64.499 34.248 55.752 25.501 45 25.501 z" style="stroke: none; stroke-width: 1; stroke-dasharray: none; stroke-linecap: butt; stroke-linejoin: miter; stroke-miterlimit: 10; fill: rgb(0,0,0); fill-rule: nonzero; opacity: 1;" transform=" matrix(1 0 0 1 0 0) " stroke-linecap="round" />
	<path d="M 35.221 89.999 c -1.142 0 -2.262 -0.224 -3.329 -0.663 l -8.973 -3.718 c -4.435 -1.84 -6.547 -6.942 -4.71 -11.375 c 0.397 -0.958 -0.002 -1.642 -0.406 -2.046 c -0.406 -0.406 -1.091 -0.807 -2.051 -0.408 c -2.146 0.889 -4.512 0.889 -6.659 0 c -2.149 -0.891 -3.822 -2.563 -4.712 -4.712 l -3.715 -8.968 c -1.837 -4.432 0.274 -9.534 4.708 -11.373 C 6.146 46.417 6.537 45.832 6.537 45 c 0 -0.833 -0.39 -1.418 -1.16 -1.737 c -2.146 -0.888 -3.82 -2.561 -4.71 -4.711 c -0.89 -2.148 -0.89 -4.514 0 -6.663 l 3.715 -8.968 c 0.889 -2.147 2.561 -3.821 4.71 -4.711 c 2.15 -0.89 4.516 -0.889 6.662 0 c 0.77 0.317 1.458 0.182 2.046 -0.406 c 0.591 -0.591 0.728 -1.279 0.409 -2.049 c -0.89 -2.148 -0.89 -4.514 0 -6.663 c 0.889 -2.147 2.562 -3.821 4.712 -4.711 l 8.967 -3.714 c 2.15 -0.891 4.517 -0.889 6.664 0 c 2.149 0.89 3.822 2.563 4.711 4.712 C 43.582 6.148 44.166 6.538 45 6.538 s 1.417 -0.39 1.736 -1.158 c 1.84 -4.433 6.942 -6.545 11.372 -4.711 l 8.97 3.716 c 2.147 0.889 3.82 2.562 4.711 4.71 c 0.89 2.147 0.89 4.512 0.002 6.66 c -0.32 0.772 -0.184 1.461 0.405 2.049 c 0.591 0.591 1.275 0.728 2.048 0.408 c 4.43 -1.839 9.534 0.275 11.373 4.707 l 3.717 8.972 c 0.89 2.149 0.89 4.515 0 6.662 c -0.89 2.149 -2.563 3.822 -4.713 4.711 c -0.958 0.397 -1.158 1.161 -1.157 1.732 c 0 0.829 0.383 1.41 1.138 1.73 c 0.009 0.003 0.017 0.007 0.025 0.01 c 4.431 1.837 6.543 6.937 4.709 11.371 l -3.717 8.969 c -1.839 4.428 -6.933 6.542 -11.369 4.714 c -0.775 -0.322 -1.464 -0.184 -2.051 0.403 c -0.409 0.408 -0.808 1.09 -0.41 2.049 c 1.835 4.432 -0.276 9.534 -4.706 11.373 l -8.975 3.717 c -4.432 1.833 -9.533 -0.279 -11.37 -4.706 c -0.32 -0.773 -0.905 -1.164 -1.738 -1.164 s -1.417 0.391 -1.736 1.16 c -0.889 2.146 -2.562 3.819 -4.71 4.71 C 37.488 89.774 36.366 89.999 35.221 89.999 z M 16.509 65.619 c 2.306 0 4.269 1.067 5.536 2.336 c 1.799 1.797 3.193 4.997 1.707 8.585 c -0.571 1.378 0.086 2.964 1.465 3.535 l 8.968 3.716 c 0.666 0.275 1.403 0.275 2.069 0 c 0.679 -0.282 1.186 -0.788 1.466 -1.465 c 1.486 -3.586 4.734 -4.863 7.279 -4.863 c 2.545 0 5.794 1.278 7.28 4.866 c 0.57 1.374 2.158 2.03 3.534 1.46 l 8.971 -3.715 c 1.375 -0.571 2.031 -2.157 1.461 -3.535 c -1.488 -3.592 -0.091 -6.792 1.713 -8.589 c 1.792 -1.797 4.992 -3.191 8.584 -1.704 c 1.373 0.567 2.962 -0.09 3.534 -1.468 l 3.715 -8.967 c 0.566 -1.369 -0.08 -2.945 -1.441 -3.523 c -0.008 -0.003 -0.016 -0.006 -0.024 -0.01 c -3.585 -1.484 -4.862 -4.733 -4.862 -7.278 c -0.003 -2.542 1.272 -5.793 4.862 -7.28 c 0.678 -0.281 1.185 -0.787 1.465 -1.464 c 0.28 -0.677 0.28 -1.393 -0.001 -2.071 l -3.715 -8.969 c -0.572 -1.376 -2.156 -2.032 -3.534 -1.462 c -3.589 1.488 -6.791 0.093 -8.589 -1.71 c -1.797 -1.796 -3.192 -4.997 -1.705 -8.585 c 0.279 -0.676 0.279 -1.392 -0.001 -2.068 c -0.281 -0.678 -0.787 -1.185 -1.464 -1.465 l -8.969 -3.715 c -1.38 -0.569 -2.963 0.088 -3.535 1.467 c -1.484 3.582 -4.733 4.859 -7.278 4.859 c -2.545 0 -5.795 -1.277 -7.28 -4.863 c -0.28 -0.678 -0.786 -1.184 -1.464 -1.465 c -0.677 -0.28 -1.393 -0.281 -2.072 0 l -8.967 3.714 c -0.678 0.281 -1.185 0.787 -1.464 1.463 c -0.281 0.678 -0.281 1.394 0 2.07 c 1.487 3.588 0.092 6.788 -1.709 8.588 c -1.796 1.8 -4.998 3.193 -8.585 1.708 c -0.676 -0.28 -1.393 -0.28 -2.071 0 c -0.676 0.28 -1.183 0.786 -1.462 1.463 L 6.21 34.185 c -0.28 0.678 -0.281 1.394 0 2.071 c 0.281 0.678 0.787 1.184 1.462 1.463 c 3.587 1.487 4.865 4.736 4.865 7.281 s -1.278 5.793 -4.866 7.279 c -1.376 0.571 -2.033 2.156 -1.462 3.532 l 3.715 8.969 c 0.281 0.678 0.787 1.185 1.464 1.465 c 0.676 0.278 1.393 0.279 2.071 -0.001 C 14.518 65.807 15.544 65.619 16.509 65.619 z" style="stroke: none; stroke-width: 1; stroke-dasharray: none; stroke-linecap: butt; stroke-linejoin: miter; stroke-miterlimit: 10; fill: rgb(0,0,0); fill-rule: nonzero; opacity: 1;" transform=" matrix(1 0 0 1 0 0) " stroke-linecap="round" />
	<path d="M 39.825 56.528 c -0.045 0 -0.09 -0.001 -0.135 -0.003 c -0.907 -0.041 -1.746 -0.49 -2.283 -1.222 L 32.7 48.891 c -0.981 -1.335 -0.693 -3.213 0.643 -4.193 c 1.335 -0.981 3.213 -0.693 4.193 0.643 l 2.505 3.411 l 12.593 -14.265 c 1.097 -1.243 2.993 -1.359 4.234 -0.264 c 1.242 1.097 1.36 2.992 0.264 4.234 L 42.074 55.513 C 41.504 56.16 40.684 56.528 39.825 56.528 z" style="stroke: none; stroke-width: 1; stroke-dasharray: none; stroke-linecap: butt; stroke-linejoin: miter; stroke-miterlimit: 10; fill: rgb(0,0,0); fill-rule: nonzero; opacity: 1;" transform=" matrix(1 0 0 1 0 0) " stroke-linecap="round" />
</g>
</svg>