<svg version="1.1"  xmlns="http://www.w3.org/2000/svg"  viewBox="0 0.383 249 247" width="15" height="15" >
<defs>
        <linearGradient id="MyGradient">
          <stop offset="5%" stop-color="#FEA465" />
          <stop offset="20%" stop-color="#F00" />
          <stop offset="65%" stop-color="#F60" />
        </linearGradient>
      </defs>
<path d="M 84.3389 137.1265 Q 83.8405 125.8357 83.9909 116.0324 Q 84.5607 105.1609 86.485 96.1773 Q 87.4376 91.8667 89.0581 88.6812 Q 91.4983 83.7218 94.5873 80.2499 Q 97.2949 77.1214 99.5261 76.1482 Q 102.5391 74.1259 106.5823 73.2476 Q 114.9931 72.2349 123.7283 71.9659 Q 140 72 151 76 Q 159 80 161 84 Q 164 90 164 95 Q 165 101 164 106 Q 162 110 157 112 Q 152 112 147 107 Q 145 103 144 98 Q 143 93 140 92 Q 136 90 132 90 Q 128 89 121 89 Q 113 90 108 96 Q 105 100 103 108 Q 102 115 102 124 Q 101.6558 132.5834 102.7635 139.1823 Q 103.5088 145.7621 105.7985 150.606 Q 109.2325 154.4198 115.317 156.1922 Q 122.0883 158.7273 130.0987 158.4204 Q 138.8529 157.789 146 156 Q 152 152 151 144 Q 148 140 139 140 Q 131 145 123 144 Q 116 141 116 134 Q 116 130 118 127 Q 122 123 128 122 Q 139 120 154 124 Q 160 129 163 136 Q 165 150 161 158 Q 159.6622 162.8767 156.1728 167.0544 Q 152 170 148 172 Q 144 173 139 174 Q 131 174 121 174 Q 110 174 102 170 Q 96 168 93 162 Q 89 157 87 149 z" stroke="#f00" stroke-width="1" fill="url(#MyGradient)"></path>
<g class="cogs" fill="#FEA465">
<path d="M228.204 111.372c-1.092-10.919-4.368-20.746-8.189-30.027l16.378-9.827-12.557-20.746-16.378 9.828c-6.005-8.189-13.648-15.286-21.837-21.292l9.827-17.47-20.747-12.011-9.827 17.47c-9.281-3.822-19.108-6.551-28.935-7.644V0h-24.021v20.2c-10.373 1.092-20.2 3.821-29.481 8.189l-9.827-17.47-21.838 14.194 25.113 33.303c12.011-9.281 29.481-15.833 49.135-15.833 45.313 0 81.891 36.578 81.891 81.891 0 2.73 0 6.006-.546 12.011h42.038v-24.567h-20.2v-.546zM123.929 205.274c-45.313 0-81.891-36.578-81.891-81.892 0-4.368.546-8.735 1.092-12.557H0v24.021h20.2c1.092 10.373 3.822 20.746 7.643 30.026l-16.924 10.373 12.011 20.746 16.924-9.827c6.551 8.735 14.195 16.378 22.93 22.384l-9.281 16.378 21.292 12.011 9.281-16.378c8.735 3.821 18.016 6.005 27.297 7.097v19.108h24.021v-19.108c10.373-1.092 20.746-3.821 30.026-7.643l9.281 16.378 20.746-12.011-24.567-34.395c-13.649 9.829-30.027 15.289-46.951 15.289z" stroke="#f00" stroke-width="2" stroke-linecap="round"></path>
</g>
</svg>