<svg width="34" height="22" viewBox="2 -4 28 32" fill="none" xmlns="http://www.w3.org/2000/svg">
<path d="M6.44821 4.50045C5.91678 4.65103 5.51001 4.89982 5.11636 5.31883C4.67022 5.78367 4.54557 6.05865 3.94853 7.85909L3.43022 9.41728L2.97096 8.96554C2.72165 8.71675 2.41985 8.46796 2.30176 8.40904C1.50133 8.00967 0.609059 8.90007 1.00927 9.6988C1.06832 9.81665 1.32419 10.1178 1.58006 10.3797L2.03932 10.8511L1.71784 11.2046C1.5407 11.3945 1.32419 11.6957 1.2389 11.8659C0.923979 12.5009 0.904297 12.7039 0.904297 15.1787C0.904297 17.6535 0.923979 17.8564 1.2389 18.4915C1.45541 18.9367 2.11149 19.5718 2.53139 19.7616L2.87255 19.9187V20.58C2.87255 21.7912 3.12186 22.5048 3.7517 23.1399C4.89329 24.2791 6.75657 24.2791 7.89816 23.1399C8.51488 22.5179 8.77731 21.7847 8.77731 20.6717V20.089H12.7138H16.6503V20.6717C16.6503 21.4115 16.7356 21.8501 16.9784 22.3673C17.4967 23.4738 18.822 24.1678 20.0357 23.9648C21.2823 23.7619 22.2599 22.8191 22.4895 21.6013C22.5223 21.4049 22.5551 20.9466 22.5551 20.58V19.9187L22.9028 19.7616C23.3161 19.5718 23.9722 18.9367 24.1887 18.4915C24.5037 17.8564 24.5233 17.6535 24.5233 15.1787C24.5233 12.7039 24.5037 12.5009 24.1887 11.8659C24.1034 11.6957 23.8869 11.3945 23.7098 11.2046L23.3883 10.8511L23.8476 10.3797C24.1034 10.1178 24.3593 9.81665 24.4184 9.6988C24.8186 8.90007 23.9263 8.00967 23.1259 8.40904C23.0078 8.46796 22.706 8.71675 22.4567 8.96554L21.9974 9.41728L21.4791 7.85909C21.197 7.00797 20.8886 6.1634 20.8033 5.98663C20.5868 5.56762 20.062 5.01112 19.6421 4.77542C18.9269 4.36951 19.0778 4.37605 12.6745 4.3826C7.35361 4.3826 6.80906 4.3957 6.44821 4.50045ZM18.5989 6.46456C18.7498 6.53658 18.9204 6.66097 18.9794 6.75263C19.0582 6.87048 20.1932 10.144 20.1932 10.2488C20.1932 10.2619 16.8275 10.2684 12.7138 10.2684C8.60017 10.2684 5.23446 10.2619 5.23446 10.2488C5.23446 10.144 6.36948 6.87048 6.44821 6.75263C6.50726 6.66097 6.67784 6.53658 6.82874 6.46456C7.09118 6.34672 7.34705 6.34017 12.7138 6.34017C18.0806 6.34017 18.3365 6.34672 18.5989 6.46456ZM22.0433 12.3765C22.437 12.5991 22.5551 12.8872 22.5551 13.6074V14.1966H20.9805C19.524 14.1966 19.3796 14.2097 19.1434 14.3276C18.8482 14.4781 18.6186 14.8513 18.6186 15.1787C18.6186 15.506 18.8482 15.8792 19.1434 16.0298C19.3796 16.1476 19.524 16.1607 20.9805 16.1607H22.5551V16.7565C22.5551 17.4636 22.4239 17.7648 22.0302 17.9874C21.7875 18.1183 21.7087 18.1249 19.2156 18.1249H16.6503V17.5356C16.6503 16.8024 16.5191 16.4946 16.1255 16.2917C15.7974 16.128 15.535 16.128 15.2069 16.2917C14.8133 16.4946 14.6821 16.8024 14.6821 17.5356V18.1249H12.7138H10.7456V17.5356C10.7456 16.8024 10.6143 16.4946 10.2207 16.2917C9.89266 16.128 9.63022 16.128 9.30218 16.2917C8.90853 16.4946 8.77731 16.8024 8.77731 17.5356V18.1249H6.21202C3.7189 18.1249 3.64017 18.1183 3.39742 17.9874C3.00377 17.7648 2.87255 17.4636 2.87255 16.7565V16.1607H4.44715C5.90366 16.1607 6.048 16.1476 6.28419 16.0298C6.57943 15.8792 6.80906 15.506 6.80906 15.1787C6.80906 14.8513 6.57943 14.4781 6.28419 14.3276C6.048 14.2097 5.90366 14.1966 4.44715 14.1966H2.87255V13.6008C2.87255 12.9003 2.99721 12.5991 3.39086 12.3765L3.62705 12.2325H12.7073H21.7809L22.0433 12.3765ZM6.80906 20.6847C6.80906 21.1692 6.78281 21.3264 6.67128 21.5293C6.50726 21.8174 6.12673 22.0531 5.82493 22.0531C5.52313 22.0531 5.1426 21.8174 4.97858 21.5293C4.86705 21.3264 4.8408 21.1692 4.8408 20.6847V20.089H5.82493H6.80906V20.6847ZM20.5868 20.6847C20.5868 21.1692 20.5606 21.3264 20.4491 21.5293C20.285 21.8174 19.9045 22.0531 19.6027 22.0531C19.3009 22.0531 18.9204 21.8174 18.7564 21.5293C18.6448 21.3264 18.6186 21.1692 18.6186 20.6847V20.089H19.6027H20.5868V20.6847Z" fill="#E43A3E"/>
<path fill-rule="evenodd" clip-rule="evenodd" d="M29.8568 0.95238C29.8568 0.426394 29.4304 0 28.9044 0C28.3784 0 27.952 0.426396 27.952 0.952381V3.2381H25.4758C24.9498 3.2381 24.5234 3.66449 24.5234 4.19048C24.5234 4.71646 24.9498 5.14286 25.4758 5.14286H27.952V7.61905C27.952 8.14503 28.3784 8.57143 28.9044 8.57143C29.4304 8.57143 29.8568 8.14503 29.8568 7.61905V5.14286H32.1425C32.6685 5.14286 33.0949 4.71646 33.0949 4.19048C33.0949 3.66449 32.6685 3.2381 32.1425 3.2381H29.8568V0.95238Z" fill="#E43A3E"/>
</svg>
