<svg width="30" height="24" viewBox="-1 -4 30 31" fill="none" xmlns="http://www.w3.org/2000/svg">
<path d="M6.00842 2.06208C5.34178 2.2217 4.75965 2.69586 4.4498 3.32025C4.2714 3.69112 4.26671 3.69582 4.25263 4.33898L4.23385 4.98684L3.21511 5.00092C2.23393 5.01501 2.19168 5.0197 1.93817 5.13707C1.5673 5.31077 1.31379 5.55958 1.13539 5.92107L0.980469 6.23561V15.5075V24.7794L1.10253 25.0423C1.27623 25.4132 1.52505 25.6667 1.88653 25.8451L2.20107 26H9.28996H16.3789L16.6464 25.8686C16.9892 25.6995 17.3506 25.3099 17.4774 24.9672C17.5619 24.7371 17.576 24.601 17.576 23.8686V23.0283L18.2943 23.0048C18.867 22.9907 19.0642 22.9626 19.2895 22.8828C20.0594 22.6058 20.6557 21.9438 20.8106 21.1974C20.8857 20.8453 20.8857 4.16058 20.8106 3.80849C20.6557 3.06673 20.0688 2.41418 19.2895 2.11842L19.0078 2.01044L12.6466 2.00105C7.26658 1.99636 6.24315 2.00575 6.00842 2.06208ZM18.8341 3.55967C18.928 3.60192 19.0548 3.68173 19.1158 3.73807C19.374 3.97749 19.3599 3.41883 19.3599 12.5029C19.3599 21.587 19.374 21.0284 19.1158 21.2678C18.9093 21.465 18.6933 21.5166 18.1159 21.5166H17.576V13.9113C17.576 6.33889 17.576 6.31072 17.4774 6.04782C17.3506 5.70512 16.9892 5.31546 16.6464 5.14646L16.3789 5.01501L11.0645 5.00092L5.74552 4.99153V4.50799C5.74552 4.07608 5.75491 4.01035 5.85819 3.86013C5.96147 3.7099 6.107 3.61131 6.35582 3.52211C6.39338 3.50803 9.17729 3.49395 12.5433 3.49395C17.9609 3.48925 18.6792 3.49864 18.8341 3.55967ZM16.0502 15.5075V24.4977H9.26649H2.48275L2.46867 15.5544C2.46397 10.6345 2.46867 6.58301 2.48275 6.55015C2.49683 6.5032 3.88175 6.49381 9.27588 6.5032L16.0502 6.51729V15.5075Z" fill="#E43A3E"/>
<path d="M5.53451 10.6908C5.21997 10.8269 5.04157 11.1884 5.1073 11.5405C5.14955 11.7612 5.38428 12.0194 5.59554 12.0804C5.7129 12.118 6.97107 12.1273 9.51086 12.118C13.2055 12.1039 13.2525 12.1039 13.3792 12.0053C13.628 11.8222 13.7032 11.672 13.7032 11.3762C13.7032 11.0804 13.628 10.9302 13.3792 10.7471C13.2525 10.6485 13.2055 10.6485 9.46391 10.6391C6.38424 10.6298 5.64718 10.6391 5.53451 10.6908Z" fill="#E43A3E"/>
<path d="M5.53451 13.6954C5.21997 13.8316 5.04157 14.1931 5.1073 14.5452C5.14955 14.7658 5.38428 15.024 5.59554 15.085C5.7129 15.1226 6.97107 15.132 9.51086 15.1226C13.2055 15.1085 13.2525 15.1085 13.3792 15.0099C13.628 14.8268 13.7032 14.6766 13.7032 14.3808C13.7032 14.0851 13.628 13.9348 13.3792 13.7518C13.2525 13.6532 13.2055 13.6532 9.46391 13.6438C6.38424 13.6344 5.64718 13.6438 5.53451 13.6954Z" fill="#E43A3E"/>
<path d="M5.53451 16.6998C5.21997 16.836 5.04157 17.1974 5.1073 17.5495C5.14955 17.7702 5.38428 18.0284 5.59554 18.0894C5.7129 18.127 6.97107 18.1364 9.51086 18.127C13.2055 18.1129 13.2525 18.1129 13.3792 18.0143C13.628 17.8312 13.7032 17.681 13.7032 17.3852C13.7032 17.0895 13.628 16.9392 13.3792 16.7562C13.2525 16.6576 13.2055 16.6576 9.46391 16.6482C6.38424 16.6388 5.64718 16.6482 5.53451 16.6998Z" fill="#E43A3E"/>
<path fill-rule="evenodd" clip-rule="evenodd" d="M27.7806 0.95238C27.7806 0.426394 27.3542 0 26.8282 0C26.3022 0 25.8758 0.426396 25.8758 0.952381V3.2381H23.3996C22.8737 3.2381 22.4473 3.66449 22.4473 4.19048C22.4473 4.71646 22.8737 5.14286 23.3996 5.14286H25.8758V7.61905C25.8758 8.14503 26.3022 8.57143 26.8282 8.57143C27.3542 8.57143 27.7806 8.14503 27.7806 7.61905V5.14286H30.0663C30.5923 5.14286 31.0187 4.71646 31.0187 4.19048C31.0187 3.66449 30.5923 3.2381 30.0663 3.2381H27.7806V0.95238Z" fill="#E43A3E"/>
</svg>
