<svg width="18" height="18" viewBox="0 0 18 18" fill="none" xmlns="http://www.w3.org/2000/svg">
<path d="M13.6667 1H4.33333C2.49533 1 1 2.49533 1 4.33333V13.6667C1 15.5047 2.49533 17 4.33333 17H12.0973C12.9553 17 13.762 16.666 14.3687 16.0593L16.0593 14.3687C16.6573 13.7713 17 12.9427 17 12.0973V4.33333C17 2.49533 15.5047 1 13.6667 1ZM2.33333 13.6667V4.33333C2.33333 3.23067 3.23067 2.33333 4.33333 2.33333H13.6667C14.7693 2.33333 15.6667 3.23067 15.6667 4.33333V11H13C11.8973 11 11 11.8973 11 13V15.6667H4.33333C3.23067 15.6667 2.33333 14.7693 2.33333 13.6667ZM13.426 15.1167C13.1273 15.4153 12.746 15.6 12.3333 15.6513V13C12.3333 12.632 12.6327 12.3333 13 12.3333H15.6507C15.598 12.7433 15.41 13.132 15.116 13.426L13.426 15.1167ZM4.33333 5.33333C4.33333 4.78133 4.78133 4.33333 5.33333 4.33333C5.88533 4.33333 6.33333 4.78133 6.33333 5.33333C6.33333 5.88533 5.88533 6.33333 5.33333 6.33333C4.78133 6.33333 4.33333 5.88533 4.33333 5.33333ZM6.33333 9C6.33333 9.552 5.88533 10 5.33333 10C4.78133 10 4.33333 9.552 4.33333 9C4.33333 8.448 4.78133 8 5.33333 8C5.88533 8 6.33333 8.448 6.33333 9ZM6.33333 12.6667C6.33333 13.2187 5.88533 13.6667 5.33333 13.6667C4.78133 13.6667 4.33333 13.2187 4.33333 12.6667C4.33333 12.1147 4.78133 11.6667 5.33333 11.6667C5.88533 11.6667 6.33333 12.1147 6.33333 12.6667Z" fill="#E43A3E"/>
</svg>
