<svg width="24" height="24" viewBox="0 0 24 24" fill="none" xmlns="http://www.w3.org/2000/svg">
<path d="M18.2223 1.33325H5.77782C3.32715 1.33325 1.33337 3.32703 1.33337 5.7777V18.2221C1.33337 20.6728 3.32715 22.6666 5.77782 22.6666H16.1298C17.2738 22.6666 18.3494 22.2213 19.1583 21.4124L21.4125 19.1581C22.2098 18.3617 22.6667 17.2568 22.6667 16.1297V5.7777C22.6667 3.32703 20.6729 1.33325 18.2223 1.33325ZM3.11115 18.2221V5.7777C3.11115 4.30747 4.3076 3.11103 5.77782 3.11103H18.2223C19.6925 3.11103 20.8889 4.30747 20.8889 5.7777V14.6666H17.3334C15.8632 14.6666 14.6667 15.863 14.6667 17.3333V20.8888H5.77782C4.3076 20.8888 3.11115 19.6924 3.11115 18.2221ZM17.9014 20.1555C17.5032 20.5537 16.9947 20.7999 16.4445 20.8684V17.3333C16.4445 16.8426 16.8436 16.4444 17.3334 16.4444H20.8676C20.7974 16.991 20.5467 17.5093 20.1547 17.9013L17.9014 20.1555ZM5.77782 7.11103C5.77782 6.37503 6.37515 5.7777 7.11115 5.7777C7.84715 5.7777 8.44448 6.37503 8.44448 7.11103C8.44448 7.84703 7.84715 8.44436 7.11115 8.44436C6.37515 8.44436 5.77782 7.84703 5.77782 7.11103ZM8.44448 11.9999C8.44448 12.7359 7.84715 13.3333 7.11115 13.3333C6.37515 13.3333 5.77782 12.7359 5.77782 11.9999C5.77782 11.2639 6.37515 10.6666 7.11115 10.6666C7.84715 10.6666 8.44448 11.2639 8.44448 11.9999ZM8.44448 16.8888C8.44448 17.6248 7.84715 18.2221 7.11115 18.2221C6.37515 18.2221 5.77782 17.6248 5.77782 16.8888C5.77782 16.1528 6.37515 15.5555 7.11115 15.5555C7.84715 15.5555 8.44448 16.1528 8.44448 16.8888Z" fill="#E43A3E"/>
</svg>
