<svg width="28" height="26" viewBox="0 0 28 26" fill="none" xmlns="http://www.w3.org/2000/svg">
<path d="M13.0095 0.0927486C12.598 0.209593 12.2831 0.402639 11.9783 0.72777C11.6328 1.08846 11.5363 1.30183 11.074 2.69888L10.6727 3.90796L10.317 3.55742C10.124 3.36438 9.89032 3.17133 9.79887 3.12561C9.17909 2.81572 8.48819 3.50662 8.79808 4.1264C8.8438 4.21785 9.04193 4.45153 9.24005 4.65474L9.59567 5.02051L9.34674 5.29484C9.20957 5.44217 9.04193 5.67585 8.97589 5.80794C8.73204 6.30071 8.7168 6.4582 8.7168 8.3785C8.7168 10.2988 8.73204 10.4563 8.97589 10.9491C9.14353 11.2945 9.65155 11.7873 9.97668 11.9346L10.2408 12.0565V12.5696C10.2408 13.5095 10.4339 14.0632 10.9216 14.556C11.8055 15.4399 13.2483 15.4399 14.1323 14.556C14.6098 14.0734 14.813 13.5044 14.813 12.6408V12.1886H17.8611H20.9092V12.6408C20.9092 13.2148 20.9752 13.5552 21.1632 13.9565C21.5645 14.8151 22.5907 15.3536 23.5306 15.1961C24.4958 15.0386 25.2527 14.3071 25.4306 13.3622C25.456 13.2097 25.4814 12.8541 25.4814 12.5696V12.0565L25.7506 11.9346C26.0707 11.7873 26.5787 11.2945 26.7463 10.9491C26.9902 10.4563 27.0054 10.2988 27.0054 8.3785C27.0054 6.4582 26.9902 6.30071 26.7463 5.80794C26.6803 5.67585 26.5126 5.44217 26.3755 5.29484L26.1265 5.02051L26.4821 4.65474C26.6803 4.45153 26.8784 4.21785 26.9241 4.1264C27.234 3.50662 26.5431 2.81572 25.9233 3.12561C25.8319 3.17133 25.5982 3.36438 25.4052 3.55742L25.0495 3.90796L24.6482 2.69888C24.4298 2.03845 24.191 1.38311 24.1249 1.24595C23.9573 0.920816 23.5509 0.489002 23.2258 0.306116C22.672 -0.00885487 22.7889 -0.00377464 17.8306 0.00130558C13.7106 0.00130558 13.2889 0.011466 13.0095 0.0927486ZM22.418 1.6168C22.5349 1.67268 22.6669 1.7692 22.7127 1.84033C22.7736 1.93177 23.6525 4.47185 23.6525 4.55314C23.6525 4.5633 21.0464 4.56838 17.8611 4.56838C14.6758 4.56838 12.0697 4.5633 12.0697 4.55314C12.0697 4.47185 12.9486 1.93177 13.0095 1.84033C13.0553 1.7692 13.1873 1.67268 13.3042 1.6168C13.5074 1.52536 13.7055 1.52028 17.8611 1.52028C22.0167 1.52028 22.2148 1.52536 22.418 1.6168ZM25.0851 6.20419C25.3899 6.37692 25.4814 6.60044 25.4814 7.15926V7.61648H24.2621C23.1343 7.61648 23.0226 7.62664 22.8397 7.71808C22.6111 7.83493 22.4333 8.1245 22.4333 8.3785C22.4333 8.63251 22.6111 8.92208 22.8397 9.03893C23.0226 9.13037 23.1343 9.14053 24.2621 9.14053H25.4814V9.60282C25.4814 10.1515 25.3797 10.3852 25.0749 10.5579C24.887 10.6595 24.826 10.6646 22.8955 10.6646H20.9092V10.2074C20.9092 9.63839 20.8076 9.39962 20.5028 9.24213C20.2488 9.11513 20.0456 9.11513 19.7916 9.24213C19.4868 9.39962 19.3852 9.63839 19.3852 10.2074V10.6646H17.8611H16.337V10.2074C16.337 9.63839 16.2354 9.39962 15.9306 9.24213C15.6766 9.11513 15.4734 9.11513 15.2194 9.24213C14.9146 9.39962 14.813 9.63839 14.813 10.2074V10.6646H12.8267C10.8962 10.6646 10.8352 10.6595 10.6473 10.5579C10.3425 10.3852 10.2408 10.1515 10.2408 9.60282V9.14053H11.4601C12.5879 9.14053 12.6996 9.13037 12.8825 9.03893C13.1111 8.92208 13.2889 8.63251 13.2889 8.3785C13.2889 8.1245 13.1111 7.83493 12.8825 7.71808C12.6996 7.62664 12.5879 7.61648 11.4601 7.61648H10.2408V7.15418C10.2408 6.61061 10.3374 6.37692 10.6422 6.20419L10.8251 6.09243H17.856H24.8819L25.0851 6.20419ZM13.2889 12.6509C13.2889 13.0269 13.2686 13.1488 13.1823 13.3063C13.0553 13.5298 12.7606 13.7127 12.5269 13.7127C12.2932 13.7127 11.9986 13.5298 11.8716 13.3063C11.7852 13.1488 11.7649 13.0269 11.7649 12.6509V12.1886H12.5269H13.2889V12.6509ZM23.9573 12.6509C23.9573 13.0269 23.937 13.1488 23.8506 13.3063C23.7236 13.5298 23.429 13.7127 23.1953 13.7127C22.9616 13.7127 22.6669 13.5298 22.5399 13.3063C22.4536 13.1488 22.4333 13.0269 22.4333 12.6509V12.1886H23.1953H23.9573V12.6509Z" fill="#E43A3E"/>
<path d="M1.39235 13.9159C1.2755 13.9768 1.15866 14.0987 1.0977 14.2207C0.996094 14.4137 0.996094 14.5153 0.996094 18.3864C0.996094 22.2626 0.996094 22.3591 1.0977 22.5522C1.16374 22.6842 1.27042 22.7909 1.40251 22.857C1.59047 22.9535 1.69716 22.9586 3.10436 22.9586H4.60301L7.23454 24.2743C8.67731 24.9957 10.0134 25.646 10.2014 25.7222C10.9177 26.0016 11.0701 26.0168 13.8591 25.9914C16.0944 25.9762 16.45 25.9609 16.7192 25.8847C17.4203 25.6815 17.7759 25.4529 20.4227 23.4666C21.8451 22.3997 23.105 21.4244 23.2269 21.3024C23.8975 20.6064 24.0143 19.3923 23.486 18.5541C22.8764 17.5888 21.6165 17.2129 20.6055 17.6904C20.4531 17.7666 19.7318 18.2696 19.0053 18.8131C18.2788 19.3567 17.6794 19.7987 17.6794 19.7936C17.6743 19.7885 17.6946 19.6615 17.7251 19.5142C17.8877 18.7471 17.4508 17.7311 16.7649 17.2739C16.2214 16.9182 16.1198 16.8979 14.4077 16.8624C12.9447 16.8319 12.843 16.8268 12.5586 16.715C12.3909 16.649 11.507 16.0953 10.5925 15.4856C8.80431 14.2969 8.51982 14.1343 7.94577 13.9565C7.58507 13.8447 7.51395 13.8447 4.57761 13.8295C1.6616 13.8143 1.57523 13.8193 1.39235 13.9159ZM4.0442 18.3864V21.4345H3.28217H2.52014V18.3864V15.3383H3.28217H4.0442V18.3864ZM7.72224 15.4856C7.88988 15.5517 8.77383 16.1054 9.68826 16.715C12.208 18.3915 12.0709 18.3407 14.1791 18.3712C15.5406 18.3915 15.6676 18.4017 15.8353 18.4982C16.0537 18.6201 16.2366 18.9147 16.2366 19.1484C16.2366 19.3821 16.0537 19.6768 15.8302 19.8038C15.6422 19.9105 15.5914 19.9105 13.1936 19.9105C10.8415 19.9105 10.7399 19.9155 10.5468 20.0121C10.3182 20.1289 10.1404 20.4185 10.1404 20.6725C10.1404 20.9265 10.3182 21.2161 10.5468 21.3329C10.7399 21.4294 10.8364 21.4345 14.3315 21.4345C17.2831 21.4345 17.9435 21.4244 18.0807 21.3634C18.1721 21.3227 18.9139 20.7893 19.7368 20.1746C20.5598 19.5549 21.2964 19.0367 21.3777 19.0214C21.6114 18.9656 21.8603 19.0367 22.0534 19.2043C22.3887 19.499 22.3938 19.9867 22.0686 20.3016C21.8045 20.5506 17.024 24.1118 16.8005 24.2286C16.323 24.4674 16.1604 24.4826 13.6965 24.4826C12.4112 24.4826 11.2834 24.4572 11.1564 24.4318C11.0294 24.4064 9.72382 23.7816 8.25058 23.05L5.56825 21.7139V18.5236V15.3281L6.49792 15.3485C7.31582 15.3688 7.45807 15.384 7.72224 15.4856Z" fill="#E43A3E"/>
</svg>
