<svg width="17" height="17" viewBox="0 0 17 17" fill="none" xmlns="http://www.w3.org/2000/svg">
<path d="M16.9575 4.66792L16.3342 7.7775C16.0012 9.42792 14.5421 10.625 12.8633 10.625H4.76708C5.06458 11.4608 5.85083 12.0417 6.77167 12.0417H13.4583C13.8479 12.0417 14.1667 12.3604 14.1667 12.75C14.1667 13.1396 13.8479 13.4583 13.4583 13.4583H6.77167C4.97958 13.4583 3.46375 12.1125 3.25125 10.3275L2.27375 2.04C2.23125 1.68583 1.92667 1.41667 1.5725 1.41667H0.708333C0.31875 1.41667 0 1.09792 0 0.708333C0 0.31875 0.31875 0 0.708333 0H1.5725C2.64917 0 3.55583 0.8075 3.68333 1.87708L3.71167 2.125H6.375C6.76458 2.125 7.08333 2.44375 7.08333 2.83333C7.08333 3.22292 6.76458 3.54167 6.375 3.54167H3.88167L4.5475 9.20833H12.8633C13.8692 9.20833 14.7475 8.49292 14.9458 7.50125L15.5692 4.39167C15.6117 4.18625 15.555 3.96667 15.4204 3.80375C15.2858 3.64083 15.0875 3.54167 14.875 3.54167H12.0417C11.6521 3.54167 11.3333 3.22292 11.3333 2.83333C11.3333 2.44375 11.6521 2.125 12.0417 2.125H14.875C15.5125 2.125 16.1146 2.40833 16.5183 2.90417C16.9221 3.4 17.085 4.04458 16.9575 4.66792ZM4.95833 14.1667C4.17917 14.1667 3.54167 14.8042 3.54167 15.5833C3.54167 16.3625 4.17917 17 4.95833 17C5.7375 17 6.375 16.3625 6.375 15.5833C6.375 14.8042 5.7375 14.1667 4.95833 14.1667ZM12.0417 14.1667C11.2625 14.1667 10.625 14.8042 10.625 15.5833C10.625 16.3625 11.2625 17 12.0417 17C12.8208 17 13.4583 16.3625 13.4583 15.5833C13.4583 14.8042 12.8208 14.1667 12.0417 14.1667ZM6.56625 5.13542C6.29708 5.41875 6.31833 5.87208 6.60167 6.13417L7.70667 7.16833C8.12458 7.58625 8.67 7.79167 9.21542 7.79167C9.76083 7.79167 10.2921 7.58625 10.6958 7.1825L11.8221 6.13417C12.1054 5.865 12.1196 5.41875 11.8575 5.13542C11.5883 4.85208 11.1421 4.83083 10.8587 5.1L9.92375 5.97125V0.708333C9.92375 0.31875 9.605 0 9.21542 0C8.82583 0 8.50708 0.31875 8.50708 0.708333V5.97125L7.57208 5.1C7.28875 4.83083 6.83542 4.85208 6.57333 5.13542H6.56625Z" fill="black"/>
</svg>
