<svg width="18" height="17" viewBox="0 0 18 17" fill="#000000" xmlns="http://www.w3.org/2000/svg">
<path d="M17.4575 4.66792L16.8342 7.7775C16.5012 9.42792 15.0421 10.625 13.3633 10.625H5.26708C5.56458 11.4608 6.35083 12.0417 7.27167 12.0417H13.9583C14.3479 12.0417 14.6667 12.3604 14.6667 12.75C14.6667 13.1396 14.3479 13.4583 13.9583 13.4583H7.27167C5.47958 13.4583 3.96375 12.1125 3.75125 10.3275L2.77375 2.04C2.73125 1.68583 2.42667 1.41667 2.0725 1.41667H1.20833C0.81875 1.41667 0.5 1.09792 0.5 0.708333C0.5 0.31875 0.81875 0 1.20833 0H2.0725C3.14917 0 4.05583 0.8075 4.18333 1.87708L4.21167 2.125H6.875C7.26458 2.125 7.58333 2.44375 7.58333 2.83333C7.58333 3.22292 7.26458 3.54167 6.875 3.54167H4.38167L5.0475 9.20833H13.3633C14.3692 9.20833 15.2475 8.49292 15.4458 7.50125L16.0692 4.39167C16.1117 4.18625 16.055 3.96667 15.9204 3.80375C15.7858 3.64083 15.5875 3.54167 15.375 3.54167H12.5417C12.1521 3.54167 11.8333 3.22292 11.8333 2.83333C11.8333 2.44375 12.1521 2.125 12.5417 2.125H15.375C16.0125 2.125 16.6146 2.40833 17.0183 2.90417C17.4221 3.4 17.585 4.04458 17.4575 4.66792ZM5.45833 14.1667C4.67917 14.1667 4.04167 14.8042 4.04167 15.5833C4.04167 16.3625 4.67917 17 5.45833 17C6.2375 17 6.875 16.3625 6.875 15.5833C6.875 14.8042 6.2375 14.1667 5.45833 14.1667ZM12.5417 14.1667C11.7625 14.1667 11.125 14.8042 11.125 15.5833C11.125 16.3625 11.7625 17 12.5417 17C13.3208 17 13.9583 16.3625 13.9583 15.5833C13.9583 14.8042 13.3208 14.1667 12.5417 14.1667ZM7.06625 5.13542C6.79708 5.41875 6.81833 5.87208 7.10167 6.13417L8.20667 7.16833C8.62458 7.58625 9.17 7.79167 9.71542 7.79167C10.2608 7.79167 10.7921 7.58625 11.1958 7.1825L12.3221 6.13417C12.6054 5.865 12.6196 5.41875 12.3575 5.13542C12.0883 4.85208 11.6421 4.83083 11.3587 5.1L10.4237 5.97125V0.708333C10.4237 0.31875 10.105 0 9.71542 0C9.32583 0 9.00708 0.31875 9.00708 0.708333V5.97125L8.07208 5.1C7.78875 4.83083 7.33542 4.85208 7.07333 5.13542H7.06625Z" />
</svg>
