<svg width="22" height="22" viewBox="0 0 26 20" fill="none" xmlns="http://www.w3.org/2000/svg">
<g clip-path="url(#clip0_32_4713)">
<path d="M23.9434 6.22389L23.1123 10.37C22.6684 12.5706 20.7228 14.1667 18.4845 14.1667H7.68949C8.08615 15.2811 9.13449 16.0556 10.3623 16.0556H19.2778C19.7973 16.0556 20.2223 16.4806 20.2223 17C20.2223 17.5194 19.7973 17.9444 19.2778 17.9444H10.3623C7.97282 17.9444 5.95171 16.15 5.66837 13.77L4.36504 2.72C4.30837 2.24778 3.90226 1.88889 3.43004 1.88889H2.27782C1.75837 1.88889 1.33337 1.46389 1.33337 0.944444C1.33337 0.425 1.75837 0 2.27782 0H3.43004C4.8656 0 6.07448 1.07667 6.24448 2.50278L6.28226 2.83333H9.83337C10.3528 2.83333 10.7778 3.25833 10.7778 3.77778C10.7778 4.29722 10.3528 4.72222 9.83337 4.72222H6.50893L7.39671 12.2778H18.4845C19.8256 12.2778 20.9967 11.3239 21.2612 10.0017L22.0923 5.85556C22.1489 5.58167 22.0734 5.28889 21.8939 5.07167C21.7145 4.85444 21.45 4.72222 21.1667 4.72222H17.3889C16.8695 4.72222 16.4445 4.29722 16.4445 3.77778C16.4445 3.25833 16.8695 2.83333 17.3889 2.83333H21.1667C22.0167 2.83333 22.8195 3.21111 23.3578 3.87222C23.8962 4.53333 24.1134 5.39278 23.9434 6.22389ZM7.94448 18.8889C6.9056 18.8889 6.0556 19.7389 6.0556 20.7778C6.0556 21.8167 6.9056 22.6667 7.94448 22.6667C8.98337 22.6667 9.83337 21.8167 9.83337 20.7778C9.83337 19.7389 8.98337 18.8889 7.94448 18.8889ZM17.3889 18.8889C16.35 18.8889 15.5 19.7389 15.5 20.7778C15.5 21.8167 16.35 22.6667 17.3889 22.6667C18.4278 22.6667 19.2778 21.8167 19.2778 20.7778C19.2778 19.7389 18.4278 18.8889 17.3889 18.8889ZM10.0884 6.84722C9.72949 7.225 9.75782 7.82944 10.1356 8.17889L11.6089 9.55778C12.1662 10.115 12.8934 10.3889 13.6206 10.3889C14.3478 10.3889 15.0562 10.115 15.5945 9.57667L17.0962 8.17889C17.4739 7.82 17.4928 7.225 17.1434 6.84722C16.7845 6.46944 16.1895 6.44111 15.8117 6.8L14.565 7.96167V0.944444C14.565 0.425 14.14 0 13.6206 0C13.1012 0 12.6762 0.425 12.6762 0.944444V7.96167L11.4295 6.8C11.0517 6.44111 10.4473 6.46944 10.0978 6.84722H10.0884Z" fill="#E43A3E"/>
</g>
<defs>
<clipPath id="clip0_32_4713">
<rect width="24" height="24" fill="white"/>
</clipPath>
</defs>
</svg>
