<svg width="23" height="24" viewBox="-3 -6 28 30" fill="none" xmlns="http://www.w3.org/2000/svg">
<path d="M2.64064 0.0816383C1.45006 0.407265 0.539321 1.26713 0.137374 2.45261L0 2.85965V11.9925V21.1253L0.137374 21.5324C0.544409 22.7229 1.47041 23.5981 2.65081 23.8982C3.03241 23.9949 3.2461 24 11.051 24C18.9475 24 19.0594 24 19.2578 23.8982C19.497 23.7761 19.6852 23.537 19.7615 23.2623C19.7971 23.1351 19.8175 22.4533 19.8175 21.4459V19.833L20.8758 19.8177C21.9188 19.8025 21.929 19.8025 22.1681 19.6651C22.3411 19.5582 22.4378 19.4565 22.5344 19.258L22.6667 18.9935V10.1405C22.6667 4.11637 22.6515 1.22133 22.6108 1.08905C22.5853 0.982201 22.4887 0.819387 22.4072 0.722717C22.0918 0.366562 22.5751 0.386913 15.0603 0.402178L8.29333 0.41744L7.93717 0.539551C7.46399 0.697277 7.08749 0.890619 6.70589 1.17554L6.39044 1.4045L5.99358 1.01273C5.26601 0.300419 4.65546 0.0358467 3.63787 0.0053196C3.12399 -0.00994492 2.93065 0.0053196 2.64064 0.0816383ZM4.18737 2.12699C4.48756 2.27454 4.75722 2.54928 4.91494 2.86474L5.03705 3.11404L5.05232 9.35185L5.06249 15.5846L4.64019 15.4421C3.89735 15.1928 3.07311 15.203 2.3201 15.4574C2.16746 15.5133 2.03517 15.554 2.025 15.554C2.01991 15.554 2.00973 12.776 2.00973 9.38237C2.00973 2.48314 1.98429 2.94614 2.37606 2.50349C2.82889 1.98961 3.5819 1.83697 4.18737 2.12699ZM20.6316 10.0845V17.7927H13.8392H7.04678V11.0868C7.04678 7.08263 7.06714 4.269 7.09766 4.09093C7.19433 3.48546 7.57084 2.93088 8.04911 2.66631C8.59352 2.37121 8.33912 2.38138 14.7448 2.38138L20.6316 2.3763V10.0845ZM4.1314 17.3857C4.43668 17.518 4.77757 17.8589 4.90477 18.154C4.96582 18.2964 5.03705 18.5814 5.06249 18.795C5.11337 19.253 5.27618 19.5277 5.59672 19.6956C5.80024 19.8025 5.82568 19.8025 11.7938 19.8177L17.7823 19.8279V20.9218V22.0157L10.471 22.0055L3.15452 21.9903L2.88486 21.8682C2.55414 21.7206 2.20307 21.339 2.09114 21.0134C2.025 20.8251 2.00973 20.5453 2.00973 19.6244C2.00973 18.8815 2.03008 18.4084 2.07079 18.2964C2.35062 17.4671 3.32242 17.0346 4.1314 17.3857Z" fill="#E43A3E"/>
<path d="M9.52967 4.559C8.99544 4.89989 8.9293 5.68852 9.39739 6.12609C9.69249 6.40083 9.57038 6.39575 13.8748 6.39575C17.6398 6.39575 17.8688 6.39066 18.0621 6.29907C18.1741 6.2482 18.3165 6.15152 18.3776 6.08538C18.632 5.81063 18.7185 5.33746 18.576 5.00674C18.4895 4.80831 18.2148 4.53865 18.0214 4.46742C17.9248 4.42672 16.5561 4.41145 13.8188 4.41145H9.76372L9.52967 4.559Z" fill="#E43A3E"/>
<path d="M9.6924 9.17377C8.95465 9.49431 8.86306 10.5068 9.52958 10.9291L9.76363 11.0767H13.8543H17.945L18.1434 10.9647C18.7845 10.6086 18.81 9.69783 18.1994 9.27044L17.9755 9.11781L13.9256 9.10763C10.3844 9.09746 9.85012 9.10254 9.6924 9.17377Z" fill="#E43A3E"/>
<path d="M9.60043 13.9309C9.01023 14.2209 8.90339 15.0808 9.39691 15.5387C9.67675 15.8033 9.73781 15.8083 11.946 15.8083C14.0727 15.8083 14.1999 15.7982 14.4798 15.5896C14.6375 15.4725 14.8054 15.1876 14.8512 14.9485C14.9224 14.572 14.6833 14.109 14.322 13.9258C14.1338 13.8291 14.0168 13.8241 11.9714 13.8241C9.87518 13.8241 9.81413 13.8291 9.60043 13.9309Z" fill="#E43A3E"/>
</svg>
