<svg width="16" height="16" viewBox="0 0 16 16" fill="none" xmlns="http://www.w3.org/2000/svg">
<g clip-path="url(#clip0_58_4623)">
<path d="M2.4165 15.3333H8.9165C9.38042 15.3326 9.82513 15.148 10.1532 14.82C10.4812 14.492 10.6658 14.0473 10.6665 13.5833V5.08334C10.6658 4.61943 10.4812 4.17472 10.1532 3.84669C9.82513 3.51865 9.38042 3.33405 8.9165 3.33334H2.4165C1.95259 3.33405 1.50788 3.51865 1.17985 3.84669C0.85181 4.17472 0.667209 4.61943 0.666504 5.08334V13.5833C0.667209 14.0473 0.85181 14.492 1.17985 14.82C1.50788 15.148 1.95259 15.3326 2.4165 15.3333ZM1.99984 5.08334C1.99984 4.97284 2.04374 4.86686 2.12188 4.78872C2.20002 4.71058 2.306 4.66668 2.4165 4.66668H8.9165C9.02701 4.66668 9.13299 4.71058 9.21113 4.78872C9.28927 4.86686 9.33317 4.97284 9.33317 5.08334V13.5833C9.33317 13.6939 9.28927 13.7998 9.21113 13.878C9.13299 13.9561 9.02701 14 8.9165 14H2.4165C2.306 14 2.20002 13.9561 2.12188 13.878C2.04374 13.7998 1.99984 13.6939 1.99984 13.5833V5.08334Z" fill="#6987D4"/>
<path d="M13.58 0.666672H7.0867C6.74193 0.666998 6.40491 0.769002 6.11782 0.959919C5.83074 1.15084 5.60634 1.42218 5.4727 1.74001C5.40375 1.90285 5.4023 2.08641 5.46869 2.25032C5.53508 2.41423 5.66386 2.54505 5.8267 2.61401C5.98955 2.68296 6.17311 2.6844 6.33702 2.61802C6.50093 2.55163 6.63175 2.42285 6.7007 2.26001C6.73225 2.18344 6.78572 2.11791 6.8544 2.07165C6.92308 2.02539 7.0039 2.00047 7.0867 2.00001H13.58C13.6914 2.00018 13.7981 2.04449 13.8768 2.12322C13.9556 2.20194 13.9999 2.30867 14 2.42001V10.9133C13.9999 11.0247 13.9556 11.1314 13.8768 11.2101C13.7981 11.2889 13.6914 11.3332 13.58 11.3333H12C11.8232 11.3333 11.6537 11.4036 11.5286 11.5286C11.4036 11.6536 11.3334 11.8232 11.3334 12C11.3334 12.1768 11.4036 12.3464 11.5286 12.4714C11.6537 12.5964 11.8232 12.6667 12 12.6667H13.58C14.0449 12.6661 14.4905 12.4812 14.8192 12.1525C15.1479 11.8238 15.3328 11.3782 15.3334 10.9133V2.42001C15.3328 1.95515 15.1479 1.50949 14.8192 1.1808C14.4905 0.852097 14.0449 0.667201 13.58 0.666672Z" fill="#6987D4"/>
</g>
<defs>
<clipPath id="clip0_58_4623">
<rect width="16" height="16" fill="white"/>
</clipPath>
</defs>
</svg>
