<svg width="24" height="24" viewBox="0 0 24 24" fill="none" xmlns="http://www.w3.org/2000/svg">
<path d="M1.92583 0.0906467C1.10996 0.306335 0.458206 0.897137 0.14405 1.71301L0.0174491 2.03654L0.00338239 10.3125C-0.00599542 16.3565 0.00338238 18.6634 0.0408936 18.8697C0.195627 19.6809 0.692651 20.3373 1.42412 20.6984C2.0243 20.9985 2.0665 21.0032 5.55036 21.0032H8.69192L10.0517 22.3676C10.8019 23.1179 11.5053 23.7931 11.6178 23.8681C11.8663 24.0275 12.0679 24.0416 12.3164 23.915C12.4102 23.8634 13.1229 23.1882 13.8966 22.4145L15.3033 21.0032H18.4448C21.8443 21.0032 21.9428 20.9938 22.4914 20.7453C23.2181 20.4124 23.7433 19.7653 23.9309 18.9635C23.9871 18.7244 24.0012 17.4115 24.0012 10.4953C24.0012 2.49137 24.0012 2.29912 23.9074 1.94745C23.7808 1.44574 23.612 1.15503 23.2275 0.770536C22.8477 0.386047 22.557 0.217247 22.0506 0.0906467C21.6943 -0.00313187 21.502 -0.00313187 11.9788 0.0015564C2.55415 0.0015564 2.25875 0.00624466 1.92583 0.0906467ZM21.8115 1.47856C21.9428 1.52545 22.1163 1.63798 22.2382 1.7599C22.6273 2.14439 22.5992 1.40354 22.5851 10.5703C22.5711 18.4243 22.5664 18.7337 22.482 18.8932C22.3601 19.1229 22.135 19.3527 21.9146 19.4699C21.7271 19.573 21.7036 19.573 18.2104 19.5965C16.2786 19.6106 14.6843 19.6293 14.675 19.634C14.6609 19.6387 14.056 20.2389 13.3246 20.9656L11.9976 22.2879L10.6706 20.9656C9.93917 20.2389 9.3343 19.6387 9.32023 19.634C9.31086 19.6293 7.72132 19.6106 5.7848 19.5965C2.47443 19.573 2.25875 19.5684 2.10401 19.484C1.87426 19.362 1.6445 19.137 1.52728 18.9166L1.42412 18.729L1.41005 10.5703C1.39599 1.40354 1.36785 2.14439 1.75703 1.7599C2.13683 1.38009 1.22719 1.41292 11.9788 1.40823C20.6814 1.40354 21.6145 1.41292 21.8115 1.47856Z" fill="#E43A3E"/>
<path d="M11.7915 3.79479C11.7165 3.81824 11.6039 3.88388 11.5383 3.94484C11.4727 4.00579 11.0319 4.83573 10.5583 5.79227C9.72369 7.48496 9.69087 7.53654 9.54552 7.56467C9.46112 7.57874 8.64525 7.69596 7.73091 7.82725C6.81657 7.95854 5.98195 8.08514 5.88348 8.11327C5.64435 8.17892 5.45679 8.37116 5.38177 8.61968C5.27392 8.98541 5.34895 9.08388 6.86346 10.5562C7.61369 11.283 8.22793 11.9113 8.23731 11.9582C8.24669 12.0004 8.1154 12.8397 7.9466 13.8244C7.77311 14.809 7.63713 15.6905 7.63713 15.789C7.63713 16.1454 7.95598 16.4548 8.33109 16.4548C8.50458 16.4548 8.7906 16.3189 10.2676 15.5452L12.0025 14.6309L13.7327 15.5452C15.205 16.3235 15.491 16.4548 15.6645 16.4548C16.0396 16.4548 16.3585 16.1454 16.3585 15.789C16.3585 15.6905 16.2225 14.809 16.049 13.8244C15.8802 12.8397 15.7489 12.0004 15.7583 11.9582C15.7677 11.9113 16.3866 11.283 17.1322 10.5562C18.5576 9.16828 18.6936 9.00417 18.6373 8.69939C18.5951 8.4837 18.4451 8.26332 18.2763 8.17423C18.1825 8.12734 17.4135 7.99605 16.246 7.82256C15.2097 7.67252 14.3516 7.54592 14.3329 7.54592C14.3188 7.54592 13.9203 6.77225 13.4514 5.8204C12.9872 4.87324 12.5464 4.0433 12.4808 3.96828C12.4104 3.89795 12.2791 3.81824 12.1901 3.79479C11.9978 3.74321 11.9744 3.74321 11.7915 3.79479ZM12.6074 7.2974C13.1794 8.47432 13.3248 8.71814 13.503 8.81192C13.5498 8.84005 14.1735 8.94321 14.8909 9.04637C15.6083 9.14952 16.246 9.24799 16.3069 9.26205C16.4101 9.2855 16.3116 9.39334 15.3832 10.2936C14.558 11.0954 14.3376 11.3392 14.2954 11.4752C14.2579 11.6206 14.2907 11.8878 14.4876 13.0272C14.6142 13.7822 14.7127 14.4152 14.6986 14.4245C14.6846 14.4386 14.1219 14.1573 13.442 13.8009C12.3823 13.2429 12.1807 13.1492 11.9978 13.1492C11.8196 13.1492 11.6039 13.2476 10.5536 13.8009C9.87374 14.1573 9.31107 14.4386 9.297 14.4245C9.28294 14.4152 9.3814 13.7822 9.508 13.0272C9.70494 11.8925 9.73776 11.6206 9.70025 11.4752C9.66274 11.3392 9.43298 11.0907 8.61711 10.2936C7.69809 9.39803 7.59024 9.28081 7.68871 9.26205C7.74967 9.24799 8.34047 9.1589 8.99691 9.06981C10.4505 8.8635 10.5021 8.84943 10.6709 8.65719C10.7412 8.57279 11.0647 7.96323 11.3883 7.2974C11.7071 6.63627 11.9837 6.09236 11.9978 6.09236C12.0119 6.09236 12.2885 6.63627 12.6074 7.2974Z" fill="#E43A3E"/>
</svg>
