<svg width="24" height="24" viewBox="0 0 24 24" fill="none" xmlns="http://www.w3.org/2000/svg">
<g clip-path="url(#clip0_32_4704)">
<path d="M24 11.2471C23.8554 8.9071 23.0292 6.66059 21.6232 4.7845C20.2173 2.90841 18.293 1.48477 16.0877 0.68907C13.8825 -0.106627 11.4925 -0.239591 9.21259 0.306571C6.93265 0.852733 4.86237 2.05415 3.25698 3.76269C1.65159 5.47124 0.581271 7.61224 0.177972 9.92173C-0.225327 12.2312 0.0560265 14.6083 0.987346 16.7598C1.91867 18.9113 3.45924 20.7433 5.41914 22.0298C7.37904 23.3164 9.67259 24.0013 12.017 24.0001H19C20.3257 23.9988 21.5967 23.4715 22.5341 22.5341C23.4715 21.5968 23.9987 20.3258 24 19.0001V11.2471ZM22 19.0001C22 19.7957 21.684 20.5588 21.1214 21.1214C20.5587 21.684 19.7957 22.0001 19 22.0001H12.017C10.606 21.9994 9.21087 21.7014 7.92273 21.1254C6.63458 20.5494 5.4823 19.7083 4.54103 18.6571C3.5952 17.6063 2.88496 16.3655 2.45792 15.0179C2.03089 13.6702 1.89693 12.2468 2.06503 10.8431C2.33047 8.62902 3.32522 6.56626 4.89247 4.98C6.45972 3.39374 8.51033 2.37419 10.721 2.08207C11.1523 2.02803 11.5864 2.00064 12.021 2.00007C14.3515 1.99372 16.6098 2.80798 18.4 4.30008C19.4456 5.16902 20.3037 6.24123 20.9226 7.45171C21.5414 8.66218 21.9079 9.98572 22 11.3421V19.0001Z" fill="#E43A3E"/>
<path d="M8 9H12C12.2652 9 12.5196 8.89464 12.7071 8.70711C12.8946 8.51957 13 8.26522 13 8C13 7.73478 12.8946 7.48043 12.7071 7.29289C12.5196 7.10536 12.2652 7 12 7H8C7.73478 7 7.48043 7.10536 7.29289 7.29289C7.10536 7.48043 7 7.73478 7 8C7 8.26522 7.10536 8.51957 7.29289 8.70711C7.48043 8.89464 7.73478 9 8 9Z" fill="#E43A3E"/>
<path d="M16 11H8C7.73478 11 7.48043 11.1054 7.29289 11.2929C7.10536 11.4804 7 11.7348 7 12C7 12.2652 7.10536 12.5196 7.29289 12.7071C7.48043 12.8946 7.73478 13 8 13H16C16.2652 13 16.5196 12.8946 16.7071 12.7071C16.8946 12.5196 17 12.2652 17 12C17 11.7348 16.8946 11.4804 16.7071 11.2929C16.5196 11.1054 16.2652 11 16 11Z" fill="#E43A3E"/>
<path d="M16 15H8C7.73478 15 7.48043 15.1054 7.29289 15.2929C7.10536 15.4804 7 15.7348 7 16C7 16.2652 7.10536 16.5196 7.29289 16.7071C7.48043 16.8946 7.73478 17 8 17H16C16.2652 17 16.5196 16.8946 16.7071 16.7071C16.8946 16.5196 17 16.2652 17 16C17 15.7348 16.8946 15.4804 16.7071 15.2929C16.5196 15.1054 16.2652 15 16 15Z" fill="#E43A3E"/>
</g>
<defs>
<clipPath id="clip0_32_4704">
<rect width="24" height="24" fill="white"/>
</clipPath>
</defs>
</svg>
