<svg width="19" height="18" viewBox="0 0 19 18" fill="none" xmlns="http://www.w3.org/2000/svg">
<g clip-path="url(#clip0_201_2228)">
<path d="M18.8334 8.43518C18.7249 6.6802 18.1052 4.99532 17.0508 3.58825C15.9963 2.18119 14.5531 1.11345 12.8992 0.516681C11.2452 -0.0800926 9.45274 -0.179815 7.74279 0.229806C6.03283 0.639428 4.48012 1.54049 3.27608 2.8219C2.07204 4.10331 1.2693 5.70906 0.966822 7.44118C0.664348 9.1733 0.875363 10.9561 1.57385 12.5697C2.27234 14.1834 3.42777 15.5573 4.8977 16.5222C6.36762 17.4872 8.08778 18.0008 9.84612 17.9999H15.0834C16.0776 17.9989 17.0309 17.6035 17.7339 16.9005C18.437 16.1974 18.8324 15.2442 18.8334 14.2499V8.43518ZM17.3334 14.2499C17.3334 14.8467 17.0963 15.419 16.6744 15.8409C16.2524 16.2629 15.6801 16.4999 15.0834 16.4999H9.84612C8.78782 16.4995 7.7415 16.2759 6.77539 15.8439C5.80928 15.4119 4.94507 14.7811 4.23912 13.9927C3.52975 13.2046 2.99706 12.274 2.67679 11.2633C2.35651 10.2525 2.25604 9.18495 2.38212 8.13218C2.58119 6.47164 3.32726 4.92458 4.5027 3.73488C5.67814 2.54518 7.21609 1.78052 8.87412 1.56143C9.19754 1.5209 9.52316 1.50036 9.84912 1.49993C11.597 1.49517 13.2907 2.10586 14.6334 3.22493C15.4175 3.87664 16.0611 4.6808 16.5253 5.58866C16.9894 6.49651 17.2643 7.48916 17.3334 8.50643V14.2499Z" fill="#E43A3E"/>
<path d="M6.83337 6.75H9.83337C10.0323 6.75 10.2231 6.67098 10.3637 6.53033C10.5044 6.38968 10.5834 6.19891 10.5834 6C10.5834 5.80109 10.5044 5.61032 10.3637 5.46967C10.2231 5.32902 10.0323 5.25 9.83337 5.25H6.83337C6.63446 5.25 6.4437 5.32902 6.30304 5.46967C6.16239 5.61032 6.08337 5.80109 6.08337 6C6.08337 6.19891 6.16239 6.38968 6.30304 6.53033C6.4437 6.67098 6.63446 6.75 6.83337 6.75Z" fill="#E43A3E"/>
<path d="M12.8334 8.25H6.83337C6.63446 8.25 6.4437 8.32902 6.30304 8.46967C6.16239 8.61032 6.08337 8.80109 6.08337 9C6.08337 9.19891 6.16239 9.38968 6.30304 9.53033C6.4437 9.67098 6.63446 9.75 6.83337 9.75H12.8334C13.0323 9.75 13.2231 9.67098 13.3637 9.53033C13.5044 9.38968 13.5834 9.19891 13.5834 9C13.5834 8.80109 13.5044 8.61032 13.3637 8.46967C13.2231 8.32902 13.0323 8.25 12.8334 8.25Z" fill="#E43A3E"/>
<path d="M12.8334 11.25H6.83337C6.63446 11.25 6.4437 11.329 6.30304 11.4697C6.16239 11.6103 6.08337 11.8011 6.08337 12C6.08337 12.1989 6.16239 12.3897 6.30304 12.5303C6.4437 12.671 6.63446 12.75 6.83337 12.75H12.8334C13.0323 12.75 13.2231 12.671 13.3637 12.5303C13.5044 12.3897 13.5834 12.1989 13.5834 12C13.5834 11.8011 13.5044 11.6103 13.3637 11.4697C13.2231 11.329 13.0323 11.25 12.8334 11.25Z" fill="#E43A3E"/>
</g>
<defs>
<clipPath id="clip0_201_2228">
<rect width="18" height="18" fill="#E43A3E" transform="translate(0.833374)"/>
</clipPath>
</defs>
</svg>
