<svg width="30" height="26" viewBox="-2 -1 32 30" fill="none" xmlns="http://www.w3.org/2000/svg">
<path d="M5.4635 1.60774C4.79686 1.76736 4.21472 2.24151 3.90488 2.8659C3.72648 3.23678 3.72179 3.24147 3.7077 3.88463L3.68893 4.53249L2.67019 4.54658C1.68901 4.56066 1.64676 4.56536 1.39325 4.68272C1.02238 4.85642 0.768866 5.10524 0.59047 5.46672L0.435547 5.78126V15.0532V24.3251L0.557607 24.5879C0.731309 24.9588 0.980124 25.2123 1.34161 25.3907L1.65615 25.5457H8.74504H15.8339L16.1015 25.4142C16.4442 25.2452 16.8057 24.8555 16.9325 24.5128C17.017 24.2828 17.0311 24.1467 17.0311 23.4143V22.574L17.7493 22.5505C18.3221 22.5364 18.5193 22.5082 18.7446 22.4284C19.5145 22.1514 20.1107 21.4895 20.2657 20.743C20.3408 20.391 20.3408 3.70624 20.2657 3.35414C20.1107 2.61239 19.5239 1.95984 18.7446 1.66407L18.4629 1.5561L12.1017 1.54671C6.72166 1.54201 5.69823 1.5514 5.4635 1.60774ZM18.2892 3.10533C18.3831 3.14758 18.5099 3.22739 18.5709 3.28372C18.8291 3.52315 18.815 2.96449 18.815 12.0486C18.815 21.1327 18.8291 20.574 18.5709 20.8135C18.3643 21.0106 18.1484 21.0623 17.5709 21.0623H17.0311V13.457C17.0311 5.88455 17.0311 5.85638 16.9325 5.59348C16.8057 5.25077 16.4442 4.86112 16.1015 4.69211L15.8339 4.56066L10.5196 4.54658L5.2006 4.53719V4.05364C5.2006 3.62173 5.20999 3.55601 5.31327 3.40578C5.41655 3.25555 5.56208 3.15697 5.8109 3.06777C5.84845 3.05368 8.63237 3.0396 11.9984 3.0396C17.416 3.03491 18.1343 3.0443 18.2892 3.10533ZM15.5053 15.0532V24.0434H8.72157H1.93783L1.92374 15.1001C1.91905 10.1801 1.92374 6.12867 1.93783 6.0958C1.95191 6.04886 3.33683 6.03947 8.73096 6.04886L15.5053 6.06294V15.0532Z" fill="#E43A3E"/>
<path d="M4.98959 10.2364C4.67505 10.3726 4.49665 10.7341 4.56238 11.0862C4.60463 11.3068 4.83936 11.565 5.05062 11.626C5.16798 11.6636 6.42614 11.673 8.96594 11.6636C12.6606 11.6495 12.7076 11.6495 12.8343 11.5509C13.0831 11.3678 13.1582 11.2176 13.1582 10.9219C13.1582 10.6261 13.0831 10.4759 12.8343 10.2928C12.7076 10.1942 12.6606 10.1942 8.91899 10.1848C5.83931 10.1754 5.10226 10.1848 4.98959 10.2364Z" fill="#E43A3E"/>
<path d="M4.98959 13.2411C4.67505 13.3772 4.49665 13.7387 4.56238 14.0908C4.60463 14.3115 4.83936 14.5697 5.05062 14.6307C5.16798 14.6682 6.42614 14.6776 8.96594 14.6682C12.6606 14.6542 12.7076 14.6542 12.8343 14.5556C13.0831 14.3725 13.1582 14.2223 13.1582 13.9265C13.1582 13.6307 13.0831 13.4805 12.8343 13.2974C12.7076 13.1988 12.6606 13.1988 8.91899 13.1894C5.83931 13.18 5.10226 13.1894 4.98959 13.2411Z" fill="#E43A3E"/>
<path d="M4.98959 16.2455C4.67505 16.3816 4.49665 16.7431 4.56238 17.0952C4.60463 17.3158 4.83936 17.5741 5.05062 17.6351C5.16798 17.6726 6.42614 17.682 8.96594 17.6726C12.6606 17.6586 12.7076 17.6586 12.8343 17.56C13.0831 17.3769 13.1582 17.2266 13.1582 16.9309C13.1582 16.6351 13.0831 16.4849 12.8343 16.3018C12.7076 16.2032 12.6606 16.2032 8.91899 16.1938C5.83931 16.1844 5.10226 16.1938 4.98959 16.2455Z" fill="#E43A3E"/>
<path d="M24.571 0.733535C24.1991 0.361607 23.5961 0.361608 23.2242 0.733536C22.8523 1.10546 22.8523 1.70848 23.2242 2.08041L24.8404 3.69665L23.0895 5.44758C22.7176 5.81951 22.7176 6.42252 23.0895 6.79445C23.4614 7.16638 24.0644 7.16638 24.4364 6.79445L26.1873 5.04352L27.9382 6.79445C28.3102 7.16638 28.9132 7.16638 29.2851 6.79445C29.657 6.42252 29.657 5.81951 29.2851 5.44758L27.5342 3.69665L29.1504 2.08041C29.5223 1.70848 29.5223 1.10546 29.1504 0.733537C28.7785 0.361609 28.1755 0.361609 27.8035 0.733536L26.1873 2.34978L24.571 0.733535Z" fill="#E43A3E"/>
</svg>
