<svg width="32" height="24" viewBox="0 -3 32 30" fill="none" xmlns="http://www.w3.org/2000/svg">
<path d="M5.90329 4.0461C5.37186 4.19669 4.96509 4.44547 4.57144 4.86448C4.1253 5.32932 4.00064 5.6043 3.40361 7.40474L2.8853 8.96294L2.42604 8.51119C2.17673 8.2624 1.87493 8.01361 1.75684 7.95469C0.956412 7.55532 0.0641369 8.44572 0.464349 9.24446C0.523396 9.36231 0.779269 9.66347 1.03514 9.92535L1.4944 10.3967L1.17292 10.7503C0.995777 10.9401 0.779269 11.2413 0.693978 11.4115C0.379058 12.0466 0.359375 12.2496 0.359375 14.7243C0.359375 17.1991 0.379058 17.4021 0.693978 18.0371C0.910486 18.4823 1.56657 19.1174 1.98646 19.3073L2.32763 19.4644V20.1257C2.32763 21.3369 2.57694 22.0505 3.20678 22.6855C4.34837 23.8247 6.21165 23.8247 7.35324 22.6855C7.96996 22.0636 8.23239 21.3303 8.23239 20.2173V19.6346H12.1689H16.1054V20.2173C16.1054 20.9571 16.1907 21.3958 16.4334 21.913C16.9518 23.0194 18.277 23.7134 19.4908 23.5105C20.7374 23.3075 21.7149 22.3647 21.9446 21.147C21.9774 20.9506 22.0102 20.4923 22.0102 20.1257V19.4644L22.3579 19.3073C22.7712 19.1174 23.4273 18.4823 23.6438 18.0371C23.9587 17.4021 23.9784 17.1991 23.9784 14.7243C23.9784 12.2496 23.9587 12.0466 23.6438 11.4115C23.5585 11.2413 23.342 10.9401 23.1649 10.7503L22.8434 10.3967L23.3027 9.92535C23.5585 9.66347 23.8144 9.36231 23.8734 9.24446C24.2737 8.44572 23.3814 7.55532 22.581 7.95469C22.4629 8.01361 22.1611 8.2624 21.9118 8.51119L21.4525 8.96294L20.9342 7.40474C20.6521 6.55362 20.3437 5.70905 20.2584 5.53228C20.0419 5.11327 19.517 4.55677 19.0972 4.32108C18.382 3.91516 18.5329 3.92171 12.1295 3.92826C6.80869 3.92826 6.26414 3.94135 5.90329 4.0461ZM18.054 6.01022C18.2049 6.08224 18.3755 6.20663 18.4345 6.29829C18.5132 6.41613 19.6483 9.68966 19.6483 9.79441C19.6483 9.8075 16.2825 9.81405 12.1689 9.81405C8.05525 9.81405 4.68953 9.8075 4.68953 9.79441C4.68953 9.68966 5.82456 6.41613 5.90329 6.29829C5.96234 6.20663 6.13292 6.08224 6.28382 6.01022C6.54625 5.89237 6.80213 5.88582 12.1689 5.88582C17.5357 5.88582 17.7915 5.89237 18.054 6.01022ZM21.4984 11.9222C21.8921 12.1448 22.0102 12.4329 22.0102 13.153V13.7423H20.4356C18.9791 13.7423 18.8347 13.7554 18.5985 13.8732C18.3033 14.0238 18.0737 14.397 18.0737 14.7243C18.0737 15.0517 18.3033 15.4249 18.5985 15.5755C18.8347 15.6933 18.9791 15.7064 20.4356 15.7064H22.0102V16.3022C22.0102 17.0093 21.879 17.3104 21.4853 17.533C21.2425 17.664 21.1638 17.6705 18.6707 17.6705H16.1054V17.0813C16.1054 16.348 15.9742 16.0403 15.5805 15.8373C15.2525 15.6737 14.9901 15.6737 14.662 15.8373C14.2684 16.0403 14.1372 16.348 14.1372 17.0813V17.6705H12.1689H10.2006V17.0813C10.2006 16.348 10.0694 16.0403 9.67578 15.8373C9.34773 15.6737 9.0853 15.6737 8.75726 15.8373C8.36361 16.0403 8.23239 16.348 8.23239 17.0813V17.6705H5.6671C3.17398 17.6705 3.09525 17.664 2.8525 17.533C2.45885 17.3104 2.32763 17.0093 2.32763 16.3022V15.7064H3.90223C5.35874 15.7064 5.50308 15.6933 5.73927 15.5755C6.03451 15.4249 6.26414 15.0517 6.26414 14.7243C6.26414 14.397 6.03451 14.0238 5.73927 13.8732C5.50308 13.7554 5.35874 13.7423 3.90223 13.7423H2.32763V13.1465C2.32763 12.446 2.45229 12.1448 2.84594 11.9222L3.08213 11.7782H12.1623H21.236L21.4984 11.9222ZM6.26414 20.2304C6.26414 20.7149 6.23789 20.872 6.12636 21.075C5.96234 21.363 5.58181 21.5987 5.28001 21.5987C4.97821 21.5987 4.59768 21.363 4.43366 21.075C4.32213 20.872 4.29588 20.7149 4.29588 20.2304V19.6346H5.28001H6.26414V20.2304ZM20.0419 20.2304C20.0419 20.7149 20.0157 20.872 19.9041 21.075C19.7401 21.363 19.3596 21.5987 19.0578 21.5987C18.756 21.5987 18.3755 21.363 18.2114 21.075C18.0999 20.872 18.0737 20.7149 18.0737 20.2304V19.6346H19.0578H20.0419V20.2304Z" fill="#E43A3E"/>
<path d="M31.3613 2.21509C31.7333 1.84316 31.7333 1.24015 31.3613 0.868223C30.9894 0.496295 30.3864 0.496295 30.0145 0.868223L28.3982 2.48447L26.6473 0.733535C26.2754 0.361607 25.6724 0.361608 25.3004 0.733536C24.9285 1.10546 24.9285 1.70848 25.3004 2.08041L27.0514 3.83134L25.3004 5.58227C24.9285 5.9542 24.9285 6.55721 25.3004 6.92914C25.6724 7.30107 26.2754 7.30107 26.6473 6.92914L28.3982 5.17821L30.0145 6.79445C30.3864 7.16638 30.9894 7.16638 31.3613 6.79445C31.7333 6.42252 31.7333 5.81951 31.3613 5.44758L29.7451 3.83134L31.3613 2.21509Z" fill="#E43A3E"/>
</svg>
