<svg width="20" height="24" viewBox="0 -4 20 32" fill="none" xmlns="http://www.w3.org/2000/svg">
<path d="M5.08459 0.0620842C4.41795 0.221703 3.83582 0.69586 3.52597 1.32025C3.34758 1.69112 3.34288 1.69582 3.3288 2.33898L3.31002 2.98684L2.29128 3.00092C1.31011 3.01501 1.26786 3.0197 1.01435 3.13707C0.643469 3.31077 0.389959 3.55958 0.211563 3.92107L0.0566406 4.23561V13.5075V22.7794L0.178701 23.0423C0.352402 23.4132 0.601218 23.6667 0.962704 23.8451L1.27724 24H8.36613H15.455L15.7226 23.8686C16.0653 23.6995 16.4268 23.3099 16.5536 22.9672C16.6381 22.7371 16.6522 22.601 16.6522 21.8686V21.0283L17.3704 21.0048C17.9432 20.9907 18.1404 20.9626 18.3657 20.8828C19.1356 20.6058 19.7318 19.9438 19.8868 19.1974C19.9619 18.8453 19.9619 2.16058 19.8868 1.80849C19.7318 1.06673 19.145 0.414181 18.3657 0.11842L18.084 0.0104427L11.7228 0.00105476C6.34275 -0.00364113 5.31932 0.00574875 5.08459 0.0620842ZM17.9103 1.55967C18.0042 1.60192 18.131 1.68173 18.192 1.73807C18.4502 1.97749 18.4361 1.41883 18.4361 10.5029C18.4361 19.587 18.4502 19.0284 18.192 19.2678C17.9854 19.465 17.7695 19.5166 17.192 19.5166H16.6522V11.9113C16.6522 4.33889 16.6522 4.31072 16.5536 4.04782C16.4268 3.70512 16.0653 3.31546 15.7226 3.14646L15.455 3.01501L10.1407 3.00092L4.82169 2.99153V2.50799C4.82169 2.07608 4.83108 2.01035 4.93436 1.86013C5.03764 1.7099 5.18318 1.61131 5.43199 1.52211C5.46955 1.50803 8.25346 1.49395 11.6195 1.49395C17.0371 1.48925 17.7554 1.49864 17.9103 1.55967ZM15.1264 13.5075V22.4977H8.34266H1.55892L1.54484 13.5544C1.54014 8.63448 1.54484 4.58301 1.55892 4.55015C1.57301 4.5032 2.95792 4.49381 8.35205 4.5032L15.1264 4.51729V13.5075Z" fill="#E43A3E"/>
<path d="M4.61068 8.69078C4.29614 8.82693 4.11774 9.18841 4.18347 9.54051C4.22572 9.76116 4.46045 10.0194 4.67171 10.0804C4.78908 10.118 6.04724 10.1273 8.58703 10.118C12.2817 10.1039 12.3287 10.1039 12.4554 10.0053C12.7042 9.82219 12.7793 9.67196 12.7793 9.3762C12.7793 9.08044 12.7042 8.93021 12.4554 8.74712C12.3287 8.64853 12.2817 8.64853 8.54009 8.63914C5.46041 8.62975 4.72335 8.63914 4.61068 8.69078Z" fill="#E43A3E"/>
<path d="M4.61068 11.6954C4.29614 11.8316 4.11774 12.1931 4.18347 12.5452C4.22572 12.7658 4.46045 13.024 4.67171 13.085C4.78908 13.1226 6.04724 13.132 8.58703 13.1226C12.2817 13.1085 12.3287 13.1085 12.4554 13.0099C12.7042 12.8268 12.7793 12.6766 12.7793 12.3808C12.7793 12.0851 12.7042 11.9348 12.4554 11.7518C12.3287 11.6532 12.2817 11.6532 8.54009 11.6438C5.46041 11.6344 4.72335 11.6438 4.61068 11.6954Z" fill="#E43A3E"/>
<path d="M4.61068 14.6998C4.29614 14.836 4.11774 15.1974 4.18347 15.5495C4.22572 15.7702 4.46045 16.0284 4.67171 16.0894C4.78908 16.127 6.04724 16.1364 8.58703 16.127C12.2817 16.1129 12.3287 16.1129 12.4554 16.0143C12.7042 15.8312 12.7793 15.681 12.7793 15.3852C12.7793 15.0895 12.7042 14.9392 12.4554 14.7562C12.3287 14.6576 12.2817 14.6576 8.54009 14.6482C5.46041 14.6388 4.72335 14.6482 4.61068 14.6998Z" fill="#E43A3E"/>
</svg>
