<svg width="18" height="18" viewBox="-5 -5 24 24" fill="none" xmlns="http://www.w3.org/2000/svg">
<path d="M12.1667 0.850481C11.9987 0.882431 11.7187 0.958315 11.5467 1.02621C10.8508 1.2938 11.0788 1.08212 6.0069 6.13832C3.17098 8.96196 1.23103 10.9229 1.13904 11.0627C1.05504 11.1865 0.947043 11.3942 0.899044 11.522C0.851046 11.6458 0.631052 12.6043 0.411058 13.6467C-0.0529284 15.8313 -0.0769277 16.067 0.107067 16.5862C0.227064 16.9297 0.447057 17.2691 0.683051 17.4728C1.03504 17.7843 1.58302 18 2.03101 18C2.24701 18 6.0949 17.2412 6.40289 17.1373C6.89887 16.9736 6.84687 17.0215 11.7467 12.1331C16.7106 7.17671 16.6786 7.21266 16.9306 6.60559C17.1106 6.16228 17.1826 5.8228 17.2066 5.29961C17.2386 4.48088 17.0466 3.76598 16.6066 3.11498C16.3226 2.68764 15.1146 1.4855 14.7786 1.2938C14.0027 0.850481 13.0587 0.690727 12.1667 0.850481ZM13.1227 2.86737C13.5347 2.94325 13.7587 3.09502 14.3867 3.73403C15.0146 4.37304 15.1386 4.56475 15.2186 5.00806C15.2706 5.31559 15.1946 5.73893 15.0306 6.01451C14.9666 6.12633 13.1467 7.98347 10.3748 10.7712L5.8229 15.3441L3.93896 15.6596C2.90699 15.8353 2.05101 15.9671 2.04301 15.9592C2.03501 15.9512 2.19501 15.1005 2.399 14.0741L2.76699 12.201L7.30286 7.67195C11.2747 3.70208 11.8667 3.12697 12.0787 3.02313C12.4507 2.83542 12.7307 2.79548 13.1227 2.86737Z" fill="#E43A3E"/>
</svg>
