<svg width="30" height="22" viewBox="-4 0 28 32" fill="none" xmlns="http://www.w3.org/2000/svg">
<path d="M5.3036 13.7158C4.82048 13.8531 4.45069 14.08 4.09282 14.4622C3.68724 14.8861 3.57392 15.1369 3.03116 16.779L2.55997 18.2001L2.14246 17.7881C1.91581 17.5612 1.64145 17.3343 1.53409 17.2805C0.806433 16.9163 -0.00472644 17.7284 0.359102 18.4568C0.412782 18.5643 0.645394 18.839 0.878006 19.0778L1.29551 19.5078L1.00326 19.8302C0.842219 20.0034 0.645394 20.278 0.567857 20.4333C0.281565 21.0125 0.263672 21.1976 0.263672 23.4547C0.263672 25.7118 0.281565 25.8969 0.567857 26.4761C0.764682 26.8821 1.36112 27.4613 1.74284 27.6345L2.05299 27.7778V28.3808C2.05299 29.4855 2.27964 30.1364 2.85222 30.7156C3.89003 31.7545 5.58392 31.7545 6.62173 30.7156C7.18238 30.1483 7.42096 29.4795 7.42096 28.4644V27.933H10.9996H14.5782V28.4644C14.5782 29.1392 14.6558 29.5392 14.8765 30.011C15.3477 31.0201 16.5525 31.653 17.6559 31.4679C18.7891 31.2828 19.6778 30.423 19.8866 29.3123C19.9164 29.1332 19.9462 28.7152 19.9462 28.3808V27.7778L20.2623 27.6345C20.6381 27.4613 21.2345 26.8821 21.4314 26.4761C21.7176 25.8969 21.7355 25.7118 21.7355 23.4547C21.7355 21.1976 21.7176 21.0125 21.4314 20.4333C21.3538 20.278 21.157 20.0034 20.996 19.8302L20.7037 19.5078L21.1212 19.0778C21.3538 18.839 21.5864 18.5643 21.6401 18.4568C22.0039 17.7284 21.1928 16.9163 20.4651 17.2805C20.3578 17.3343 20.0834 17.5612 19.8568 17.7881L19.4392 18.2001L18.9681 16.779C18.7116 16.0027 18.4313 15.2324 18.3537 15.0712C18.1569 14.6891 17.6797 14.1815 17.298 13.9666C16.6479 13.5963 16.7851 13.6023 10.9638 13.6083C6.12668 13.6083 5.63164 13.6202 5.3036 13.7158ZM16.3497 15.5071C16.4869 15.5728 16.6419 15.6862 16.6956 15.7698C16.7672 15.8773 17.799 18.8629 17.799 18.9584C17.799 18.9704 14.7393 18.9763 10.9996 18.9763C7.25992 18.9763 4.20018 18.9704 4.20018 18.9584C4.20018 18.8629 5.23202 15.8773 5.3036 15.7698C5.35728 15.6862 5.51235 15.5728 5.64953 15.5071C5.88811 15.3996 6.12072 15.3937 10.9996 15.3937C15.8785 15.3937 16.1111 15.3996 16.3497 15.5071ZM19.481 20.899C19.8389 21.102 19.9462 21.3648 19.9462 22.0216V22.559H18.5148C17.1907 22.559 17.0594 22.5709 16.8447 22.6784C16.5763 22.8158 16.3676 23.1561 16.3676 23.4547C16.3676 23.7532 16.5763 24.0936 16.8447 24.2309C17.0594 24.3384 17.1907 24.3503 18.5148 24.3503H19.9462V24.8937C19.9462 25.5386 19.8269 25.8133 19.4691 26.0163C19.2484 26.1357 19.1768 26.1417 16.9103 26.1417H14.5782V25.6043C14.5782 24.9355 14.459 24.6549 14.1011 24.4698C13.8029 24.3205 13.5643 24.3205 13.2661 24.4698C12.9082 24.6549 12.7889 24.9355 12.7889 25.6043V26.1417H10.9996H9.21028V25.6043C9.21028 24.9355 9.09099 24.6549 8.73313 24.4698C8.43491 24.3205 8.19633 24.3205 7.89811 24.4698C7.54025 24.6549 7.42096 24.9355 7.42096 25.6043V26.1417H5.08888C2.8224 26.1417 2.75083 26.1357 2.53015 26.0163C2.17228 25.8133 2.05299 25.5386 2.05299 24.8937V24.3503H3.48445C4.80855 24.3503 4.93977 24.3384 5.15449 24.2309C5.42288 24.0936 5.63164 23.7532 5.63164 23.4547C5.63164 23.1561 5.42288 22.8158 5.15449 22.6784C4.93977 22.5709 4.80855 22.559 3.48445 22.559H2.05299V22.0156C2.05299 21.3767 2.16632 21.102 2.52418 20.899L2.7389 20.7677H10.9936H19.2424L19.481 20.899ZM5.63164 28.4764C5.63164 28.9182 5.60778 29.0616 5.50639 29.2467C5.35728 29.5094 5.01134 29.7243 4.73698 29.7243C4.46261 29.7243 4.11668 29.5094 3.96757 29.2467C3.86617 29.0616 3.84232 28.9182 3.84232 28.4764V27.933H4.73698H5.63164V28.4764ZM18.1569 28.4764C18.1569 28.9182 18.133 29.0616 18.0316 29.2467C17.8825 29.5094 17.5366 29.7243 17.2622 29.7243C16.9879 29.7243 16.6419 29.5094 16.4928 29.2467C16.3914 29.0616 16.3676 28.9182 16.3676 28.4764V27.933H17.2622H18.1569V28.4764Z" fill="#E43A3E"/>
<path d="M14.9342 0.542954C14.815 0.565626 14.6163 0.619473 14.4943 0.66765C14.0004 0.857529 14.1622 0.707327 10.5632 4.29517C8.55089 6.29881 7.17432 7.69031 7.10904 7.7895C7.04943 7.87735 6.9728 8.02472 6.93874 8.11541C6.90468 8.20326 6.74857 8.88342 6.59247 9.6231C6.26322 11.1733 6.24619 11.3405 6.37676 11.7089C6.4619 11.9526 6.61801 12.1935 6.78547 12.3381C7.03524 12.5591 7.42409 12.7122 7.74198 12.7122C7.89524 12.7122 10.6257 12.1737 10.8442 12.1C11.1962 11.9838 11.1593 12.0178 14.6362 8.54901C18.1585 5.03201 18.1358 5.05752 18.3146 4.62675C18.4424 4.31218 18.4934 4.07129 18.5105 3.70003C18.5332 3.11906 18.3969 2.61178 18.0847 2.14983C17.8832 1.8466 17.026 0.993561 16.7876 0.857529C16.237 0.542954 15.5672 0.429594 14.9342 0.542954ZM15.6126 1.97413C15.9049 2.02797 16.0639 2.13566 16.5095 2.5891C16.9551 3.04254 17.0431 3.17858 17.0998 3.49315C17.1367 3.71137 17.0828 4.01177 16.9664 4.20732C16.921 4.28667 15.6296 5.60448 13.6627 7.58261L10.4327 10.8275L9.09584 11.0514C8.36356 11.1761 7.75617 11.2697 7.75049 11.264C7.74481 11.2583 7.85835 10.6547 8.0031 9.92633L8.26422 8.59719L11.4829 5.38343C14.3013 2.56643 14.7213 2.15834 14.8718 2.08465C15.1357 1.95145 15.3344 1.92311 15.6126 1.97413Z" fill="#E43A3E"/>
</svg>
