<svg width="24" height="24" viewBox="0 0 24 24" fill="none" xmlns="http://www.w3.org/2000/svg">
<path d="M2.22224 5.55537H4.65419C4.84497 6.25734 5.26144 6.87702 5.83934 7.31882C6.41725 7.76063 7.12447 7.99999 7.8519 7.99999C8.57933 7.99999 9.28655 7.76063 9.86445 7.31882C10.4424 6.87702 10.8588 6.25734 11.0496 5.55537H21.7774C22.0131 5.55537 22.2392 5.46172 22.4059 5.29502C22.5726 5.12833 22.6662 4.90224 22.6662 4.6665C22.6662 4.43076 22.5726 4.20467 22.4059 4.03797C22.2392 3.87128 22.0131 3.77763 21.7774 3.77763H11.0496C10.8588 3.07566 10.4424 2.45597 9.86445 2.01417C9.28655 1.57237 8.57933 1.33301 7.8519 1.33301C7.12447 1.33301 6.41725 1.57237 5.83934 2.01417C5.26144 2.45597 4.84497 3.07566 4.65419 3.77763H2.22224C1.9865 3.77763 1.76041 3.87128 1.59372 4.03797C1.42702 4.20467 1.33337 4.43076 1.33337 4.6665C1.33337 4.90224 1.42702 5.12833 1.59372 5.29502C1.76041 5.46172 1.9865 5.55537 2.22224 5.55537ZM7.85145 3.11098C8.15911 3.11098 8.45985 3.20221 8.71566 3.37313C8.97146 3.54405 9.17084 3.78699 9.28857 4.07123C9.4063 4.35546 9.43711 4.66822 9.37709 4.96997C9.31707 5.27171 9.16892 5.54888 8.95137 5.76642C8.73383 5.98396 8.45666 6.13211 8.15492 6.19213C7.85318 6.25215 7.54042 6.22135 7.25618 6.10361C6.97195 5.98588 6.72901 5.7865 6.55809 5.5307C6.38716 5.2749 6.29593 4.97415 6.29593 4.6665C6.2964 4.25409 6.46044 3.85871 6.75205 3.5671C7.04367 3.27548 7.43905 3.11145 7.85145 3.11098Z" fill="#E43A3E"/>
<path d="M21.7774 11.1108H19.3454C19.155 10.4086 18.7387 9.78873 18.1608 9.34675C17.5829 8.90476 16.8757 8.66528 16.1482 8.66528C15.4207 8.66528 14.7134 8.90476 14.1355 9.34675C13.5577 9.78873 13.1414 10.4086 12.9509 11.1108H2.22224C1.9865 11.1108 1.76041 11.2044 1.59372 11.3711C1.42702 11.5378 1.33337 11.7639 1.33337 11.9996C1.33337 12.2354 1.42702 12.4615 1.59372 12.6282C1.76041 12.7949 1.9865 12.8885 2.22224 12.8885H12.9509C13.1414 13.5906 13.5577 14.2106 14.1355 14.6525C14.7134 15.0945 15.4207 15.334 16.1482 15.334C16.8757 15.334 17.5829 15.0945 18.1608 14.6525C18.7387 14.2106 19.155 13.5906 19.3454 12.8885H21.7774C22.0131 12.8885 22.2392 12.7949 22.4059 12.6282C22.5726 12.4615 22.6662 12.2354 22.6662 11.9996C22.6662 11.7639 22.5726 11.5378 22.4059 11.3711C22.2392 11.2044 22.0131 11.1108 21.7774 11.1108ZM16.1482 13.5552C15.8405 13.5552 15.5398 13.4639 15.284 13.293C15.0282 13.1221 14.8288 12.8791 14.711 12.5949C14.5933 12.3107 14.5625 11.9979 14.6225 11.6962C14.6826 11.3944 14.8307 11.1173 15.0482 10.8997C15.2658 10.6822 15.543 10.534 15.8447 10.474C16.1464 10.414 16.4592 10.4448 16.7434 10.5625C17.0277 10.6803 17.2706 10.8796 17.4415 11.1354C17.6125 11.3912 17.7037 11.692 17.7037 11.9996C17.7032 12.412 17.5392 12.8074 17.2476 13.099C16.9559 13.3907 16.5606 13.5547 16.1482 13.5552Z" fill="#E43A3E"/>
<path d="M21.7774 18.4439H11.0496C10.8588 17.7419 10.4424 17.1222 9.86445 16.6804C9.28655 16.2386 8.57933 15.9993 7.8519 15.9993C7.12447 15.9993 6.41725 16.2386 5.83934 16.6804C5.26144 17.1222 4.84497 17.7419 4.65419 18.4439H2.22224C1.9865 18.4439 1.76041 18.5375 1.59372 18.7042C1.42702 18.8709 1.33337 19.097 1.33337 19.3328C1.33337 19.5685 1.42702 19.7946 1.59372 19.9613C1.76041 20.128 1.9865 20.2216 2.22224 20.2216H4.65419C4.84497 20.9236 5.26144 21.5433 5.83934 21.9851C6.41725 22.4269 7.12447 22.6663 7.8519 22.6663C8.57933 22.6663 9.28655 22.4269 9.86445 21.9851C10.4424 21.5433 10.8588 20.9236 11.0496 20.2216H21.7774C22.0131 20.2216 22.2392 20.128 22.4059 19.9613C22.5726 19.7946 22.6662 19.5685 22.6662 19.3328C22.6662 19.097 22.5726 18.8709 22.4059 18.7042C22.2392 18.5375 22.0131 18.4439 21.7774 18.4439ZM7.85145 20.8883C7.5438 20.8883 7.24306 20.7971 6.98725 20.6261C6.73145 20.4552 6.53207 20.2123 6.41434 19.928C6.29661 19.6438 6.2658 19.331 6.32582 19.0293C6.38584 18.7276 6.53399 18.4504 6.75153 18.2328C6.96908 18.0153 7.24625 17.8671 7.54799 17.8071C7.84973 17.7471 8.16249 17.7779 8.44673 17.8956C8.73096 18.0134 8.9739 18.2128 9.14482 18.4686C9.31575 18.7244 9.40698 19.0251 9.40698 19.3328C9.40627 19.7451 9.24216 20.1403 8.9506 20.4319C8.65903 20.7235 8.26379 20.8876 7.85145 20.8883Z" fill="#E43A3E"/>
</svg>
