<svg width="19" height="18" viewBox="0 0 19 18" fill="none" xmlns="http://www.w3.org/2000/svg">
<path d="M1.83328 4.16653H3.65724C3.80033 4.693 4.11268 5.15777 4.5461 5.48912C4.97953 5.82047 5.50995 5.99999 6.05552 5.99999C6.60109 5.99999 7.13151 5.82047 7.56494 5.48912C7.99836 5.15777 8.31071 4.693 8.4538 4.16653H16.4996C16.6764 4.16653 16.846 4.09629 16.971 3.97127C17.096 3.84625 17.1663 3.67668 17.1663 3.49987C17.1663 3.32307 17.096 3.1535 16.971 3.02848C16.846 2.90346 16.6764 2.83322 16.4996 2.83322H8.4538C8.31071 2.30675 7.99836 1.84198 7.56494 1.51063C7.13151 1.17928 6.60109 0.999756 6.05552 0.999756C5.50995 0.999756 4.97953 1.17928 4.5461 1.51063C4.11268 1.84198 3.80033 2.30675 3.65724 2.83322H1.83328C1.65647 2.83322 1.48691 2.90346 1.36188 3.02848C1.23686 3.1535 1.16663 3.32307 1.16663 3.49987C1.16663 3.67668 1.23686 3.84625 1.36188 3.97127C1.48691 4.09629 1.65647 4.16653 1.83328 4.16653ZM6.05519 2.33323C6.28593 2.33323 6.51149 2.40166 6.70334 2.52985C6.89519 2.65804 7.04472 2.84024 7.13302 3.05342C7.22132 3.2666 7.24443 3.50117 7.19941 3.72747C7.1544 3.95378 7.04328 4.16166 6.88013 4.32481C6.71697 4.48797 6.50909 4.59908 6.28279 4.6441C6.05648 4.68911 5.82191 4.66601 5.60873 4.57771C5.39556 4.48941 5.21335 4.33988 5.08516 4.14803C4.95697 3.95617 4.88855 3.73061 4.88855 3.49987C4.8889 3.19057 5.01193 2.89404 5.23064 2.67532C5.44935 2.45661 5.74588 2.33359 6.05519 2.33323Z" fill="#000000"/>
<path d="M16.4996 8.33314H14.6757C14.5328 7.80654 14.2206 7.34161 13.7872 7.01012C13.3538 6.67863 12.8233 6.49902 12.2777 6.49902C11.7321 6.49902 11.2016 6.67863 10.7682 7.01012C10.3348 7.34161 10.0226 7.80654 9.87977 8.33314H1.83328C1.65647 8.33314 1.48691 8.40338 1.36188 8.5284C1.23686 8.65342 1.16663 8.82298 1.16663 8.99979C1.16663 9.1766 1.23686 9.34616 1.36188 9.47119C1.48691 9.59621 1.65647 9.66644 1.83328 9.66644H9.87977C10.0226 10.193 10.3348 10.658 10.7682 10.9895C11.2016 11.321 11.7321 11.5006 12.2777 11.5006C12.8233 11.5006 13.3538 11.321 13.7872 10.9895C14.2206 10.658 14.5328 10.193 14.6757 9.66644H16.4996C16.6764 9.66644 16.846 9.59621 16.971 9.47119C17.096 9.34616 17.1663 9.1766 17.1663 8.99979C17.1663 8.82298 17.096 8.65342 16.971 8.5284C16.846 8.40338 16.6764 8.33314 16.4996 8.33314ZM12.2777 10.1664C12.047 10.1664 11.8214 10.098 11.6296 9.96982C11.4377 9.84163 11.2882 9.65942 11.1999 9.44625C11.1116 9.23307 11.0885 8.9985 11.1335 8.77219C11.1785 8.54589 11.2896 8.33801 11.4528 8.17485C11.6159 8.01169 11.8238 7.90058 12.0501 7.85557C12.2764 7.81055 12.511 7.83366 12.7242 7.92196C12.9374 8.01026 13.1196 8.15979 13.2477 8.35164C13.3759 8.54349 13.4444 8.76905 13.4444 8.99979C13.444 9.3091 13.321 9.60563 13.1023 9.82434C12.8836 10.0431 12.587 10.1661 12.2777 10.1664Z" fill="#000000"/>
<path d="M16.4996 13.833H8.4538C8.31071 13.3065 7.99836 12.8417 7.56494 12.5104C7.13151 12.179 6.60109 11.9995 6.05552 11.9995C5.50995 11.9995 4.97953 12.179 4.5461 12.5104C4.11268 12.8417 3.80033 13.3065 3.65724 13.833H1.83328C1.65647 13.833 1.48691 13.9032 1.36188 14.0282C1.23686 14.1533 1.16663 14.3228 1.16663 14.4996C1.16663 14.6764 1.23686 14.846 1.36188 14.971C1.48691 15.096 1.65647 15.1663 1.83328 15.1663H3.65724C3.80033 15.6928 4.11268 16.1575 4.5461 16.4889C4.97953 16.8202 5.50995 16.9998 6.05552 16.9998C6.60109 16.9998 7.13151 16.8202 7.56494 16.4889C7.99836 16.1575 8.31071 15.6928 8.4538 15.1663H16.4996C16.6764 15.1663 16.846 15.096 16.971 14.971C17.096 14.846 17.1663 14.6764 17.1663 14.4996C17.1663 14.3228 17.096 14.1533 16.971 14.0282C16.846 13.9032 16.6764 13.833 16.4996 13.833ZM6.05519 15.6663C5.82445 15.6663 5.59889 15.5979 5.40704 15.4697C5.21518 15.3415 5.06565 15.1593 4.97735 14.9461C4.88905 14.7329 4.86595 14.4983 4.91096 14.272C4.95598 14.0457 5.06709 13.8378 5.23025 13.6747C5.3934 13.5115 5.60128 13.4004 5.82759 13.3554C6.05389 13.3104 6.28847 13.3335 6.50164 13.4218C6.71482 13.5101 6.89702 13.6596 7.02521 13.8515C7.15341 14.0433 7.22183 14.2689 7.22183 14.4996C7.2213 14.8089 7.09822 15.1053 6.87954 15.324C6.66087 15.5427 6.36444 15.6657 6.05519 15.6663Z" fill="#000000"/>
</svg>
