<svg width="26" height="26" viewBox="0 0 26 26" fill="none" xmlns="http://www.w3.org/2000/svg">
<path d="M12.6697 0.0794754C12.5884 0.125191 12.2989 0.353767 12.0297 0.587423C11.7605 0.815998 11.5116 1.00902 11.4811 1.00902C11.4455 1.00902 11.1408 0.892191 10.8005 0.749966C9.76424 0.313131 9.61694 0.363926 9.02772 1.31887C8.58073 2.04015 8.75343 1.96904 7.66642 1.90301C7.08228 1.86745 7.02133 1.87253 6.86895 1.96904C6.5845 2.14682 6.56418 2.20269 6.21878 3.6351C6.19846 3.73161 6.10195 3.76717 5.50765 3.90432C4.74573 4.08718 4.53747 4.19385 4.39525 4.48337C4.3089 4.66116 4.30382 4.72719 4.35969 5.3418C4.39017 5.71261 4.41556 6.05293 4.41556 6.09865C4.41556 6.14944 4.18191 6.32722 3.77555 6.57611C3.36411 6.82501 3.09998 7.02311 3.03903 7.1247C2.87649 7.39391 2.91712 7.6682 3.22189 8.39457L3.49618 9.04474L3.01871 9.5984C2.25679 10.4771 2.25679 10.6143 3.01363 11.4981C3.39967 11.9502 3.48094 12.0721 3.45047 12.1585C3.42507 12.2143 3.30316 12.5089 3.17109 12.8188C2.96792 13.3013 2.93744 13.4131 2.95776 13.6467C2.98315 13.9921 3.0949 14.114 3.84158 14.556L4.41556 14.9014L4.38509 15.4093L4.35461 15.9173L2.25679 18.0252C1.10375 19.1834 0.123414 20.2043 0.0776989 20.2958C-0.0746851 20.6056 0.0218247 21.0374 0.291037 21.2151C0.362149 21.2609 1.13931 21.5453 2.01806 21.8399L3.62317 22.3733L4.15651 23.9784C4.45112 24.8571 4.73557 25.6343 4.78129 25.7054C4.95907 25.9746 5.39082 26.0711 5.70067 25.9187C5.7921 25.873 7.14832 24.5574 8.71787 22.9879C11.3948 20.3161 11.5776 20.1434 11.669 20.2145C11.7249 20.2551 11.9789 20.4634 12.2329 20.6767C12.7002 21.0729 12.7662 21.1034 13.1269 21.078C13.3199 21.0628 13.4062 21.0018 13.9396 20.5396C14.1834 20.3313 14.3916 20.1586 14.412 20.1586C14.4323 20.1586 15.692 21.4082 17.2158 22.932C18.7397 24.4558 20.0857 25.7714 20.2076 25.8527C20.3448 25.9441 20.5022 26 20.6089 26C20.8324 26 21.1118 25.8679 21.2184 25.7054C21.2642 25.6343 21.5486 24.8571 21.8432 23.9784L22.3766 22.3733L23.9817 21.8399C24.8604 21.5453 25.6376 21.2609 25.7087 21.2151C25.9779 21.0374 26.0744 20.6056 25.922 20.2958C25.8763 20.2043 24.896 19.1834 23.7429 18.0252L21.6451 15.9173L21.6146 15.4093L21.5842 14.9014L22.1581 14.561C22.8947 14.1191 23.0166 13.9972 23.042 13.6467C23.0623 13.4131 23.0318 13.3013 22.8286 12.8188C22.6966 12.5089 22.5747 12.2143 22.5493 12.1585C22.5188 12.0721 22.6001 11.9502 22.9861 11.4981C23.7429 10.6143 23.7429 10.4771 22.981 9.5984L22.4985 9.04474L22.7778 8.38441C23.235 7.30248 23.1944 7.16533 22.2242 6.57104C21.8229 6.32722 21.5842 6.14944 21.5842 6.09865C21.5842 6.04785 21.6096 5.71261 21.64 5.3418C21.6959 4.72719 21.6908 4.66116 21.6045 4.48337C21.4623 4.19385 21.2489 4.0821 20.4921 3.90432C19.8978 3.76717 19.8013 3.72653 19.781 3.6351C19.4356 2.20269 19.4152 2.14682 19.1308 1.96904C18.9784 1.87253 18.9174 1.86745 18.3333 1.90301C17.2463 1.96904 17.419 2.04015 16.972 1.31887C16.3828 0.363926 16.2355 0.313131 15.1993 0.749966C14.859 0.892191 14.5542 1.00902 14.5186 1.00902C14.4881 1.00902 14.2393 0.815998 13.965 0.577263C13.6907 0.33853 13.4062 0.109953 13.325 0.0693169C13.137 -0.0271931 12.8627 -0.0221138 12.6697 0.0794754ZM13.4875 2.18237C14.2037 2.78175 14.2545 2.79191 15.0774 2.45667C15.3821 2.32968 15.6564 2.22809 15.6818 2.22809C15.7123 2.22809 15.8698 2.45159 16.0425 2.72588C16.5301 3.51828 16.6266 3.57415 17.4139 3.49796C18.252 3.41669 18.1504 3.35065 18.313 4.06686C18.5162 4.94561 18.5771 5.01164 19.4356 5.2199C19.786 5.30625 20.0857 5.38244 20.0959 5.3926C20.106 5.40276 20.0908 5.68213 20.0603 6.00722C20.0298 6.33738 20.0197 6.67262 20.0349 6.7539C20.0908 6.99263 20.2889 7.18565 20.807 7.4955C21.0711 7.65296 21.2997 7.81043 21.3099 7.8409C21.3251 7.87138 21.2286 8.14059 21.1016 8.44536C20.868 9.00918 20.8222 9.29871 20.934 9.50697C20.9645 9.56792 21.1676 9.82697 21.3911 10.086L21.7924 10.5533L21.4623 10.9241C20.7664 11.7267 20.7562 11.7927 21.1118 12.6715C21.3302 13.2048 21.3454 13.2658 21.2692 13.3216C21.2235 13.3521 20.9645 13.5096 20.7003 13.6721C20.0146 14.0836 19.9841 14.1598 20.0552 15.0436C20.0857 15.4093 20.106 15.709 20.101 15.7141C20.0908 15.7192 19.8216 15.7852 19.5016 15.8614C18.8565 16.0087 18.6279 16.1204 18.5212 16.3338C18.4806 16.41 18.3841 16.7452 18.3028 17.0754L18.1606 17.6748L18.0031 17.6494C17.9219 17.6341 17.612 17.6087 17.3174 17.5935C16.5961 17.5478 16.5352 17.5833 16.0882 18.3046C15.9002 18.6043 15.7377 18.8633 15.7225 18.8735C15.7123 18.8837 15.4482 18.7922 15.1383 18.6652C14.5847 18.4367 14.2799 18.3859 14.0564 18.4722C14.0107 18.4925 13.7669 18.6856 13.5129 18.8989C13.2589 19.1173 13.0354 19.2951 13.01 19.2951C12.9846 19.2951 12.7307 19.1021 12.4462 18.8633C11.9484 18.4468 11.923 18.4316 11.6741 18.4316C11.4862 18.4316 11.2779 18.4925 10.8614 18.6652C10.5566 18.7973 10.2925 18.8887 10.2773 18.8786C10.2671 18.8633 10.0995 18.6043 9.91155 18.3046C9.46456 17.5833 9.4036 17.5478 8.68232 17.5935C8.38771 17.6087 8.07786 17.6341 7.99659 17.6494L7.83913 17.6748L7.6969 17.0754C7.61563 16.7452 7.51912 16.41 7.47848 16.3338C7.37181 16.1204 7.14324 16.0087 6.49815 15.8614C6.17814 15.7852 5.90893 15.7192 5.89877 15.7141C5.89369 15.709 5.91401 15.4093 5.94448 15.0436C6.02068 14.1445 5.99528 14.0937 5.22828 13.6213C4.92351 13.4334 4.66954 13.2607 4.66954 13.2404C4.66954 13.2201 4.77113 12.9559 4.89811 12.6461C5.24352 11.7978 5.22828 11.7216 4.53747 10.9241L4.20731 10.5533L4.60858 10.086C4.83208 9.82697 5.03526 9.56792 5.06574 9.50697C5.17748 9.29871 5.13177 9.00918 4.89811 8.44536C4.77113 8.14567 4.66954 7.88154 4.66954 7.86122C4.66954 7.8409 4.88288 7.6936 5.14193 7.53106C5.9902 7.01295 6.02576 6.94184 5.94448 6.02753C5.91401 5.69229 5.89369 5.40784 5.90385 5.39768C5.90893 5.3926 6.20354 5.31133 6.54894 5.23006C7.128 5.08783 7.19911 5.05735 7.36166 4.88465C7.51912 4.71703 7.55975 4.61544 7.68674 4.06686C7.84928 3.35065 7.7477 3.41669 8.58581 3.49796C9.37313 3.57415 9.46964 3.51828 9.95726 2.72588C10.13 2.45159 10.2925 2.22809 10.3281 2.22809C10.3585 2.22809 10.6328 2.32968 10.9274 2.45667C11.73 2.79699 11.8316 2.77667 12.5427 2.1519C12.7814 1.94364 12.9795 1.77602 12.9897 1.77094C12.9999 1.77094 13.2234 1.9538 13.4875 2.18237ZM5.76162 17.2481C5.99528 17.2989 6.1629 17.3649 6.1883 17.4106C6.2137 17.4563 6.29497 17.7662 6.37116 18.1014C6.53878 18.8278 6.64037 19.0208 6.94006 19.1529C7.14324 19.2392 7.20927 19.2443 7.73246 19.1986C8.71279 19.1021 8.60612 19.0614 8.97693 19.6862L9.29693 20.2297L7.50388 22.0228L5.71083 23.8158L5.29939 22.5866C4.95399 21.5555 4.86256 21.337 4.73557 21.2202C4.62382 21.1237 4.24286 20.9713 3.37935 20.6869L2.1806 20.2856L3.74 18.7262C4.59843 17.8627 5.31971 17.1617 5.34003 17.1617C5.36035 17.1617 5.55337 17.1973 5.76162 17.2481ZM22.2597 18.7262L23.8191 20.2856L22.6204 20.6869C21.7569 20.9713 21.3759 21.1237 21.2642 21.2202C21.1372 21.337 21.0457 21.5555 20.7003 22.5866L20.2889 23.8158L18.4958 22.0228L16.7028 20.2297L17.0228 19.6862C17.3936 19.0614 17.2869 19.1021 18.2673 19.1986C18.7905 19.2443 18.8565 19.2392 19.0597 19.1529C19.3594 19.0208 19.4609 18.8278 19.6286 18.1014C19.7048 17.7662 19.786 17.4563 19.8064 17.4157C19.8419 17.3497 20.3854 17.1871 20.6191 17.1668C20.6597 17.1668 21.4013 17.8627 22.2597 18.7262Z" fill="#E43A3E"/>
<path d="M16.1493 5.89037C16.0782 5.91576 15.1588 6.79959 14.1074 7.85612L12.1873 9.77108L11.2832 8.86694C9.93712 7.52088 10.0895 7.50564 8.36756 9.2225C7.67167 9.91331 7.06722 10.5432 7.02658 10.6194C6.93515 10.7971 6.93515 11.1324 7.02658 11.3102C7.06722 11.3864 8.1593 12.5038 9.45457 13.794C12.0045 16.3338 11.9079 16.2576 12.3803 16.1712C12.548 16.1407 12.9594 15.7496 15.936 12.7781C17.79 10.9292 19.3392 9.35456 19.3798 9.27837C19.4205 9.20218 19.451 9.02948 19.451 8.88725C19.451 8.56217 19.3595 8.44534 17.9728 7.0688C16.7334 5.84465 16.5607 5.72782 16.1493 5.89037ZM17.0281 8.31327L17.6224 8.90757L14.8896 11.6403L12.1619 14.368L10.4603 12.6664L8.75868 10.9648L9.38345 10.3451L10.0031 9.72029L10.8768 10.594C11.3594 11.0714 11.8064 11.4879 11.8673 11.5184C12.0197 11.5946 12.3702 11.5895 12.5327 11.5032C12.6089 11.4625 13.5029 10.594 14.5239 9.57298C15.5448 8.55201 16.388 7.7139 16.4033 7.7139C16.4185 7.7139 16.6979 7.98311 17.0281 8.31327Z" fill="#E43A3E"/>
</svg>
