<svg width="17" height="17" viewBox="0 0 17 17" fill="none" xmlns="http://www.w3.org/2000/svg">
<path d="M15.5804 4.05693V1.41959C15.5804 1.02866 15.2638 0.711388 14.8722 0.711388C14.4806 0.711388 14.164 1.02866 14.164 1.41959V3.09519L10.4792 0.608698C9.27601 -0.202899 7.7208 -0.202899 6.51757 0.608698L1.56017 3.95424C0.583557 4.61357 0 5.71058 0 6.88973V13.459C0 15.4115 1.58849 17 3.541 17H5.66561C6.05724 17 6.37381 16.6827 6.37381 16.2918V10.6262C6.37381 10.236 6.69108 9.918 7.08201 9.918H9.91481C10.3057 9.918 10.623 10.236 10.623 10.6262V16.2918C10.623 16.6827 10.9396 17 11.3312 17H13.4558C15.4083 17 16.9968 15.4115 16.9968 13.459V6.88973C16.9968 5.77006 16.4699 4.72405 15.5804 4.05693ZM15.5804 13.459C15.5804 14.6304 14.6272 15.5836 13.4558 15.5836H12.0394V10.6262C12.0394 9.45483 11.0862 8.50159 9.91481 8.50159H7.08201C5.91064 8.50159 4.9574 9.45483 4.9574 10.6262V15.5836H3.541C2.36964 15.5836 1.4164 14.6304 1.4164 13.459V6.88973C1.4164 6.18224 1.76625 5.52361 2.35264 5.12843L7.31005 1.78289C8.03241 1.29565 8.9644 1.29565 9.68606 1.78289L14.6435 5.12843C15.2299 5.52361 15.5797 6.18224 15.5797 6.88973L15.5804 13.459Z" fill="#E43A3E"/>
</svg>
