<svg width="18" height="18" viewBox="0 0 18 18" fill="#fff"   xmlns="http://www.w3.org/2000/svg">
<path d="M16.5804 5.05693V2.41959C16.5804 2.02866 16.2638 1.71139 15.8722 1.71139C15.4806 1.71139 15.164 2.02866 15.164 2.41959V4.09519L11.4792 1.6087C10.276 0.797101 8.7208 0.797101 7.51757 1.6087L2.56017 4.95424C1.58356 5.61357 1 6.71058 1 7.88973V14.459C1 16.4115 2.58849 18 4.541 18H6.66561C7.05724 18 7.37381 17.6827 7.37381 17.2918V11.6262C7.37381 11.236 7.69108 10.918 8.08201 10.918H10.9148C11.3057 10.918 11.623 11.236 11.623 11.6262V17.2918C11.623 17.6827 11.9396 18 12.3312 18H14.4558C16.4083 18 17.9968 16.4115 17.9968 14.459V7.88973C17.9968 6.77006 17.4699 5.72405 16.5804 5.05693ZM16.5804 14.459C16.5804 15.6304 15.6272 16.5836 14.4558 16.5836H13.0394V11.6262C13.0394 10.4548 12.0862 9.50159 10.9148 9.50159H8.08201C6.91064 9.50159 5.9574 10.4548 5.9574 11.6262V16.5836H4.541C3.36964 16.5836 2.4164 15.6304 2.4164 14.459V7.88973C2.4164 7.18224 2.76625 6.52361 3.35264 6.12843L8.31005 2.78289C9.03241 2.29565 9.9644 2.29565 10.6861 2.78289L15.6435 6.12843C16.2299 6.52361 16.5797 7.18224 16.5797 7.88973L16.5804 14.459Z" />
</svg>
