<svg xmlns="http://www.w3.org/2000/svg" width="60" height="60" viewBox="0 0 60 60">
    <path fill="#e43a3e" fill-rule="evenodd" d="M18.39 30.563c-.482 5.164 4.007 11.38 11.14 11.346 6.75-.033 11.289-5.013 11.388-11.38.1-6.232-5.087-11.112-11.355-11.245-5.919-.134-11.638 5.23-11.173 11.28m-1.945-19.385c0-.384.033-.752-.017-1.136-.133-1.153-.532-2.34.748-3.192 1.696-1.12 3.475-2.005 5.554-1.72.448.066.93.701 1.18 1.186 1.164 2.306 2.91 3.843 5.52 3.843 2.61.017 4.622-1.253 5.736-3.726.598-1.32 1.63-1.688 2.91-1.27 1.113.367 2.244.785 3.225 1.403 1.214.769 1.762 1.755 1.214 3.426-.732 2.239-.5 4.495 1.396 6.25 1.846 1.72 3.99 1.938 6.285 1.203 2.244-.702 2.943-.452 3.94 1.654a13.7 13.7 0 0 1 .865 2.44c.399 1.504.133 2.59-1.447 3.442-4.888 2.657-4.938 7.987-.183 10.862 1.78 1.069 2.095 1.704 1.513 3.726a12.669 12.669 0 0 1-1.38 3.058c-.681 1.086-1.712 1.504-3.059 1.136-1.064-.284-2.244-.518-3.325-.4-3.807.434-5.753 3.725-4.655 7.619.615 2.156.432 2.674-1.547 3.743-.748.401-1.562.735-2.377.986-1.929.585-2.51.3-3.508-1.47-1.214-2.14-2.793-3.593-5.487-3.526-2.627.066-4.372 1.37-5.453 3.609-.732 1.504-1.862 1.922-3.292 1.504-1.28-.368-2.527-.902-3.708-1.52-1.413-.736-1.895-1.805-1.297-3.476 1.663-4.68-1.546-8.289-6.4-7.303-2.86.568-3.525.217-4.64-2.506-.249-.602-.398-1.237-.581-1.838-.482-1.588.033-2.624 1.546-3.41 1.995-1.019 3.442-2.556 3.625-4.979.199-2.623-1.198-4.261-3.226-5.531-2.111-1.32-2.444-2.139-1.712-4.528.2-.669.465-1.32.781-1.956.698-1.453 1.663-1.988 3.375-1.487 4.739 1.42 7.88-1.103 7.88-6.116"/>
</svg>
