<svg width="14" height="14" viewBox="0 0 14 14" fill="none" xmlns="http://www.w3.org/2000/svg">
<path fill-rule="evenodd" clip-rule="evenodd" d="M0.312471 6.41976C0.513288 6.28624 0.768688 6.26546 0.988445 6.36477C1.64634 6.66209 2.377 6.82794 3.1483 6.82794C6.04829 6.82794 8.39919 4.47704 8.39919 1.57705C8.39919 1.36567 8.38674 1.1575 8.36258 0.953169C8.33429 0.713839 8.43108 0.476781 8.6188 0.325644C8.80651 0.174509 9.05877 0.130542 9.28655 0.209262C12.0289 1.15699 14 3.76137 14 6.82794C14 10.6946 10.8655 13.8291 6.99881 13.8291C3.19701 13.8291 0.103154 10.799 0.00026019 7.02183C-0.00630663 6.78076 0.111655 6.55329 0.312471 6.41976ZM1.52689 8.02897C2.07655 10.545 4.31776 12.4289 6.99881 12.4289C10.0921 12.4289 12.5998 9.92126 12.5998 6.82794C12.5998 4.75092 11.4689 2.93674 9.78804 1.9696C9.58488 5.46019 6.68984 8.22818 3.1483 8.22818C2.58954 8.22818 2.04628 8.15913 1.52689 8.02897Z" fill="#282828"/>
</svg>
