<svg width="11" height="10" viewBox="0 0 11 10" fill="none" xmlns="http://www.w3.org/2000/svg">
<path d="M9.39088 4.74433C9.25827 4.61174 9.09734 4.54549 8.90787 4.54549H8.68073V3.18178C8.68073 2.31058 8.36831 1.56254 7.74328 0.937542C7.11831 0.312514 6.37034 0 5.49902 0C4.62772 0 3.87961 0.312514 3.25468 0.937517C2.62965 1.56254 2.31724 2.31056 2.31724 3.18178V4.54549H2.09C1.90067 4.54549 1.73965 4.61174 1.60706 4.74433C1.47447 4.87681 1.4082 5.03784 1.4082 5.22734V9.3182C1.4082 9.50753 1.4745 9.6686 1.60706 9.80122C1.73965 9.93368 1.90067 10 2.09 10H8.90804C9.09752 10 9.25842 9.93375 9.39105 9.80122C9.52352 9.6686 9.58991 9.50753 9.58991 9.3182V5.22726C9.59001 5.03791 9.52352 4.87691 9.39088 4.74433ZM7.31716 4.54549H3.68088V3.18178C3.68088 2.67991 3.85846 2.25138 4.21356 1.89633C4.56872 1.54123 4.99718 1.36371 5.49909 1.36371C6.00106 1.36371 6.42942 1.5412 6.7846 1.89633C7.1396 2.25135 7.31716 2.67991 7.31716 3.18178V4.54549Z" fill="#E43A3E"/>
</svg>
