<?xml version="1.0" encoding="iso-8859-1"?>
<!-- Uploaded to: SVG Repo, www.svgrepo.com, Generator: SVG Repo Mixer Tools -->
<svg height="800px" width="800px" version="1.1" id="Layer_1" xmlns="http://www.w3.org/2000/svg" xmlns:xlink="http://www.w3.org/1999/xlink" 
	 viewBox="0 0 512 512" xml:space="preserve">
<path style="fill:#6A81B5;" d="M507.791,76.343l-72.002-72c-5.577-5.577-14.704-5.577-20.282,0L239.592,180.258L46.237,373.613
	c-2.105,2.105-3.537,4.837-4.618,7.611L2.47,482.021c-3.101,7.954-1.152,17.042,4.885,23.078c6.036,6.036,15.099,7.96,23.053,4.857
	l100.784-39.274c2.748-1.071,5.245-2.701,7.33-4.786L240.09,364.328L507.791,96.625C513.391,91.025,513.391,81.944,507.791,76.343z"
	/>
<path style="fill:#F5F5F5;" d="M153.594,451.265l-92.505-92.505l-15.334,15.334c-2.115,2.115-3.766,4.652-4.842,7.446L0.072,487.481
	c-0.049,0.126-0.073,0.262-0.072,0.397c0.285,18.756,16.6,27.593,29.902,22.466l100.912-38.903c2.794-1.077,5.331-2.726,7.446-4.842
	L153.594,451.265z"/>
<path style="fill:#D5494F;" d="M507.799,76.338l-72-72c-5.6-5.6-14.681-5.6-20.282,0l-78.086,78.086l92.284,92.284l78.086-78.086
	C513.4,91.019,513.4,81.938,507.799,76.338z"/>
<path style="fill:#152F6A;" d="M507.791,76.343l-35.874-35.873L7.323,505.065c0.011,0.011,0.02,0.023,0.032,0.034
	c6.036,6.036,15.099,7.96,23.053,4.857l100.784-39.274c2.748-1.071,5.245-2.701,7.33-4.786l369.27-369.271
	C513.391,91.025,513.391,81.944,507.791,76.343z"/>
<path style="fill:#E6E6E6;" d="M107.453,404.935L6.926,505.464c6.022,6.097,15.079,8.04,23.063,4.951l100.903-39.043
	c2.794-1.08,5.331-2.734,7.449-4.852l15.348-15.348L107.453,404.935z"/>
<path style="fill:#CB0E24;" d="M507.799,76.338l-35.875-35.875l-88.227,88.227l46.016,46.016l78.086-78.086
	C513.4,91.019,513.4,81.938,507.799,76.338z"/>
</svg>