<svg width="28" height="26" viewBox="0 0 28 26" fill="none" xmlns="http://www.w3.org/2000/svg">
<path d="M7.70241 0.0844498C7.00657 0.231743 6.19392 0.754885 5.76728 1.32374C5.48286 1.69959 5.3508 1.97894 5.00542 2.87285L4.71592 3.63471L3.6544 3.66011L2.59795 3.6855L2.25765 3.85311C1.86657 4.04612 1.59738 4.32038 1.40945 4.72163C1.2774 5.00098 1.2774 5.02637 1.2774 6.09806C1.2774 7.11895 1.28247 7.20529 1.38913 7.43385C1.45516 7.57098 1.57198 7.76907 1.65325 7.87065L1.80562 8.06365L1.57706 8.63759C1.04376 9.99369 0.998047 10.3289 0.998047 12.8177C0.998047 14.3515 1.01328 14.8137 1.07931 15.1286C1.18089 15.6518 1.53643 16.3628 1.88688 16.7488L2.16115 17.0536L2.17639 18.8008L2.19163 20.548L2.33384 20.8375C2.50653 21.193 2.84682 21.5028 3.19728 21.6247C3.42584 21.706 3.64424 21.7162 4.90892 21.7162C6.20916 21.7162 6.38185 21.706 6.60533 21.6197C6.74754 21.5638 6.86436 21.5435 6.87452 21.5689C6.91007 21.6705 7.43829 22.5237 7.65162 22.8234C7.94112 23.2246 8.85535 24.1389 9.26676 24.4335C10.8108 25.5458 12.5174 26.0689 14.3306 25.9927C16.7127 25.8912 18.9322 24.723 20.3442 22.8234C20.5575 22.5339 21.0857 21.6857 21.1264 21.5689C21.1365 21.5435 21.2533 21.5638 21.3956 21.6197C21.619 21.706 21.7917 21.7162 23.092 21.7162C24.3566 21.7162 24.575 21.706 24.8036 21.6247C25.1541 21.5028 25.4944 21.193 25.667 20.8375L25.8093 20.548L25.8245 18.8008L25.8397 17.0536L26.114 16.7488C26.4645 16.3628 26.82 15.6518 26.9216 15.1286C26.9876 14.8137 27.0028 14.3515 27.0028 12.8177C27.0028 10.3543 26.947 9.97338 26.4238 8.64267L26.1953 8.06365L26.3476 7.87065C26.4289 7.76907 26.5457 7.57098 26.6117 7.43385C26.7184 7.20529 26.7235 7.11895 26.7235 6.09806V5.00606L26.5559 4.66576C26.3629 4.27467 26.0886 4.00548 25.6874 3.81756C25.4182 3.69058 25.3521 3.6855 24.3465 3.66011L23.285 3.63471L22.9955 2.87285C22.645 1.9637 22.518 1.69959 22.2133 1.29327C21.7765 0.719332 21.0095 0.23682 20.2731 0.0793705C19.7601 -0.0272903 8.21031 -0.0272903 7.70241 0.0844498ZM20.3086 1.79609C20.4813 1.88244 20.6997 2.05005 20.847 2.21258C21.1264 2.51732 21.0553 2.35479 22.1676 5.26001L22.7669 6.83452L18.3837 6.84976C15.9711 6.85484 12.0298 6.85484 9.61721 6.84976L5.23398 6.83452L5.83331 5.26001C6.92531 2.40558 6.8796 2.51732 7.12339 2.24305C7.38243 1.95354 7.61606 1.79609 7.92081 1.69959C8.09349 1.6488 9.28707 1.63864 14.0766 1.64372L20.0191 1.65388L20.3086 1.79609ZM4.04548 5.3362C4.04548 5.36159 3.92359 5.71205 3.77121 6.10821L3.49694 6.83452H3.19728H2.90269L2.88746 6.10314C2.8773 5.54952 2.89254 5.36159 2.93825 5.32604C3.03475 5.27017 4.04548 5.27525 4.04548 5.3362ZM25.0626 5.32604C25.1083 5.36159 25.1236 5.54952 25.1134 6.10314L25.0982 6.83452H24.8036H24.5039L24.2297 6.10821C24.0773 5.71205 23.9554 5.36159 23.9554 5.3362C23.9554 5.27525 24.9661 5.27017 25.0626 5.32604ZM24.8849 9.18105C25.3471 10.3492 25.3521 10.3746 25.3521 12.777V14.8594L25.1947 15.1947C24.9712 15.667 24.7223 15.9159 24.2703 16.1444L23.8843 16.3324L22.8126 16.3476L21.7358 16.3679L21.6241 15.9413C20.9841 13.5135 18.9525 11.3803 16.5146 10.5727C14.0512 9.75498 11.4355 10.1765 9.26676 11.7358C8.84519 12.0355 7.99191 12.8888 7.66685 13.3306C7.08276 14.123 6.59517 15.1083 6.37677 15.9413L6.26503 16.3679L5.18827 16.3476L4.11659 16.3324L3.73058 16.1394C3.14649 15.8549 2.80619 15.4131 2.66906 14.7832C2.6335 14.6156 2.62335 13.8385 2.63858 12.5383C2.66398 10.268 2.65382 10.3391 3.13125 9.14041L3.39536 8.48521H14.0004H24.6055L24.8849 9.18105ZM15.2448 11.9136C17.4948 12.391 19.303 14.0112 19.9887 16.1749C21.1314 19.7607 18.9373 23.4684 15.2042 24.2659C14.6252 24.3928 13.3706 24.3878 12.7815 24.2659C12.5478 24.2151 12.3345 24.1592 12.3091 24.144C12.2837 24.1287 12.4869 23.8951 12.7561 23.6208L13.2487 23.1281L13.9903 23.0977C14.5947 23.0774 14.8232 23.0469 15.194 22.9402C17.0225 22.4018 18.3684 20.9594 18.7443 19.136C18.856 18.6129 18.8611 17.6885 18.7544 17.4853C18.5767 17.1399 18.1754 16.952 17.8351 17.0536C17.7437 17.0841 17.0682 17.4548 16.3368 17.8764C15.6054 18.298 14.9959 18.6433 14.9807 18.6433C14.9655 18.6433 14.7267 18.5164 14.4525 18.3589L13.9446 18.0745L13.9598 17.4853L13.975 16.8961L15.3108 16.1292C16.0422 15.7026 16.6873 15.3165 16.7482 15.2607C17.0022 15.0321 17.0733 14.6258 16.9107 14.2906C16.7685 13.9808 15.9305 13.5236 15.1128 13.3002C14.742 13.1986 14.5744 13.1833 13.8481 13.1884C13.1522 13.1884 12.944 13.2087 12.6139 13.3002C11.8063 13.5236 11.0952 13.9096 10.5111 14.448C10.0032 14.9153 9.67308 15.3623 9.3785 15.9768C9.03312 16.693 8.9163 17.1907 8.89091 18.0592L8.87059 18.7703L8.41347 19.2274C8.04778 19.588 7.9462 19.6693 7.90557 19.6084C7.71764 19.3087 7.66685 17.6021 7.81922 16.8657C8.22555 14.9509 9.43437 13.3611 11.1358 12.4875C11.8063 12.1421 12.4513 11.9441 13.3148 11.8171C13.6347 11.7714 14.8537 11.8323 15.2448 11.9136ZM14.2798 14.829C14.2493 14.8544 13.8989 15.0626 13.4925 15.2962C12.6646 15.7686 12.4462 15.9413 12.3751 16.2054C12.3497 16.3019 12.3244 16.8961 12.3244 17.5259C12.3244 18.5418 12.3396 18.6941 12.4259 18.8821C12.5326 19.1258 12.6088 19.1817 13.8938 19.9182C15.067 20.5886 14.9299 20.6089 16.7888 19.4915L16.9565 19.39L16.9209 19.5119C16.8396 19.7658 16.4739 20.2737 16.1438 20.5835C15.3819 21.2997 14.2392 21.6349 13.2386 21.4368C12.7815 21.3454 12.7002 21.4013 11.6285 22.4628L10.6533 23.4329L10.3588 23.2145C9.66292 22.6964 9.14994 22.1631 8.72838 21.5232L8.6014 21.3302L9.54103 20.3804C10.6279 19.2833 10.6381 19.263 10.5416 18.6687C10.2673 16.952 11.3847 15.2708 13.0811 14.8594C13.4011 14.7832 14.3509 14.7579 14.2798 14.829ZM5.12732 17.9831H5.97553V19.0497V20.1163L4.89876 20.1061L3.81693 20.0909L3.80169 19.0497C3.79661 18.4808 3.80169 17.9831 3.81185 17.9526C3.82708 17.912 3.89819 17.9069 4.05564 17.9373C4.17754 17.9577 4.65497 17.978 5.12732 17.9831ZM24.1992 19.0293L24.184 20.0909L23.1072 20.1061L22.0254 20.1163V19.0497V17.9831L22.8786 17.978C23.3459 17.978 23.8183 17.9577 23.93 17.9373C24.0417 17.917 24.1484 17.912 24.1738 17.9323C24.1941 17.9475 24.2043 18.4453 24.1992 19.0293Z" fill="#E43A3E"/>
<path d="M5.716 11.3497C5.39602 11.4361 5.1827 11.5986 5.01001 11.9033C4.56305 12.6855 5.12683 13.6658 6.02582 13.6658C6.4677 13.6658 6.91974 13.3763 7.0975 12.9852C7.40225 12.3097 6.99084 11.4869 6.27469 11.3345C5.98011 11.2685 6.01058 11.2685 5.716 11.3497Z" fill="#E43A3E"/>
<path d="M21.6602 11.3498C21.33 11.4362 21.0964 11.6342 20.9389 11.9491C20.685 12.4571 20.7916 13.0157 21.2132 13.3764C21.6703 13.7674 22.2798 13.7674 22.7369 13.3764C23.4683 12.7466 23.1737 11.5479 22.229 11.3346C21.9497 11.2686 21.9547 11.2686 21.6602 11.3498Z" fill="#E43A3E"/>
</svg>
