<svg width="26" height="26" viewBox="0 0 26 26" fill="none" xmlns="http://www.w3.org/2000/svg">
<path d="M21.9375 4.0625H20.3125V2.4375H18.6875V4.0625H8.125V5.6875H18.6875V7.3125H20.3125V5.6875H21.9375C22.153 5.6875 22.3597 5.7731 22.512 5.92548C22.6644 6.07785 22.75 6.28451 22.75 6.5V8.125H3.25V6.5C3.25 6.28451 3.3356 6.07785 3.48798 5.92548C3.64035 5.7731 3.84701 5.6875 4.0625 5.6875H5.6875V7.3125H7.3125V2.4375H5.6875V4.0625H4.0625C3.41603 4.0625 2.79605 4.31931 2.33893 4.77643C1.88181 5.23355 1.625 5.85353 1.625 6.5V21.125C1.625 21.7715 1.88181 22.3915 2.33893 22.8486C2.79605 23.3057 3.41603 23.5625 4.0625 23.5625H21.9375C22.584 23.5625 23.204 23.3057 23.6611 22.8486C24.1182 22.3915 24.375 21.7715 24.375 21.125V20.3125H22.75V21.125C22.75 21.3405 22.6644 21.5472 22.512 21.6995C22.3597 21.8519 22.153 21.9375 21.9375 21.9375H4.0625C3.84701 21.9375 3.64035 21.8519 3.48798 21.6995C3.3356 21.5472 3.25 21.3405 3.25 21.125V9.75H22.75V19.5H24.375V6.5C24.375 5.85353 24.1182 5.23355 23.6611 4.77643C23.204 4.31931 22.584 4.0625 21.9375 4.0625Z" fill="#E43A3E"/>
</svg>
