<svg width="24" height="22" viewBox="0 0 30 18" fill="none" xmlns="http://www.w3.org/2000/svg">
<path d="M18.4125 0.0803757C18.1427 0.172234 17.8958 0.447807 17.8442 0.694677C17.8269 0.792276 17.8097 1.50992 17.8097 2.29645V3.72599H9.34728H0.890602L0.695403 3.85804C0.586322 3.92693 0.454276 4.0762 0.396865 4.18528C0.305007 4.37474 0.299266 4.81681 0.310748 11.5454C0.327971 18.6701 0.327971 18.7046 0.448535 18.8596C0.741332 19.2557 0.718368 19.25 2.49238 19.2844L4.09989 19.3132L4.23194 19.6691C4.63382 20.7771 5.56388 21.6096 6.72933 21.9024C7.21158 22.023 8.02682 22.023 8.50908 21.9024C9.68027 21.6096 10.6505 20.7255 11.0294 19.6174L11.1328 19.3132H14.9966H18.8546L18.9809 19.6634C19.1761 20.203 19.4 20.5418 19.8478 20.9838C20.531 21.6613 21.3749 22 22.3739 22C23.924 22 25.2502 21.0872 25.7612 19.6691L25.8932 19.3132L27.5007 19.2844C29.2747 19.25 29.2518 19.2557 29.5446 18.8596C29.6651 18.7046 29.6651 18.6414 29.6824 14.7662L29.6938 10.8278L29.556 10.5924C29.4757 10.4661 28.8556 9.8001 28.1782 9.12265L26.9381 7.88831V5.18998C26.9381 3.01409 26.9209 2.42276 26.852 2.12996C26.5994 1.05063 25.6865 0.212421 24.6072 0.0516701C24.3833 0.0229645 22.9825 0 21.4266 0C19.1818 0 18.5962 0.0172234 18.4125 0.0803757ZM24.7105 1.87735C25.0895 2.11274 25.1813 2.34238 25.21 3.07724L25.2272 3.72599H23.7001C22.0237 3.72599 21.9778 3.73173 21.6907 4.07046L21.5414 4.25418V6.38987C21.5414 9.34081 21.352 9.12265 23.9527 9.12265H25.7038L26.8348 10.2537L27.9715 11.3904V14.4734V17.5621H26.9438H25.9162L25.8186 17.2578C25.543 16.4081 24.8885 15.6388 24.0848 15.2255C23.4532 14.904 22.8906 14.7834 22.15 14.8178C21.2199 14.8638 20.508 15.1681 19.8363 15.8111C19.6928 15.9546 19.5607 16.0694 19.5493 16.0694C19.5091 16.0694 19.532 1.79123 19.5722 1.75104C19.5952 1.72808 20.7147 1.7166 22.0581 1.72808C24.4924 1.7453 24.4981 1.7453 24.7105 1.87735ZM17.8097 6.42432V7.40031H9.91565H2.0216V6.42432V5.44833H9.91565H17.8097V6.42432ZM25.2158 6.42432V7.40031H24.2398H23.2638V6.42432V5.44833H24.2398H25.2158V6.42432ZM17.8097 10.0986V11.0746H9.91565H2.0216V10.0986V9.12265H9.91565H17.8097V10.0986ZM17.8097 15.1795V17.5621H14.4913H11.1672L10.9892 17.0856C10.5874 16.0465 9.8238 15.3346 8.68131 14.9442C8.2335 14.7891 7.01064 14.7891 6.55709 14.9442C5.40887 15.3346 4.61085 16.0866 4.2262 17.143L4.07119 17.5621H3.04927H2.0216V15.1795V12.797H9.91565H17.8097V15.1795ZM8.31962 16.6493C9.4621 17.0799 9.87547 18.5611 9.12338 19.5485C8.73298 20.071 8.02682 20.3695 7.3953 20.2949C5.86816 20.0997 5.18497 18.2568 6.21837 17.1315C6.45375 16.8732 6.76377 16.678 7.0738 16.5804C7.37233 16.4943 7.98089 16.523 8.31962 16.6493ZM23.2408 16.7182C24.0101 17.1143 24.4235 18.0099 24.2111 18.8366C23.9814 19.738 23.2982 20.2777 22.3739 20.2834C21.995 20.2834 21.8572 20.2604 21.5988 20.1341C20.0086 19.382 20.1578 17.1258 21.8285 16.5804C21.9089 16.5517 22.1902 16.5402 22.46 16.5517C22.8504 16.5632 23.0054 16.5976 23.2408 16.7182Z" fill="#E43A3E"/>
</svg>
