<svg width="24" height="30" viewBox="-2 0 28 20" fill="none" xmlns="http://www.w3.org/2000/svg">
<path d="M10.5587 0.0862026C9.1901 0.254272 7.98361 0.614418 6.7471 1.22067C4.2861 2.43316 2.37732 4.34794 1.19484 6.79094C-0.815982 10.9506 -0.257755 15.8786 2.63543 19.5041C3.72787 20.8727 5.12644 21.9831 6.7471 22.7815C10.0485 24.3961 13.89 24.4081 17.2094 22.8055C23.1938 19.9183 25.7028 12.6913 22.7796 6.74892C22.3415 5.86056 21.9453 5.23631 21.3631 4.498C20.9009 3.92177 19.8925 2.91936 19.3522 2.51119C16.8312 0.584406 13.6379 -0.29195 10.5587 0.0862026ZM13.0497 1.97697C17.8156 2.51119 21.4951 6.19069 22.0173 10.9326C22.7196 17.2772 17.2754 22.7214 10.9308 22.0192C6.43498 21.527 2.86952 18.1836 2.05919 13.7118C1.90913 12.8774 1.90913 11.1247 2.05919 10.2904C2.5634 7.50523 4.10603 5.15827 6.47099 3.57363C8.34376 2.32512 10.7988 1.72487 13.0497 1.97697Z" fill="#E43A3E"/>
<path d="M10.8888 4.6481C9.77839 4.82217 8.67394 5.26035 7.75556 5.89061C7.15532 6.29878 6.29697 7.15713 5.8888 7.75737C4.37618 9.96627 4.14209 12.7814 5.27655 15.1644C5.67271 15.9987 6.09889 16.605 6.74715 17.2532C8.98006 19.4862 12.3354 20.0744 15.1626 18.7238C15.9969 18.3277 16.6032 17.9015 17.2514 17.2532C19.4843 15.0203 20.0726 11.665 18.722 8.83781C18.3259 8.00347 17.8997 7.39722 17.2514 6.74896C16.6032 6.10069 15.9969 5.67452 15.1626 5.27836C13.848 4.6541 12.3054 4.42001 10.8888 4.6481ZM11.0389 7.93744V9.28199L10.7868 9.39604C10.6547 9.45606 10.4387 9.58212 10.3126 9.67215L10.0845 9.83422L8.91403 9.15594L7.73755 8.47766L8.02567 8.18354C8.40383 7.78138 8.84801 7.43924 9.3162 7.18114C9.72437 6.94704 10.6788 6.6049 10.9068 6.5989H11.0389V7.93744ZM13.764 6.78497C14.3823 6.98906 14.9045 7.26517 15.3607 7.62532C15.7448 7.92544 16.141 8.3216 16.141 8.39363C16.141 8.42364 15.6248 8.74777 15.0005 9.10792L13.8541 9.76819L13.5179 9.56411C13.3318 9.45606 13.1278 9.34802 13.0677 9.32401C12.9657 9.294 12.9597 9.19796 12.9597 7.94345C12.9597 6.3708 12.8817 6.48485 13.764 6.78497ZM17.3475 10.6325C17.4675 11.0587 17.4855 11.2628 17.4855 12.0311C17.4795 12.7994 17.4555 13.0035 17.3355 13.4117C17.2574 13.6758 17.1674 13.8859 17.1434 13.8859C17.1134 13.8799 16.5912 13.5857 15.9729 13.2316L14.8505 12.5893V12.0011V11.4129L15.9909 10.7526C16.6212 10.3924 17.1494 10.1043 17.1674 10.1163C17.1914 10.1283 17.2694 10.3624 17.3475 10.6325ZM8.00166 10.8546L9.13012 11.5029V12.0011V12.4993L7.97765 13.1596C7.05328 13.6938 6.81918 13.8078 6.77716 13.7358C6.56708 13.3997 6.42302 12.0011 6.53106 11.2808C6.60309 10.7766 6.75916 10.2004 6.82518 10.2004C6.84919 10.2004 7.37741 10.4945 8.00166 10.8546ZM12.3835 11.1247C12.4915 11.1728 12.6596 11.3048 12.7496 11.4249C13.0557 11.827 13.0077 12.3793 12.6296 12.7154C12.2394 13.0515 11.7232 13.0335 11.345 12.6734C10.5767 11.9411 11.399 10.7166 12.3835 11.1247ZM10.3126 14.3301C10.4387 14.4201 10.6547 14.5461 10.7868 14.6062L11.0389 14.7202V16.0648V17.4033H10.9068C10.6607 17.4033 9.64033 17.0131 9.20816 16.761C8.77598 16.5029 8.18774 16.0227 7.91163 15.6986L7.75556 15.5185L8.90203 14.8463C9.53229 14.4741 10.0545 14.168 10.0665 14.168C10.0725 14.162 10.1806 14.234 10.3126 14.3301ZM15.0185 14.9003C15.6368 15.2604 16.141 15.5786 16.141 15.6086C16.141 15.6806 15.7448 16.0768 15.3607 16.3769C14.9045 16.737 14.3823 17.0131 13.764 17.2172C12.8817 17.5114 12.9597 17.6314 12.9597 16.0648V14.7202L13.2478 14.5882C13.4039 14.5161 13.5959 14.4021 13.68 14.3421C13.764 14.276 13.848 14.228 13.8661 14.24C13.8841 14.246 14.4003 14.5461 15.0185 14.9003Z" fill="#E43A3E"/>
</svg>
