<svg width="18" height="18" viewBox="0 0 18 18" fill="none" xmlns="http://www.w3.org/2000/svg">
<g clip-path="url(#clip0_2_590)">
<path d="M18 8.43525C17.8915 6.68026 17.2719 4.99538 16.2174 3.58831C15.1629 2.18125 13.7198 1.11352 12.0658 0.516742C10.4118 -0.0800315 8.61938 -0.179754 6.90942 0.229867C5.19947 0.639489 3.64676 1.54055 2.44271 2.82196C1.23867 4.10337 0.43593 5.70912 0.133456 7.44124C-0.169018 9.17336 0.041997 10.9561 0.740487 12.5698C1.43898 14.1834 2.59441 15.5574 4.06433 16.5223C5.53426 17.4872 7.25442 18.0009 9.01275 18H14.25C15.2443 17.999 16.1975 17.6036 16.9006 16.9006C17.6036 16.1975 17.999 15.2443 18 14.25V8.43525ZM16.5 14.25C16.5 14.8467 16.2629 15.419 15.841 15.841C15.419 16.2629 14.8467 16.5 14.25 16.5H9.01275C7.95445 16.4995 6.90813 16.276 5.94202 15.844C4.97591 15.412 4.11171 14.7812 3.40575 13.9927C2.69638 13.2047 2.1637 12.2741 1.84342 11.2633C1.52314 10.2526 1.42267 9.18502 1.54875 8.13225C1.74783 6.4717 2.49389 4.92464 3.66933 3.73494C4.84477 2.54524 6.38273 1.78058 8.04075 1.5615C8.36418 1.52096 8.68979 1.50042 9.01575 1.5C10.7636 1.49523 12.4574 2.10592 13.8 3.225C14.5841 3.8767 15.2278 4.68086 15.6919 5.58872C16.156 6.49658 16.4309 7.48923 16.5 8.5065V14.25Z" fill="black"/>
<path d="M6 6.75H9C9.19891 6.75 9.38968 6.67098 9.53033 6.53033C9.67098 6.38968 9.75 6.19891 9.75 6C9.75 5.80109 9.67098 5.61032 9.53033 5.46967C9.38968 5.32902 9.19891 5.25 9 5.25H6C5.80109 5.25 5.61032 5.32902 5.46967 5.46967C5.32902 5.61032 5.25 5.80109 5.25 6C5.25 6.19891 5.32902 6.38968 5.46967 6.53033C5.61032 6.67098 5.80109 6.75 6 6.75Z" fill="black"/>
<path d="M12 8.25H6C5.80109 8.25 5.61032 8.32902 5.46967 8.46967C5.32902 8.61032 5.25 8.80109 5.25 9C5.25 9.19891 5.32902 9.38968 5.46967 9.53033C5.61032 9.67098 5.80109 9.75 6 9.75H12C12.1989 9.75 12.3897 9.67098 12.5303 9.53033C12.671 9.38968 12.75 9.19891 12.75 9C12.75 8.80109 12.671 8.61032 12.5303 8.46967C12.3897 8.32902 12.1989 8.25 12 8.25Z" fill="black"/>
<path d="M12 11.25H6C5.80109 11.25 5.61032 11.329 5.46967 11.4697C5.32902 11.6103 5.25 11.8011 5.25 12C5.25 12.1989 5.32902 12.3897 5.46967 12.5303C5.61032 12.671 5.80109 12.75 6 12.75H12C12.1989 12.75 12.3897 12.671 12.5303 12.5303C12.671 12.3897 12.75 12.1989 12.75 12C12.75 11.8011 12.671 11.6103 12.5303 11.4697C12.3897 11.329 12.1989 11.25 12 11.25Z" fill="black"/>
</g>
<defs>
<clipPath id="clip0_2_590">
<rect width="18" height="18" fill="white"/>
</clipPath>
</defs>
</svg>
