<svg width="20" height="20" viewBox="0 0 29 14" fill="none" xmlns="http://www.w3.org/2000/svg">
<path d="M2.57393 0.0279003C2.34114 0.0649349 1.81208 0.26598 1.60045 0.403537C1.08726 0.726267 0.642841 1.37702 0.515866 1.99073C0.431215 2.38753 0.436506 17.0691 0.515866 17.4606C0.727492 18.4764 1.60045 19.27 2.65329 19.4129C3.12945 19.4764 3.1559 19.4869 3.1559 19.6086C3.1559 19.6562 3.25643 19.8996 3.37811 20.1483C3.82782 21.0583 4.70607 21.7196 5.74304 21.9259C7.29849 22.2328 8.91214 21.3228 9.47824 19.8097L9.59992 19.4869L13.5732 19.4711C16.7264 19.4605 17.5518 19.4711 17.5729 19.524C17.938 20.5715 18.4988 21.2329 19.3718 21.6561C19.7686 21.8466 20.4087 22 20.8002 22C21.2235 22 21.8425 21.8413 22.3081 21.6138C23.0382 21.2593 23.6731 20.5398 23.9429 19.7726L24.0434 19.4869L24.7524 19.4552C25.1386 19.434 25.5618 19.3917 25.6941 19.3547C26.5512 19.1272 27.3025 18.3336 27.4876 17.4606C27.5247 17.2702 27.5458 15.9898 27.5458 13.4609C27.5458 10.4293 27.53 9.6569 27.4665 9.29713C27.1332 7.37133 25.7629 5.8582 23.8371 5.27623C23.4667 5.15984 23.3292 5.15455 21.25 5.12809L19.0543 5.09635L19.0279 3.4827L19.0014 1.86905L18.811 1.47225C18.4671 0.758011 17.901 0.276561 17.1814 0.0860975C16.8587 0.00144702 16.282 -0.00384364 9.76923 0.00144702C5.88588 0.00144702 2.648 0.017319 2.57393 0.0279003ZM17.0333 1.73678C17.1391 1.80556 17.2714 1.9537 17.3296 2.05951C17.4407 2.24998 17.4407 2.30817 17.4407 7.07506V11.8948H9.74277H2.04487V7.11209C2.04487 3.84775 2.06074 2.27643 2.10306 2.17591C2.18242 1.96428 2.35701 1.78969 2.60038 1.67859C2.80143 1.58335 3.09242 1.57806 9.82742 1.59393L16.8375 1.60452L17.0333 1.73678ZM21.7261 9.8262V12.9371L21.8478 13.117C22.0859 13.4768 22.1229 13.482 24.1492 13.482H25.9586V15.2967C25.9586 17.0744 25.9586 17.1167 25.8422 17.3442C25.6253 17.7622 25.3608 17.868 24.546 17.8733H24.0646L23.9746 17.5929C23.4985 16.1115 21.9166 15.1221 20.3611 15.3391C19.9855 15.392 19.3347 15.6036 19.213 15.7094C19.0279 15.884 19.0279 15.8787 19.0279 11.2335V6.71H20.377H21.7261V9.8262ZM24.0328 7.05918C24.7153 7.3925 25.2391 7.92685 25.5936 8.64109C25.8951 9.25481 25.9586 9.61986 25.9586 10.8473V11.8948H24.636H23.3133V9.35004V6.79994L23.4826 6.83698C23.5778 6.85285 23.8212 6.95337 24.0328 7.05918ZM17.4407 15.6777V17.8733L13.5203 17.8627L9.59463 17.8468L9.53115 17.6352C9.29307 16.831 8.64232 16.0692 7.86459 15.6777C7.41488 15.4555 7.22971 15.3973 6.75355 15.3391C5.20868 15.1433 3.64264 16.1274 3.18236 17.5823L3.09242 17.8786L2.87021 17.8468C2.47341 17.7781 2.27236 17.6246 2.12423 17.2754C2.06074 17.1167 2.04487 16.7834 2.04487 15.2809V13.482H9.74277H17.4407V15.6777ZM7.10273 17.085C7.95982 17.4924 8.33017 18.487 7.94395 19.3494C7.53657 20.2541 6.47844 20.6456 5.60548 20.2223C4.53677 19.7039 4.26694 18.3547 5.06054 17.4818C5.61606 16.8786 6.36733 16.7358 7.10273 17.085ZM21.5304 17.0691C22.5938 17.5347 22.8848 18.9367 22.0912 19.8044C21.5938 20.344 20.9801 20.5186 20.2923 20.307C19.959 20.2065 19.8638 20.1483 19.5834 19.8679C19.1919 19.4764 19.0543 19.143 19.0596 18.6087C19.0755 17.5982 19.9749 16.8046 20.9854 16.9104C21.1177 16.921 21.3611 16.995 21.5304 17.0691Z" fill="#E43A3E"/>
</svg>
