<svg width="20" height="24" viewBox="0 0 24 24" fill="none" xmlns="http://www.w3.org/2000/svg">
<path d="M3.68523 0.0939026C2.49885 0.576897 1.28433 1.74452 0.632522 3.03876C0.398059 3.51238 0.158907 4.2439 0.0651212 4.79724C-0.0521104 5.48656 -0.00521772 6.6917 0.158907 7.3482C0.510601 8.7456 1.27495 9.9226 2.40506 10.8183C2.6067 10.9777 2.89744 11.1746 3.04749 11.259L3.32885 11.4138L3.33823 17.4723C3.3523 23.5074 3.3523 23.5308 3.45077 23.6575C3.50235 23.7278 3.60552 23.831 3.67586 23.8825C3.80247 23.9763 3.86343 23.981 6.24088 23.9951C8.9419 24.0092 8.89032 24.0138 9.11071 23.7044C9.20919 23.5637 9.21388 23.5168 9.22794 22.2366L9.24201 20.9095H12.4964H15.7507L15.7648 22.2179C15.7788 23.4511 15.7835 23.5355 15.8726 23.6575C15.9242 23.7278 16.0414 23.8216 16.1305 23.8732C16.2853 23.9529 16.4166 23.9576 18.3673 23.9482C20.3743 23.9341 20.44 23.9294 20.5666 23.8356C20.6369 23.7841 20.7401 23.6809 20.7917 23.6106C20.8855 23.4886 20.8901 23.4042 20.9136 21.9881L20.937 20.4922L21.7858 19.6341C22.2547 19.1605 22.6627 18.7244 22.7002 18.6587C22.7518 18.5649 22.7705 18.2038 22.7799 16.9096L22.794 15.2824H23.1035C23.4786 15.2824 23.6896 15.1886 23.8303 14.9589C23.9382 14.7901 23.9382 14.776 23.9382 13.1019C23.9382 11.4982 23.9335 11.4044 23.8444 11.259C23.7928 11.1746 23.6849 11.0621 23.6052 11.0105C23.4692 10.9261 23.3567 10.9214 21.9734 10.9214C21.1574 10.9214 20.4916 10.912 20.4916 10.898C20.4916 10.7573 20.2477 8.79718 20.2196 8.69401C20.0789 8.22509 19.6803 7.6952 19.2864 7.46543C19.1739 7.39978 18.9535 7.30599 18.7987 7.2591C18.5314 7.17469 18.3204 7.17 15.4881 7.17H12.4635L12.487 7.06215C12.637 6.46193 12.637 5.39277 12.4964 4.64718C12.4073 4.19701 12.1494 3.42797 11.9477 3.02469C11.3428 1.81017 10.2596 0.74102 9.04506 0.159552C8.65117 -0.028019 8.45422 -0.0467758 8.20568 0.0939026C7.84461 0.295542 7.85868 0.215824 7.83054 2.73396L7.8071 4.98012L7.05681 5.23334L6.30653 5.48187L5.52343 5.21927L4.73563 4.95667V2.71989V0.478422L4.62778 0.318987C4.50586 0.131416 4.25732 -0.00457191 4.05569 0.000116348C3.98066 0.000116348 3.81184 0.0423203 3.68523 0.0939026ZM9.89382 2.51356C11.0755 3.77497 11.4929 5.58972 10.9864 7.26379C10.5972 8.5674 9.69218 9.63187 8.43077 10.2696C8.21037 10.3821 8.03218 10.5088 7.96184 10.6025L7.85399 10.7573L7.83992 16.6751L7.83054 22.5977H6.28309H4.73563L4.72625 16.647L4.71218 10.6916L4.5715 10.5463C4.49648 10.4619 4.28546 10.3259 4.11196 10.2368C2.71456 9.54277 1.72981 8.2204 1.45314 6.65887C1.37812 6.22746 1.38749 5.32712 1.47659 4.89571C1.63134 4.16418 1.95021 3.44673 2.38162 2.88401C2.60201 2.59328 3.22569 1.96492 3.29134 1.96492C3.31009 1.96492 3.32885 2.76678 3.32885 3.74684C3.32885 5.66006 3.33823 5.73509 3.57269 5.98362C3.64303 6.05865 4.06506 6.22277 4.94665 6.51351C5.65004 6.74328 6.25495 6.93554 6.29715 6.93554C6.4097 6.93554 8.76371 6.14775 8.90438 6.06334C8.97003 6.02113 9.06851 5.93204 9.12009 5.86639C9.20919 5.74447 9.21388 5.65537 9.22794 3.82656L9.24201 1.91334L9.4202 2.05401C9.51868 2.13373 9.7297 2.34006 9.89382 2.51356ZM18.5596 8.67057C18.8362 8.83938 18.8644 8.97068 19.127 11.3903C19.263 12.6142 19.3802 13.674 19.3943 13.7444L19.4224 13.8757H14.3299H9.23732V12.6611V11.4419L9.49523 11.2966C10.3721 10.7948 11.385 9.75848 11.8024 8.92848C11.868 8.79718 11.943 8.66588 11.9665 8.63305C12.004 8.59085 12.7121 8.57678 15.2114 8.57678C18.3345 8.57678 18.4095 8.58147 18.5596 8.67057ZM22.5548 13.1019V13.8757H21.6873C21.0261 13.8757 20.8198 13.8616 20.8151 13.8147C20.8151 13.7866 20.7776 13.4349 20.7307 13.041L20.651 12.3282H21.6029H22.5548V13.1019ZM21.3731 16.6658L21.3825 18.021L20.6463 18.7619L19.9054 19.5028H14.5737H9.23732V17.3926V15.2824L15.3005 15.2918L21.3591 15.3059L21.3731 16.6658ZM19.5068 21.7302V22.5508H18.3345H17.1622V21.7302V20.9095H18.3345H19.5068V21.7302Z" fill="#E43A3E"/>
<path d="M16.529 16.5955C16.2758 16.7268 16.1633 16.8909 16.1445 17.1769C16.1211 17.4583 16.2289 17.6693 16.4681 17.8147C16.6134 17.9038 16.7072 17.9084 17.9264 17.9084C19.0331 17.9084 19.2582 17.8944 19.3942 17.8334C19.5677 17.749 19.713 17.5427 19.7646 17.3129C19.8068 17.1066 19.6568 16.783 19.4551 16.6377C19.2957 16.5251 19.2816 16.5251 18.0061 16.511C16.7822 16.5017 16.7072 16.5017 16.529 16.5955Z" fill="#E43A3E"/>
</svg>
