<svg width="24" height="24" viewBox="0 0 27 24" fill="none" xmlns="http://www.w3.org/2000/svg">
<path d="M15.2571 0.0998363C14.9334 0.292963 14.9282 0.324282 14.9282 2.29209V4.06678H13.4563C11.7964 4.06678 11.4937 4.10853 10.883 4.40084C10.0687 4.78709 9.96955 4.89148 8.00696 7.48565C7.3806 8.31558 6.84297 9.02545 6.81166 9.06199C6.78556 9.09853 5.72597 9.40649 4.46281 9.75099C3.19965 10.0955 2.03045 10.4243 1.86864 10.4817C1.2736 10.6853 0.657677 11.2125 0.349717 11.7762C0.0678556 12.3034 0 12.7262 0 14.0154C0 15.3204 0.0365376 15.5657 0.297521 16.119C0.746411 17.0585 1.74859 17.6901 2.79774 17.6901H3.17355L3.24141 17.8832C3.52327 18.7706 4.17573 19.5118 5.03697 19.9345C5.6007 20.2112 5.97129 20.2999 6.60287 20.2999C8.10091 20.2999 9.41627 19.3865 9.92779 17.9928L10.0374 17.6901H12.4802H14.9282V20.5974C14.9282 23.3952 14.9334 23.5152 15.0326 23.677C15.2257 23.9954 15.6329 24.0946 15.9461 23.9015C16.2436 23.7188 16.2853 23.5518 16.2853 22.5757V21.7092H17.4754C19.1248 21.7092 19.1562 21.6883 19.2605 20.5087C19.3441 19.5639 19.2919 19.6579 19.8451 19.4648C20.1061 19.376 20.4819 19.2195 20.6751 19.1255L21.0196 18.948L21.5833 19.4178C21.8965 19.6788 22.194 19.9137 22.2462 19.9398C22.4132 20.0285 22.7421 20.0076 22.9247 19.8928C23.0187 19.8354 23.5093 19.3656 24.0157 18.8541C25.2893 17.57 25.2893 17.5544 24.4802 16.5783C24.2192 16.2651 24.0104 15.9885 24.0104 15.9624C24.0104 15.9363 24.0887 15.7536 24.1879 15.5605C24.2819 15.3673 24.4384 15.0072 24.5324 14.7619L24.6994 14.313L25.4772 14.2347C26.7403 14.1094 26.7247 14.1303 26.7247 12.1833C26.7247 10.2573 26.7403 10.2834 25.4302 10.1633L24.6838 10.0955L24.4854 9.57352C24.3758 9.28644 24.214 8.91062 24.1253 8.73315L23.9635 8.41475L24.4332 7.85103C24.997 7.17247 25.0022 7.16203 25.0022 6.86451C25.0022 6.62963 24.9917 6.61397 24.1983 5.77361C23.1388 4.64616 22.9143 4.44781 22.6533 4.40605C22.3767 4.35908 22.2201 4.44259 21.5624 4.99066C21.2753 5.23076 21.03 5.42389 21.0091 5.42389C20.9883 5.42389 20.8056 5.34559 20.602 5.24642C20.3932 5.14725 20.0487 5.00109 19.8347 4.92802C19.6207 4.84973 19.4171 4.76099 19.3858 4.72445C19.3545 4.69314 19.3023 4.35386 19.271 3.97804C19.2031 3.18465 19.1301 2.96543 18.8847 2.81406C18.7229 2.7201 18.6237 2.70967 17.5015 2.70967H16.2853V1.63442C16.2853 0.433893 16.254 0.287745 15.9461 0.0998363C15.7321 -0.0306549 15.4711 -0.0358753 15.2571 0.0998363ZM17.9243 4.2338C17.94 4.32776 17.9765 4.64616 18.0078 4.94368C18.0861 5.73707 18.1592 5.84146 18.8169 6.02415C19.3649 6.17552 19.6886 6.31123 20.2888 6.62963C21.1501 7.08374 21.1866 7.0733 22.1314 6.29035L22.502 5.98239L22.9717 6.44694L23.4363 6.91149L23.0239 7.41258C22.5646 7.97108 22.4445 8.16943 22.4445 8.38344C22.4445 8.46173 22.5594 8.72793 22.7003 8.97326C22.9978 9.49 23.2536 10.0955 23.3893 10.607C23.5563 11.249 23.6868 11.3482 24.4906 11.4265C24.7882 11.4578 25.1066 11.4944 25.2005 11.51L25.3675 11.5361V12.2094C25.3675 12.841 25.3623 12.888 25.2684 12.888C25.023 12.888 24.0731 13.0028 23.9269 13.0498C23.6712 13.1281 23.5615 13.2951 23.3841 13.8797C23.1805 14.5374 23.0344 14.8715 22.7264 15.3987C22.5489 15.7066 22.4967 15.8476 22.4967 16.025C22.4967 16.286 22.5228 16.3278 23.0605 16.9802L23.4415 17.4448L22.9822 17.9093C22.7316 18.1599 22.5072 18.3686 22.4915 18.3686C22.4706 18.3686 22.2358 18.1912 21.9643 17.972C21.4215 17.5231 21.1918 17.403 20.9674 17.45C20.8891 17.4656 20.5968 17.6066 20.3306 17.7579C19.8451 18.0398 19.4224 18.2068 18.702 18.4156C18.1383 18.5827 18.0444 18.7445 17.9817 19.6736C17.9295 20.42 18.0235 20.3521 17.0892 20.3521H16.2853V18.4156V16.4791L16.4054 16.5104C16.6664 16.5835 17.4337 16.6044 17.8199 16.547C19.5789 16.2964 21.0248 15.0072 21.4841 13.2795C21.6355 12.7262 21.6198 11.5935 21.4632 11.0455C21.0509 9.59962 20.007 8.50871 18.582 8.0285C18.154 7.88235 17.9974 7.85625 17.4076 7.84059C17.037 7.82493 16.6298 7.84059 16.5098 7.86669L16.2853 7.91889V5.99283V4.06678H17.0944H17.8982L17.9243 4.2338ZM14.9282 10.8784V16.333H12.5272H10.1261L10.0948 16.1868C9.94345 15.4874 9.69813 14.9654 9.30143 14.4957C8.72205 13.7962 7.89735 13.3578 6.97868 13.2586C5.64245 13.1124 4.36364 13.7284 3.62766 14.8663C3.42932 15.1742 3.19443 15.7745 3.1057 16.1973L3.07438 16.3486L2.72466 16.3225C2.29665 16.2912 2.02523 16.1607 1.73815 15.8528C1.38321 15.4665 1.34667 15.2734 1.36755 13.8954C1.38321 12.7784 1.38843 12.6897 1.49804 12.4861C1.63897 12.2199 1.93127 11.9328 2.16094 11.8232C2.25489 11.7814 3.44498 11.4369 4.80731 11.0663C6.16964 10.6957 7.33884 10.3669 7.41192 10.3408C7.59982 10.2677 7.68334 10.1633 9.08743 8.3208C10.7734 6.10244 10.8986 5.95107 11.2275 5.75273C11.7129 5.46043 11.9269 5.42911 13.5085 5.42911L14.9282 5.42389V10.8784ZM17.9504 9.26034C18.7908 9.45869 19.5581 10.0798 19.9287 10.8576C20.174 11.3691 20.2523 11.7031 20.2523 12.2251C20.2523 13.5979 19.3023 14.8036 17.9556 15.1377C17.6059 15.2212 16.8125 15.2264 16.5046 15.1377L16.2853 15.075L16.2958 12.1938L16.3114 9.31254L16.5463 9.2499C16.8804 9.16638 17.5589 9.1716 17.9504 9.26034ZM7.26577 14.7097C8.18965 15.0281 8.76903 15.8267 8.76903 16.7714C8.76903 17.403 8.57068 17.8832 8.13223 18.3217C7.07264 19.3813 5.27186 19.0629 4.62462 17.6901C4.47325 17.3769 4.46281 17.3091 4.46281 16.7766C4.46281 16.2599 4.47847 16.1712 4.60374 15.8945C4.8595 15.3569 5.30317 14.9445 5.85646 14.7358C6.27925 14.5792 6.85863 14.5687 7.26577 14.7097Z" fill="#E43A3E"/>
</svg>
