<svg width="24" height="24" viewBox="0 0 24 24" fill="none" xmlns="http://www.w3.org/2000/svg">
<path d="M1.5629 0.0696392C0.913694 0.280029 0.444825 0.682775 0.168312 1.27788L0 1.63855V8.40108V15.1636L0.168312 15.5243C0.504936 16.2516 1.20824 16.7385 1.9957 16.8047L2.3744 16.8347V18.1391V19.4496L1.58093 19.4736C0.865605 19.4916 0.757404 19.5037 0.553025 19.6359C0.426791 19.7141 0.252468 19.8884 0.162301 20.0206L0 20.2671V21.7398C0 23.1885 0 23.2246 0.144267 23.447C0.222412 23.5732 0.396735 23.7475 0.528981 23.8377L0.775437 24H11.9922H23.209L23.4555 23.8377C23.5877 23.7475 23.762 23.5732 23.8402 23.447C23.9845 23.2246 23.9845 23.1885 23.9845 21.7458C23.9845 20.3031 23.9845 20.2671 23.8402 20.0447C23.762 19.9184 23.5877 19.7441 23.4555 19.6539C23.221 19.4977 23.173 19.4916 22.2893 19.4736L21.3696 19.4496V18.073C21.3696 16.7626 21.3756 16.6965 21.4838 16.6965C21.5439 16.6965 21.8204 16.5822 22.091 16.45C22.9746 16.0052 23.6418 15.1696 23.8642 14.2259C23.9905 13.6789 23.9905 10.4809 23.8642 9.87381C23.6659 8.9481 23.2872 8.26283 22.5779 7.55952C21.9888 6.97644 21.592 6.72397 20.8466 6.45347L20.3177 6.26713L17.4624 6.24909L14.6071 6.23106L13.6453 4.59603C13.1163 3.70037 12.5332 2.77465 12.3469 2.54022C11.4272 1.38608 10.1949 0.586597 8.69812 0.177839L8.11504 0.0215492L4.95919 0.00351524C2.50064 -0.00850677 1.74924 0.00952721 1.5629 0.0696392ZM6.23356 4.62609L6.25159 7.34913L6.39586 7.57756C6.474 7.70379 6.64832 7.87811 6.78057 7.96828L7.02703 8.13058L13.5491 8.16064L20.0772 8.19069L20.4679 8.37704C21.2013 8.72569 21.7483 9.36888 21.9407 10.1143C22.0128 10.3908 22.0308 10.8236 22.0308 12.0679C22.0308 13.8652 22.0008 14.0516 21.6401 14.4242C21.2734 14.7969 21.0751 14.8631 20.1794 14.8811C19.2176 14.9051 19.2417 14.9172 18.9411 14.1958C18.1176 12.2362 16.3503 10.9438 14.2644 10.7695C12.6174 10.6372 10.778 11.4067 9.708 12.675C9.36536 13.0838 8.9025 13.8592 8.77627 14.2379C8.72217 14.4002 8.60796 14.6166 8.5238 14.7128L8.37352 14.8931H5.20565C2.81923 14.8931 2.01974 14.8751 1.96564 14.821C1.86345 14.7188 1.86345 2.08337 1.96564 1.98118C2.01974 1.92708 2.58479 1.90905 4.12966 1.90905H6.21552L6.23356 4.62609ZM8.90851 2.28174C10.0627 2.75662 10.6698 3.35172 11.6316 4.96872C12.0103 5.61191 12.3349 6.15893 12.3409 6.18297C12.3529 6.21303 11.4212 6.23707 10.255 6.23707H8.1451V4.13317V2.02927L8.31341 2.06534C8.40358 2.08938 8.66807 2.18556 8.90851 2.28174ZM14.565 12.7652C15.4186 12.9395 16.206 13.4324 16.705 14.1057C16.8492 14.304 17.0777 14.7368 17.2219 15.0735C17.4203 15.5423 17.5585 15.7707 17.805 16.0412C18.1777 16.438 18.7007 16.7325 19.1515 16.7926L19.446 16.8347V18.1451V19.4616H11.872H4.29797V18.1391V16.8167H6.4199C8.7943 16.8167 8.93256 16.7987 9.51564 16.4079C9.93642 16.1314 10.249 15.7106 10.5195 15.0554C10.8321 14.31 11.1086 13.9313 11.6616 13.4745C12.4671 12.8073 13.5131 12.5488 14.565 12.7652ZM22.091 21.7458V22.1065H11.9922H1.89351V21.7458V21.3852H11.9922H22.091V21.7458Z" fill="#E43A3E"/>
<path d="M13.3504 13.751C12.9717 13.8472 12.4307 14.1718 12.1662 14.4543C12.0339 14.5986 11.8356 14.8991 11.7334 15.1215C11.559 15.4882 11.541 15.5784 11.541 16.1013C11.541 16.6423 11.553 16.6964 11.7634 17.1292C12.0339 17.6763 12.3826 18.0129 12.9416 18.2774C13.3083 18.4517 13.3985 18.4697 13.9154 18.4697C14.4324 18.4697 14.5225 18.4517 14.8892 18.2774C15.4483 18.0129 15.7969 17.6763 16.0674 17.1292C16.2778 16.6964 16.2898 16.6423 16.2898 16.0953C16.2898 15.5483 16.2778 15.4942 16.0674 15.0614C15.6586 14.2439 14.9373 13.757 14.0477 13.7149C13.7952 13.7029 13.4826 13.7209 13.3504 13.751ZM14.246 15.7647C14.3422 15.8549 14.3963 15.9811 14.3963 16.0953C14.3963 16.2095 14.3422 16.3358 14.246 16.4259C14.1559 16.5221 14.0296 16.5762 13.9154 16.5762C13.8012 16.5762 13.675 16.5221 13.5848 16.4259C13.4886 16.3358 13.4345 16.2095 13.4345 16.0953C13.4345 15.9811 13.4886 15.8549 13.5848 15.7647C13.675 15.6685 13.8012 15.6144 13.9154 15.6144C14.0296 15.6144 14.1559 15.6685 14.246 15.7647Z" fill="#E43A3E"/>
</svg>
