<svg width="15" height="16" viewBox="0 0 15 16" fill="none" xmlns="http://www.w3.org/2000/svg">
<g clip-path="url(#clip0_25_3184)">
<path d="M14.8169 14.4331L11.0862 10.7025C12.1029 9.45912 12.6027 7.87256 12.4824 6.27098C12.3621 4.6694 11.6307 3.17533 10.4397 2.09783C9.24871 1.02032 7.68911 0.441809 6.08351 0.481954C4.47792 0.522098 2.94918 1.17783 1.81349 2.31351C0.677813 3.44919 0.0220832 4.97793 -0.0180617 6.58353C-0.0582065 8.18912 0.520305 9.74872 1.59781 10.9397C2.67532 12.1308 4.16938 12.8621 5.77096 12.9824C7.37254 13.1027 8.95911 12.6029 10.2025 11.5863L13.9331 15.3169C14.051 15.4307 14.2089 15.4937 14.3727 15.4923C14.5366 15.4909 14.6934 15.4251 14.8092 15.3093C14.9251 15.1934 14.9909 15.0366 14.9923 14.8728C14.9937 14.7089 14.9307 14.551 14.8169 14.4331ZM6.24999 11.75C5.26108 11.75 4.29438 11.4568 3.47213 10.9073C2.64989 10.3579 2.00903 9.57705 1.63059 8.66342C1.25215 7.74979 1.15313 6.74445 1.34606 5.77455C1.53899 4.80464 2.01519 3.91373 2.71445 3.21447C3.41371 2.5152 4.30463 2.039 5.27453 1.84607C6.24444 1.65315 7.24977 1.75216 8.1634 2.1306C9.07703 2.50904 9.85793 3.1499 10.4073 3.97215C10.9567 4.7944 11.25 5.76109 11.25 6.75C11.2485 8.07563 10.7212 9.34653 9.78388 10.2839C8.84652 11.2212 7.57561 11.7485 6.24999 11.75Z" fill="#282828"/>
</g>
<defs>
<clipPath id="clip0_25_3184">
<rect width="15" height="15" fill="white" transform="translate(0 0.5)"/>
</clipPath>
</defs>
</svg>
