<svg width="17" height="16" viewBox="0 0 17 16" fill="none" xmlns="http://www.w3.org/2000/svg">
<path d="M0.832668 3.16659H2.65663C2.79972 3.69306 3.11207 4.15783 3.54549 4.48918C3.97892 4.82053 4.50934 5.00005 5.05491 5.00005C5.60048 5.00005 6.1309 4.82053 6.56433 4.48918C6.99775 4.15783 7.3101 3.69306 7.45319 3.16659H15.499C15.6758 3.16659 15.8454 3.09635 15.9704 2.97133C16.0954 2.84631 16.1657 2.67674 16.1657 2.49994C16.1657 2.32313 16.0954 2.15356 15.9704 2.02854C15.8454 1.90352 15.6758 1.83328 15.499 1.83328H7.45319C7.3101 1.30681 6.99775 0.842042 6.56433 0.510691C6.1309 0.17934 5.60048 -0.000183105 5.05491 -0.000183105C4.50934 -0.000183105 3.97892 0.17934 3.54549 0.510691C3.11207 0.842042 2.79972 1.30681 2.65663 1.83328H0.832668C0.655861 1.83328 0.486295 1.90352 0.361274 2.02854C0.236252 2.15356 0.166016 2.32313 0.166016 2.49994C0.166016 2.67674 0.236252 2.84631 0.361274 2.97133C0.486295 3.09635 0.655861 3.16659 0.832668 3.16659ZM5.05458 1.33329C5.28532 1.33329 5.51087 1.40172 5.70273 1.52991C5.89458 1.6581 6.04411 1.84031 6.13241 2.05348C6.22071 2.26666 6.24382 2.50123 6.1988 2.72754C6.15379 2.95384 6.04267 3.16172 5.87952 3.32488C5.71636 3.48803 5.50848 3.59915 5.28218 3.64416C5.05587 3.68918 4.8213 3.66607 4.60812 3.57777C4.39495 3.48947 4.21274 3.33994 4.08455 3.14809C3.95636 2.95623 3.88794 2.73068 3.88794 2.49994C3.88829 2.19063 4.01132 1.8941 4.23003 1.67539C4.44874 1.45667 4.74527 1.33365 5.05458 1.33329Z" fill="#282828"/>
<path d="M15.499 7.3332H13.6751C13.5322 6.8066 13.22 6.34167 12.7866 6.01018C12.3532 5.67869 11.8227 5.49908 11.2771 5.49908C10.7315 5.49908 10.201 5.67869 9.76763 6.01018C9.33424 6.34167 9.02201 6.8066 8.87916 7.3332H0.832668C0.655861 7.3332 0.486295 7.40344 0.361274 7.52846C0.236252 7.65348 0.166016 7.82305 0.166016 7.99985C0.166016 8.17666 0.236252 8.34623 0.361274 8.47125C0.486295 8.59627 0.655861 8.66651 0.832668 8.66651H8.87916C9.02201 9.1931 9.33424 9.65804 9.76763 9.98953C10.201 10.321 10.7315 10.5006 11.2771 10.5006C11.8227 10.5006 12.3532 10.321 12.7866 9.98953C13.22 9.65804 13.5322 9.1931 13.6751 8.66651H15.499C15.6758 8.66651 15.8454 8.59627 15.9704 8.47125C16.0954 8.34623 16.1657 8.17666 16.1657 7.99985C16.1657 7.82305 16.0954 7.65348 15.9704 7.52846C15.8454 7.40344 15.6758 7.3332 15.499 7.3332ZM11.2771 9.16649C11.0464 9.16649 10.8208 9.09807 10.629 8.96988C10.4371 8.84169 10.2876 8.65948 10.1993 8.44631C10.111 8.23313 10.0879 7.99856 10.1329 7.77225C10.1779 7.54595 10.289 7.33807 10.4522 7.17491C10.6153 7.01176 10.8232 6.90064 11.0495 6.85563C11.2758 6.81061 11.5104 6.83372 11.7236 6.92202C11.9367 7.01032 12.1189 7.15985 12.2471 7.3517C12.3753 7.54355 12.4438 7.76911 12.4438 7.99985C12.4434 8.30916 12.3204 8.60569 12.1017 8.8244C11.8829 9.04312 11.5864 9.16614 11.2771 9.16649Z" fill="#282828"/>
<path d="M15.499 12.8331H7.45319C7.3101 12.3066 6.99775 11.8418 6.56433 11.5105C6.1309 11.1791 5.60048 10.9996 5.05491 10.9996C4.50934 10.9996 3.97892 11.1791 3.54549 11.5105C3.11207 11.8418 2.79972 12.3066 2.65663 12.8331H0.832668C0.655861 12.8331 0.486295 12.9033 0.361274 13.0283C0.236252 13.1533 0.166016 13.3229 0.166016 13.4997C0.166016 13.6765 0.236252 13.8461 0.361274 13.9711C0.486295 14.0961 0.655861 14.1664 0.832668 14.1664H2.65663C2.79972 14.6929 3.11207 15.1576 3.54549 15.489C3.97892 15.8203 4.50934 15.9998 5.05491 15.9998C5.60048 15.9998 6.1309 15.8203 6.56433 15.489C6.99775 15.1576 7.3101 14.6929 7.45319 14.1664H15.499C15.6758 14.1664 15.8454 14.0961 15.9704 13.9711C16.0954 13.8461 16.1657 13.6765 16.1657 13.4997C16.1657 13.3229 16.0954 13.1533 15.9704 13.0283C15.8454 12.9033 15.6758 12.8331 15.499 12.8331ZM5.05458 14.6664C4.82384 14.6664 4.59828 14.5979 4.40643 14.4697C4.21457 14.3416 4.06504 14.1594 3.97674 13.9462C3.88844 13.733 3.86534 13.4984 3.91035 13.2721C3.95537 13.0458 4.06648 12.8379 4.22964 12.6748C4.39279 12.5116 4.60067 12.4005 4.82698 12.3555C5.05328 12.3105 5.28786 12.3336 5.50103 12.4219C5.71421 12.5102 5.89641 12.6597 6.0246 12.8516C6.1528 13.0434 6.22122 13.269 6.22122 13.4997C6.22069 13.809 6.09761 14.1054 5.87893 14.3241C5.66026 14.5428 5.36383 14.6658 5.05458 14.6664Z" fill="#282828"/>
</svg>
