<svg width="24" height="24" viewBox="0 0 24 24" fill="none" xmlns="http://www.w3.org/2000/svg">
<path d="M7.49855 0.0514584C5.38315 0.290672 3.35686 1.37886 1.99663 2.99708C-0.156301 5.56276 -0.606586 9.08531 0.833389 12.0731L1.06791 12.561L0.528508 14.1698C0.0453893 15.6144 -0.0062059 15.8114 0.012556 16.0319C0.0547702 16.4963 0.378413 16.8246 0.84277 16.8668C1.0726 16.8856 1.25553 16.8387 2.70958 16.3509L4.3231 15.8114L4.82029 16.0507C7.86441 17.5094 11.4432 17.0122 14.0042 14.7795C15.3316 13.6163 16.312 11.9512 16.6825 10.2251C17.25 7.59843 16.5371 4.88734 14.7594 2.86105C12.9536 0.811316 10.2003 -0.253422 7.49855 0.0514584ZM9.75936 2.01677C11.0539 2.28881 12.0718 2.84229 13.038 3.79915C14.0324 4.77946 14.6187 5.87234 14.8954 7.25133C15.008 7.82826 15.008 9.05717 14.8954 9.6341C14.6234 10.9943 14.0418 12.0872 13.0615 13.0675C12.0952 14.0384 10.9883 14.6294 9.62803 14.9015C9.03703 15.0188 7.8175 15.0141 7.24057 14.8968C6.60736 14.7655 5.95069 14.5216 5.2565 14.1604C4.81091 13.9306 4.58577 13.8368 4.45912 13.8368C4.36531 13.8368 3.87282 13.9728 3.37563 14.1416C2.87374 14.3058 2.45629 14.4371 2.44691 14.4324C2.44222 14.4231 2.57355 14.0056 2.73772 13.5037C2.90658 13.0065 3.0426 12.514 3.0426 12.4202C3.0426 12.2936 2.94879 12.0685 2.71896 11.6229C2.09982 10.4362 1.89813 9.63879 1.89813 8.44271C1.89813 7.04026 2.24522 5.89579 3.01915 4.73724C3.31465 4.30103 4.03229 3.54586 4.46851 3.21753C5.38315 2.53272 6.48541 2.07774 7.60174 1.92765C8.11769 1.85729 9.22465 1.90419 9.75936 2.01677Z" fill="#E43A3E"/>
<path d="M4.573 6.16716C4.46024 6.37279 4.47682 6.79401 4.59954 7.00959C4.72889 7.23181 4.98095 7.42417 5.20317 7.48056C5.29604 7.50046 5.74047 7.51372 6.18822 7.51041C6.85155 7.50377 7.03397 7.48056 7.18654 7.39432C7.84987 7.01622 7.84987 6.12072 7.18654 5.74262C7.03397 5.65639 6.85155 5.63317 6.18822 5.62654C5.74047 5.62322 5.29604 5.63649 5.19985 5.65971C4.99422 5.70614 4.67914 5.96152 4.573 6.16716Z" fill="#E43A3E"/>
<path d="M11.8398 5.70495C11.7337 5.65188 11.4153 5.62535 10.7818 5.62203C10.0157 5.62535 9.84652 5.64193 9.68732 5.7348C9.02067 6.12285 9.02067 7.00508 9.68732 7.39313C9.84652 7.486 10.0157 7.50258 10.7818 7.5059C11.7735 7.50258 11.9294 7.45946 12.1914 7.11785C12.5397 6.65683 12.3738 5.9935 11.8398 5.70495Z" fill="#E43A3E"/>
<path d="M7.85043 12.1826C7.09996 12.0607 6.47143 11.8262 5.88043 11.4415C5.23315 11.0194 5.0127 10.7333 5.0127 10.3018C5.0127 10.1141 5.21908 9.71545 5.37855 9.59819C5.76786 9.31207 6.17593 9.34021 6.64029 9.68731C7.04367 9.9875 7.44236 10.1751 7.85512 10.2642C8.69003 10.4425 9.47803 10.2502 10.2332 9.68731C10.6929 9.3449 10.993 9.31207 11.4246 9.56535C11.5606 9.64509 11.6544 9.74828 11.7388 9.92183C11.9874 10.419 11.842 10.8224 11.2651 11.2539C10.4677 11.8543 9.5906 12.1592 8.57745 12.1873C8.25381 12.1967 7.93017 12.192 7.85043 12.1826Z" fill="#E43A3E"/>
<path d="M18.7838 11.1866C18.3898 11.3273 18.0896 11.8245 18.1693 12.2091C18.2491 12.5938 18.5117 12.8658 18.9198 12.9925C19.2904 13.1097 19.8767 13.4146 20.2378 13.6866C21.3729 14.5309 22.0437 15.788 22.1187 17.2139C22.1609 18.091 21.978 18.8743 21.5183 19.7233C21.2041 20.3096 21.1947 20.4081 21.4011 21.0366C21.4902 21.318 21.5605 21.5526 21.5559 21.562C21.5465 21.5666 21.3119 21.4963 21.0305 21.4072C20.402 21.2008 20.3035 21.2102 19.7172 21.5244C18.8682 21.9841 18.0849 22.167 17.2078 22.1248C16.0117 22.0591 14.961 21.5948 14.1308 20.7599C13.6524 20.2815 13.3194 19.7655 13.0755 19.1417C12.8363 18.5366 12.7894 18.4569 12.5455 18.3208C12.264 18.1567 12.0858 18.1332 11.795 18.2176C11.3259 18.3537 11.0445 18.8227 11.1524 19.2871C11.2368 19.6529 11.4666 20.2111 11.7246 20.6614C12.5079 22.0404 13.779 23.1145 15.2425 23.6305C16.0258 23.9072 16.5324 23.9916 17.4189 23.9869C18.5211 23.9869 19.3748 23.804 20.2144 23.3772L20.5239 23.2224L21.7153 23.6211C22.7613 23.9729 22.9349 24.0151 23.1553 23.9963C23.6197 23.9541 23.948 23.6305 23.9902 23.1661C24.009 22.941 23.9668 22.7768 23.615 21.7214L23.2163 20.53L23.3711 20.2205C23.5774 19.8124 23.7557 19.2871 23.8776 18.7242C24.0277 18.0441 24.0277 16.8152 23.8776 16.1398C23.5634 14.7373 22.9724 13.682 21.9545 12.7063C21.251 12.0262 20.4677 11.5431 19.6046 11.257C19.1403 11.1022 19.0464 11.0928 18.7838 11.1866Z" fill="#E43A3E"/>
<path d="M15.2474 16.562C15.0222 16.6277 14.7361 16.9372 14.6704 17.1764C14.5626 17.5939 14.7267 18.0301 15.0832 18.2506C15.3505 18.4194 15.8055 18.41 16.0682 18.2365C16.359 18.0442 16.481 17.8143 16.481 17.4485C16.481 17.0873 16.359 16.8528 16.0823 16.6699C15.8806 16.5338 15.496 16.4869 15.2474 16.562Z" fill="#E43A3E"/>
<path d="M18.9998 16.562C18.7747 16.6277 18.4885 16.9372 18.4229 17.1764C18.315 17.5939 18.4792 18.0301 18.8356 18.2506C19.103 18.4194 19.558 18.41 19.8206 18.2365C20.1114 18.0442 20.2334 17.8143 20.2334 17.4485C20.2334 17.0873 20.1114 16.8528 19.8347 16.6699C19.633 16.5338 19.2484 16.4869 18.9998 16.562Z" fill="#E43A3E"/>
</svg>
