<svg width="24" height="24" viewBox="0 0 24 24" fill="none" xmlns="http://www.w3.org/2000/svg">
<path d="M10.5587 0.0862026C9.1901 0.254272 7.98361 0.614418 6.7471 1.22067C4.2861 2.43316 2.37732 4.34794 1.19484 6.79094C-0.815982 10.9506 -0.257755 15.8786 2.63543 19.5041C3.72787 20.8727 5.12644 21.9831 6.7471 22.7815C10.0485 24.3961 13.89 24.4081 17.2094 22.8055C23.1938 19.9183 25.7028 12.6913 22.7796 6.74892C22.3415 5.86056 21.9453 5.23631 21.3631 4.498C20.9009 3.92177 19.8925 2.91936 19.3522 2.51119C16.8312 0.584406 13.6379 -0.29195 10.5587 0.0862026ZM13.0497 1.97697C17.8156 2.51119 21.4951 6.19069 22.0173 10.9326C22.7196 17.2772 17.2754 22.7214 10.9308 22.0192C6.43498 21.527 2.86952 18.1836 2.05919 13.7118C1.90913 12.8774 1.90913 11.1247 2.05919 10.2904C2.5634 7.50523 4.10603 5.15827 6.47099 3.57363C8.34376 2.32512 10.7988 1.72487 13.0497 1.97697Z" fill="#E43A3E"/>
<path d="M10.8886 4.6481C9.77814 4.82217 8.67369 5.26035 7.75532 5.89061C7.15507 6.29878 6.29672 7.15713 5.88856 7.75737C4.37594 9.96627 4.14184 12.7814 5.27631 15.1644C5.67247 15.9987 6.09864 16.605 6.74691 17.2532C8.97982 19.4862 12.3352 20.0744 15.1623 18.7238C15.9967 18.3277 16.6029 17.9015 17.2512 17.2532C19.4841 15.0203 20.0723 11.665 18.7218 8.83781C18.3256 8.00347 17.8995 7.39722 17.2512 6.74896C16.6029 6.10069 15.9967 5.67452 15.1623 5.27836C13.8478 4.6541 12.3052 4.42001 10.8886 4.6481ZM11.0387 7.93744V9.28199L10.7866 9.39604C10.6545 9.45606 10.4384 9.58212 10.3124 9.67215L10.0843 9.83422L8.91379 9.15594L7.73731 8.47766L8.02543 8.18354C8.40358 7.78138 8.84776 7.43924 9.31596 7.18114C9.72412 6.94704 10.6785 6.6049 10.9066 6.5989H11.0387V7.93744ZM13.7638 6.78497C14.382 6.98906 14.9042 7.26517 15.3604 7.62532C15.7446 7.92544 16.1407 8.3216 16.1407 8.39363C16.1407 8.42364 15.6245 8.74777 15.0003 9.10792L13.8538 9.76819L13.5177 9.56411C13.3316 9.45606 13.1275 9.34802 13.0675 9.32401C12.9654 9.294 12.9594 9.19796 12.9594 7.94345C12.9594 6.3708 12.8814 6.48485 13.7638 6.78497ZM17.3472 10.6325C17.4673 11.0587 17.4853 11.2628 17.4853 12.0311C17.4793 12.7994 17.4553 13.0035 17.3352 13.4117C17.2572 13.6758 17.1672 13.8859 17.1431 13.8859C17.1131 13.8799 16.5909 13.5857 15.9727 13.2316L14.8502 12.5893V12.0011V11.4129L15.9907 10.7526C16.6209 10.3924 17.1492 10.1043 17.1672 10.1163C17.1912 10.1283 17.2692 10.3624 17.3472 10.6325ZM8.00142 10.8546L9.12988 11.5029V12.0011V12.4993L7.97741 13.1596C7.05303 13.6938 6.81894 13.8078 6.77692 13.7358C6.56683 13.3997 6.42277 12.0011 6.53082 11.2808C6.60285 10.7766 6.75891 10.2004 6.82494 10.2004C6.84895 10.2004 7.37716 10.4945 8.00142 10.8546ZM12.3832 11.1247C12.4913 11.1728 12.6593 11.3048 12.7494 11.4249C13.0555 11.827 13.0075 12.3793 12.6293 12.7154C12.2391 13.0515 11.7229 13.0335 11.3448 12.6734C10.5765 11.9411 11.3988 10.7166 12.3832 11.1247ZM10.3124 14.3301C10.4384 14.4201 10.6545 14.5461 10.7866 14.6062L11.0387 14.7202V16.0648V17.4033H10.9066C10.6605 17.4033 9.64009 17.0131 9.20791 16.761C8.77573 16.5029 8.18749 16.0227 7.91138 15.6986L7.75532 15.5185L8.90179 14.8463C9.53204 14.4741 10.0543 14.168 10.0663 14.168C10.0723 14.162 10.1803 14.234 10.3124 14.3301ZM15.0183 14.9003C15.6365 15.2604 16.1407 15.5786 16.1407 15.6086C16.1407 15.6806 15.7446 16.0768 15.3604 16.3769C14.9042 16.737 14.382 17.0131 13.7638 17.2172C12.8814 17.5114 12.9594 17.6314 12.9594 16.0648V14.7202L13.2476 14.5882C13.4036 14.5161 13.5957 14.4021 13.6797 14.3421C13.7638 14.276 13.8478 14.228 13.8658 14.24C13.8838 14.246 14.4 14.5461 15.0183 14.9003Z" fill="#E43A3E"/>
</svg>
