<svg width="34" height="33" viewBox="0 0 34 33" fill="none" xmlns="http://www.w3.org/2000/svg">
<path fill-rule="evenodd" clip-rule="evenodd" d="M20.4503 9.1043L18.5809 3.35102C17.9785 1.49692 15.3554 1.49693 14.753 3.35102L12.8837 9.1043C12.3465 10.7575 10.8059 11.8768 9.06758 11.8768H3.01823C1.06872 11.8768 0.258152 14.3715 1.83534 15.5174L6.72937 19.0731C8.13568 20.0949 8.72414 21.906 8.18698 23.5592L6.31763 29.3125C5.71519 31.1666 7.83729 32.7083 9.41447 31.5625L14.3085 28.0067C15.7148 26.985 17.6191 26.985 19.0254 28.0067L23.9195 31.5624C25.4966 32.7083 27.6187 31.1665 27.0163 29.3124L25.1469 23.5592C24.6098 21.906 25.1982 20.0949 26.6046 19.0731L31.4986 15.5174C33.0758 14.3715 32.2652 11.8768 30.3157 11.8768H24.2663C22.528 11.8768 20.9874 10.7575 20.4503 9.1043ZM19.532 3.04201C18.6302 0.2666 14.7037 0.266595 13.802 3.042L11.9326 8.79528C11.5293 10.0365 10.3727 10.8768 9.06758 10.8768H3.01823C0.0999966 10.8768 -1.11335 14.6111 1.24755 16.3264L6.14158 19.8821C7.19741 20.6492 7.63921 22.009 7.23592 23.2502L5.36657 29.0034C4.46479 31.7788 7.64135 34.0868 10.0023 32.3715L14.8963 28.8157C15.9521 28.0486 17.3818 28.0486 18.4376 28.8157L23.3317 32.3715C25.6926 34.0868 28.8691 31.7788 27.9674 29.0034L26.098 23.2502C25.6947 22.009 26.1365 20.6492 27.1923 19.8821L32.0864 16.3264C34.4473 14.6111 33.2339 10.8768 30.3157 10.8768H24.2663C22.9613 10.8768 21.8046 10.0365 21.4013 8.79529L19.532 3.04201Z" fill="#E43A3E"/>
</svg>
