<svg width="18" height="18" viewBox="0 0 18 18" fill="none" xmlns="http://www.w3.org/2000/svg">
<path d="M17.877 6.59553C17.7236 6.1072 17.4171 5.68121 17.0028 5.38055C16.5886 5.07989 16.0886 4.92053 15.5768 4.92603H12.3L11.3048 1.82403C11.1482 1.33575 10.8407 0.909787 10.4265 0.607576C10.0123 0.305364 9.51276 0.142517 9.00001 0.142517C8.48726 0.142517 7.98775 0.305364 7.57353 0.607576C7.15931 0.909787 6.85177 1.33575 6.69526 1.82403L5.70001 4.92603H2.42326C1.91307 4.92675 1.41615 5.08869 1.00349 5.38871C0.590833 5.68872 0.283538 6.11147 0.125498 6.59657C-0.0325411 7.08167 -0.0332406 7.6043 0.1235 8.08982C0.28024 8.57534 0.586403 8.99891 0.998257 9.30003L3.66526 11.25L2.65126 14.3903C2.48739 14.8773 2.48532 15.4043 2.64534 15.8926C2.80536 16.3809 3.11892 16.8044 3.53926 17.1C3.9524 17.4051 4.45305 17.5685 4.96662 17.566C5.48019 17.5634 5.97919 17.395 6.38926 17.0858L9.00001 15.1643L11.6115 17.0835C12.0239 17.3869 12.5219 17.5516 13.0338 17.5541C13.5457 17.5566 14.0453 17.3967 14.4606 17.0974C14.8759 16.7981 15.1856 16.3748 15.3452 15.8884C15.5048 15.402 15.5061 14.8775 15.3488 14.3903L14.3348 11.25L17.0048 9.30003C17.4213 9.00269 17.7311 8.57912 17.8882 8.09203C18.0453 7.60495 18.0413 7.08022 17.877 6.59553ZM16.1198 8.08878L13.0118 10.3605C12.8841 10.4537 12.7891 10.5847 12.7404 10.735C12.6916 10.8853 12.6916 11.0472 12.7403 11.1975L13.9215 14.85C13.9813 15.0353 13.9808 15.2347 13.92 15.4197C13.8593 15.6046 13.7415 15.7655 13.5836 15.8793C13.4256 15.9931 13.2357 16.0538 13.041 16.0528C12.8464 16.0519 12.657 15.9892 12.5003 15.8738L9.44401 13.6238C9.31528 13.5292 9.15973 13.4782 9.00001 13.4782C8.84028 13.4782 8.68473 13.5292 8.55601 13.6238L5.49976 15.8738C5.34307 15.9907 5.15321 16.0547 4.95771 16.0565C4.7622 16.0583 4.57121 15.9977 4.41243 15.8836C4.25365 15.7696 4.13532 15.6079 4.0746 15.422C4.01389 15.2362 4.01394 15.0358 4.07476 14.85L5.25976 11.1975C5.30844 11.0472 5.30841 10.8853 5.25965 10.735C5.2109 10.5847 5.11592 10.4537 4.98826 10.3605L1.88026 8.08878C1.72373 7.97417 1.60743 7.81304 1.54796 7.62838C1.48849 7.44373 1.4889 7.24501 1.54912 7.0606C1.60934 6.87619 1.7263 6.71553 1.88329 6.60157C2.04028 6.4876 2.22926 6.42616 2.42326 6.42603H6.24826C6.40704 6.42602 6.56173 6.37562 6.69004 6.28208C6.81836 6.18854 6.91367 6.0567 6.96226 5.90553L8.12476 2.28228C8.18443 2.09687 8.30139 1.93517 8.45881 1.82046C8.61623 1.70576 8.80598 1.64396 9.00076 1.64396C9.19553 1.64396 9.38529 1.70576 9.5427 1.82046C9.70012 1.93517 9.81709 2.09687 9.87676 2.28228L11.0393 5.90553C11.0878 6.0567 11.1832 6.18854 11.3115 6.28208C11.4398 6.37562 11.5945 6.42602 11.7533 6.42603H15.5783C15.7723 6.42616 15.9612 6.4876 16.1182 6.60157C16.2752 6.71553 16.3922 6.87619 16.4524 7.0606C16.5126 7.24501 16.513 7.44373 16.4536 7.62838C16.3941 7.81304 16.2778 7.97417 16.1213 8.08878H16.1198Z" fill="black"/>
</svg>
