<svg width="19" height="18" viewBox="0 0 19 18" fill="none" xmlns="http://www.w3.org/2000/svg">
<path d="M18.5436 6.59559C18.3902 6.10726 18.0837 5.68127 17.6695 5.38061C17.2552 5.07995 16.7552 4.92059 16.2434 4.92609H12.9666L11.9714 1.82409C11.8149 1.33581 11.5073 0.909848 11.0931 0.607637C10.6789 0.305425 10.1794 0.142578 9.66665 0.142578C9.1539 0.142578 8.6544 0.305425 8.24017 0.607637C7.82595 0.909848 7.51841 1.33581 7.3619 1.82409L6.36665 4.92609H3.0899C2.57971 4.92681 2.08279 5.08875 1.67013 5.38877C1.25747 5.68878 0.950179 6.11153 0.79214 6.59663C0.6341 7.08173 0.633401 7.60436 0.790141 8.08988C0.946881 8.5754 1.25304 8.99897 1.6649 9.30009L4.3319 11.2501L3.3179 14.3903C3.15403 14.8774 3.15196 15.4043 3.31198 15.8927C3.472 16.381 3.78556 16.8045 4.2059 17.1001C4.61904 17.4052 5.11969 17.5686 5.63326 17.566C6.14683 17.5635 6.64583 17.395 7.0559 17.0858L9.66665 15.1643L12.2781 17.0836C12.6905 17.3869 13.1885 17.5517 13.7004 17.5542C14.2124 17.5567 14.7119 17.3968 15.1272 17.0975C15.5425 16.7982 15.8523 16.3749 16.0119 15.8884C16.1715 15.402 16.1727 14.8775 16.0154 14.3903L15.0014 11.2501L17.6714 9.30009C18.088 9.00275 18.3977 8.57918 18.5548 8.0921C18.7119 7.60501 18.708 7.08028 18.5436 6.59559ZM16.7864 8.08884L13.6784 10.3606C13.5507 10.4537 13.4558 10.5848 13.407 10.7351C13.3582 10.8854 13.3582 11.0473 13.4069 11.1976L14.5881 14.8501C14.6479 15.0353 14.6474 15.2348 14.5867 15.4197C14.526 15.6047 14.4082 15.7656 14.2502 15.8794C14.0923 15.9931 13.9023 16.0539 13.7077 16.0529C13.513 16.0519 13.3237 15.9892 13.1669 15.8738L10.1106 13.6238C9.98192 13.5293 9.82637 13.4783 9.66665 13.4783C9.50693 13.4783 9.35137 13.5293 9.22265 13.6238L6.1664 15.8738C6.00971 15.9908 5.81985 16.0548 5.62435 16.0565C5.42884 16.0583 5.23785 15.9978 5.07907 15.8837C4.92029 15.7696 4.80196 15.6079 4.74125 15.4221C4.68053 15.2363 4.68058 15.0359 4.7414 14.8501L5.9264 11.1976C5.97509 11.0473 5.97505 10.8854 5.92629 10.7351C5.87754 10.5848 5.78256 10.4537 5.6549 10.3606L2.5469 8.08884C2.39038 7.97423 2.27407 7.8131 2.2146 7.62845C2.15513 7.44379 2.15554 7.24507 2.21576 7.06066C2.27598 6.87625 2.39294 6.71559 2.54993 6.60163C2.70692 6.48766 2.89591 6.42622 3.0899 6.42609H6.9149C7.07369 6.42608 7.22837 6.37568 7.35668 6.28214C7.485 6.18861 7.58031 6.05676 7.6289 5.90559L8.7914 2.28234C8.85107 2.09693 8.96803 1.93523 9.12545 1.82052C9.28287 1.70582 9.47262 1.64402 9.6674 1.64402C9.86217 1.64402 10.0519 1.70582 10.2093 1.82052C10.3668 1.93523 10.4837 2.09693 10.5434 2.28234L11.7059 5.90559C11.7545 6.05676 11.8498 6.18861 11.9781 6.28214C12.1064 6.37568 12.2611 6.42608 12.4199 6.42609H16.2449C16.4389 6.42622 16.6279 6.48766 16.7849 6.60163C16.9419 6.71559 17.0588 6.87625 17.119 7.06066C17.1793 7.24507 17.1797 7.44379 17.1202 7.62845C17.0607 7.8131 16.9444 7.97423 16.7879 8.08884H16.7864Z" fill="white"/>
</svg>
