<svg width="19" height="18" viewBox="0 0 19 18" fill="#E43A3E" xmlns="http://www.w3.org/2000/svg">
<g clip-path="url(#clip0_201_2243)">
<path d="M9.33337 9C10.2234 9 11.0934 8.73608 11.8334 8.24162C12.5735 7.74715 13.1502 7.04434 13.4908 6.22208C13.8314 5.39981 13.9205 4.49501 13.7469 3.6221C13.5733 2.74918 13.1447 1.94736 12.5154 1.31802C11.886 0.688685 11.0842 0.260102 10.2113 0.0864683C9.33837 -0.0871652 8.43357 0.00194979 7.6113 0.342544C6.78903 0.683138 6.08623 1.25991 5.59176 1.99994C5.09729 2.73996 4.83337 3.60999 4.83337 4.5C4.83457 5.69311 5.30905 6.83701 6.15271 7.68067C6.99637 8.52432 8.14027 8.99881 9.33337 9ZM9.33337 1.5C9.92672 1.5 10.5067 1.67595 11.0001 2.00559C11.4934 2.33524 11.878 2.80377 12.105 3.35195C12.3321 3.90013 12.3915 4.50333 12.2757 5.08527C12.16 5.66722 11.8743 6.20177 11.4547 6.62132C11.0351 7.04088 10.5006 7.3266 9.91864 7.44236C9.3367 7.55811 8.7335 7.4987 8.18532 7.27164C7.63715 7.04458 7.16861 6.66006 6.83897 6.16671C6.50932 5.67337 6.33337 5.09335 6.33337 4.5C6.33337 3.70435 6.64944 2.94129 7.21205 2.37868C7.77466 1.81607 8.53772 1.5 9.33337 1.5Z" />
<path d="M9.33337 10.5C7.54377 10.502 5.82804 11.2138 4.5626 12.4792C3.29716 13.7447 2.58536 15.4604 2.58337 17.25C2.58337 17.4489 2.66239 17.6397 2.80304 17.7803C2.9437 17.921 3.13446 18 3.33337 18C3.53229 18 3.72305 17.921 3.8637 17.7803C4.00436 17.6397 4.08337 17.4489 4.08337 17.25C4.08337 15.8576 4.6365 14.5223 5.62106 13.5377C6.60563 12.5531 7.94099 12 9.33337 12C10.7258 12 12.0611 12.5531 13.0457 13.5377C14.0303 14.5223 14.5834 15.8576 14.5834 17.25C14.5834 17.4489 14.6624 17.6397 14.803 17.7803C14.9437 17.921 15.1345 18 15.3334 18C15.5323 18 15.7231 17.921 15.8637 17.7803C16.0044 17.6397 16.0834 17.4489 16.0834 17.25C16.0814 15.4604 15.3696 13.7447 14.1042 12.4792C12.8387 11.2138 11.123 10.502 9.33337 10.5Z" />
</g>
<defs>
<clipPath id="clip0_201_2243">
<rect width="18" height="18" transform="translate(0.333374)"/>
</clipPath>
</defs>
</svg>
