<svg width="16" height="16" viewBox="0 0 16 16" fill="none" xmlns="http://www.w3.org/2000/svg">
<path d="M2.4 8.8C2.84183 8.8 3.2 8.44183 3.2 8C3.2 7.55817 2.84183 7.2 2.4 7.2L0.8 7.2C0.358172 7.2 -3.69004e-07 7.55817 -3.49691e-07 8C-3.30378e-07 8.44183 0.358172 8.8 0.8 8.8L2.4 8.8Z" fill="#282828"/>
<path fill-rule="evenodd" clip-rule="evenodd" d="M8 12C5.79086 12 4 10.2091 4 8C4 5.79086 5.79086 4 8 4C10.2091 4 12 5.79086 12 8C12 10.2091 10.2091 12 8 12ZM5.6 8C5.6 9.32548 6.67452 10.4 8 10.4C9.32548 10.4 10.4 9.32548 10.4 8C10.4 6.67452 9.32548 5.6 8 5.6C6.67452 5.6 5.6 6.67452 5.6 8Z" fill="#282828"/>
<path d="M8 16C7.55817 16 7.2 15.6418 7.2 15.2L7.2 13.6C7.2 13.1582 7.55817 12.8 8 12.8C8.44183 12.8 8.8 13.1582 8.8 13.6L8.8 15.2C8.8 15.6418 8.44183 16 8 16Z" fill="#282828"/>
<path d="M7.2 2.4C7.2 2.84183 7.55817 3.2 8 3.2C8.44183 3.2 8.8 2.84183 8.8 2.4L8.8 0.8C8.8 0.358172 8.44183 -3.69004e-07 8 -3.49691e-07C7.55817 -3.30378e-07 7.2 0.358172 7.2 0.8L7.2 2.4Z" fill="#282828"/>
<path d="M16 8C16 8.44183 15.6418 8.8 15.2 8.8L13.6 8.8C13.1582 8.8 12.8 8.44183 12.8 8C12.8 7.55817 13.1582 7.2 13.6 7.2L15.2 7.2C15.6418 7.2 16 7.55817 16 8Z" fill="#282828"/>
<path d="M2.34315 13.6567C2.03073 13.3443 2.03073 12.8377 2.34315 12.5253L3.47452 11.394C3.78694 11.0815 4.29347 11.0815 4.60589 11.394C4.91831 11.7064 4.91831 12.2129 4.60589 12.5253L3.47452 13.6567C3.1621 13.9691 2.65557 13.9691 2.34315 13.6567Z" fill="#282828"/>
<path d="M11.3941 3.47455C11.0817 3.78697 11.0817 4.2935 11.3941 4.60592C11.7065 4.91834 12.2131 4.91834 12.5255 4.60592L13.6569 3.47455C13.9693 3.16213 13.9693 2.6556 13.6569 2.34318C13.3445 2.03076 12.8379 2.03076 12.5255 2.34318L11.3941 3.47455Z" fill="#282828"/>
<path d="M13.6569 13.6566C13.3445 13.969 12.8379 13.969 12.5255 13.6566L11.3941 12.5252C11.0817 12.2128 11.0817 11.7063 11.3941 11.3938C11.7065 11.0814 12.2131 11.0814 12.5255 11.3938L13.6569 12.5252C13.9693 12.8376 13.9693 13.3442 13.6569 13.6566Z" fill="#282828"/>
<path d="M3.47452 4.6058C3.78694 4.91822 4.29348 4.91822 4.6059 4.6058C4.91831 4.29338 4.91831 3.78685 4.60589 3.47443L3.47452 2.34306C3.1621 2.03064 2.65557 2.03064 2.34315 2.34306C2.03073 2.65548 2.03073 3.16201 2.34315 3.47443L3.47452 4.6058Z" fill="#282828"/>
</svg>
