<svg width="28" height="28" viewBox="0 0 28 28" fill="none" xmlns="http://www.w3.org/2000/svg">
<path d="M21.1105 0.103758C20.9699 0.177735 20.7036 0.621597 20.1636 1.67207C19.7419 2.47842 19.3646 3.1738 19.3202 3.22559C19.2684 3.26997 18.5657 3.41793 17.7519 3.54369C16.9382 3.66945 16.1614 3.81001 16.0356 3.84699C15.7175 3.95056 15.4956 4.23907 15.4956 4.56457C15.4956 4.8013 15.5918 4.91966 16.4055 5.7556C16.9012 6.26604 17.4634 6.85786 17.6483 7.0576L17.996 7.42748L17.7445 9.01799C17.6113 9.89092 17.5004 10.6899 17.493 10.786C17.493 11.0228 17.9442 11.4592 18.1884 11.4592C18.2919 11.4592 19.0835 11.1115 19.9342 10.6825L21.4877 9.90571L23.0413 10.6825C23.892 11.1115 24.6835 11.4592 24.7871 11.4592C25.0017 11.4592 25.4825 11.0302 25.4825 10.8378C25.4825 10.7121 25.0608 7.81956 25.0017 7.56064C24.9721 7.43488 25.2014 7.15377 26.1853 6.14768C27.4503 4.84568 27.5687 4.66814 27.4133 4.26866C27.2801 3.92097 27.0434 3.8396 25.3567 3.56588C24.469 3.41793 23.7145 3.26997 23.6701 3.24038C23.6331 3.21079 23.2484 2.51541 22.8267 1.69426C22.2349 0.555017 22.0056 0.177735 21.8502 0.0963602C21.5913 -0.0367985 21.362 -0.0294008 21.1105 0.103758ZM22.0648 3.45492C22.3607 4.00974 22.664 4.51279 22.738 4.55717C22.8563 4.63115 24.8981 5.02323 25.157 5.02323C25.1866 5.02323 24.8241 5.4227 24.3507 5.90356C23.3446 6.93184 23.3816 6.79128 23.6331 8.39658C23.7145 8.91442 23.7662 9.35828 23.7514 9.37308C23.7366 9.38787 23.2558 9.15854 22.6788 8.87743C22.1092 8.58892 21.5691 8.35219 21.4877 8.35219C21.4064 8.35219 20.8663 8.58892 20.2967 8.87743C19.7197 9.15854 19.2388 9.38047 19.224 9.36568C19.2019 9.35088 19.261 8.91442 19.3424 8.40398C19.5939 6.80608 19.6309 6.93184 18.6248 5.90356C18.1514 5.4227 17.7963 5.02323 17.8333 5.02323C17.8703 5.02323 18.3955 4.93446 19.0095 4.83829C19.8898 4.69033 20.1488 4.61636 20.2893 4.4832C20.3855 4.39442 20.6814 3.89878 20.9477 3.37354C21.2066 2.8557 21.4508 2.43403 21.4803 2.43403C21.5099 2.43403 21.7689 2.89269 22.0648 3.45492Z" fill="#E43A3E"/>
<path d="M12.3326 7.39296C11.8665 7.54832 11.615 7.70367 11.2821 8.05136C10.8605 8.48782 10.7569 8.75414 10.1873 10.8773C9.91355 11.8908 9.66203 12.8007 9.62504 12.8969L9.55846 13.067H5.26039H0.962329L0.747796 13.2815L0.533263 13.4961V20.4647C0.533263 28.0621 0.518467 27.744 0.954932 27.929C1.11028 27.9882 3.53673 28.0104 10.4092 27.9956L19.6563 27.9734L20.078 27.7662C20.581 27.5221 20.9731 27.1004 21.232 26.5382C21.3948 26.2053 21.4244 26.013 21.4318 25.5321C21.4318 25.0069 21.4022 24.8885 21.2024 24.5186L20.9731 24.097L21.2098 23.8676C21.3504 23.7345 21.5427 23.4312 21.6537 23.1871C21.9126 22.61 21.9348 21.8481 21.7055 21.3302L21.5501 20.9825L21.9866 20.5535C22.3417 20.191 22.4453 20.0356 22.571 19.6214C22.7634 18.9852 22.7634 18.6893 22.571 18.0531C22.4453 17.6388 22.3417 17.4834 21.9866 17.1209L21.5501 16.6919L21.7055 16.3368C21.9348 15.8337 21.92 15.0644 21.6685 14.5243C21.4096 13.9621 20.9953 13.5257 20.4701 13.2741L20.0262 13.067H17.7181H15.4026V11.5283C15.4026 10.6849 15.3657 9.78242 15.3213 9.5235C15.1733 8.58399 14.6407 7.81463 13.9379 7.49653C13.5162 7.31159 12.7321 7.2598 12.3326 7.39296ZM13.4423 8.93908C13.8639 9.27198 13.8861 9.41993 13.8861 11.8094V13.9917L14.1302 14.4652C14.796 15.7376 14.6851 17.0618 13.8343 18.1196L13.4644 18.5783L13.5014 19.0591C13.5384 19.614 13.7382 20.0726 14.1228 20.4795L14.3818 20.7458L14.1746 21.1823C13.753 22.033 13.9379 23.2166 14.6037 23.875L14.8552 24.134L14.6481 24.5704C14.4557 24.9699 14.4335 25.0735 14.4631 25.6431C14.4779 25.9908 14.5149 26.3311 14.5445 26.3977C14.6037 26.5234 14.4483 26.5308 11.9331 26.5308H9.26255V20.5387V14.5465H9.66203C9.87656 14.5465 10.1577 14.5243 10.2908 14.5022C10.7569 14.406 10.8087 14.2802 11.4745 11.802C11.8148 10.5222 12.1403 9.38294 12.1994 9.27198C12.4288 8.81332 13.065 8.64318 13.4423 8.93908ZM7.78301 20.5387V26.5308H4.89791H2.0128V20.5387V14.5465H4.89791H7.78301V20.5387ZM20.1446 14.8277C20.5219 15.2493 20.3961 16.0335 19.9152 16.285C19.7377 16.3738 19.3604 16.396 17.8957 16.396H16.0832L16.0314 15.8411C16.0093 15.5378 15.9353 15.1236 15.8835 14.9164L15.7873 14.5391L17.8587 14.5613L19.93 14.5835L20.1446 14.8277ZM20.692 17.9791C21.343 18.2528 21.417 19.2219 20.8178 19.6288C20.6402 19.7471 20.3887 19.7619 18.199 19.7841C15.521 19.8063 15.3804 19.7915 15.1141 19.3476L14.9736 19.1183L15.2917 18.6449C15.4692 18.3933 15.632 18.1122 15.6616 18.0309C15.7059 17.8755 15.7503 17.8755 18.0732 17.8755C19.9448 17.8755 20.4923 17.8977 20.692 17.9791ZM19.9152 21.3894C20.3443 21.6113 20.5145 22.3955 20.2111 22.7728C19.9448 23.1131 19.7747 23.1353 17.7773 23.1131L15.9057 23.0909L15.6986 22.8542C15.2843 22.3955 15.3657 21.7297 15.8613 21.4264C16.0906 21.2858 16.2312 21.2784 17.9031 21.2784C19.3678 21.2784 19.7377 21.3006 19.9152 21.3894ZM19.2642 24.6814C19.8265 24.8367 20.1224 25.4803 19.8709 25.9908C19.6267 26.4864 19.4196 26.5382 17.8217 26.516L16.4235 26.4938L16.172 26.2201C15.9575 25.9834 15.9205 25.8872 15.9205 25.5691C15.9205 25.2732 15.9575 25.1548 16.1276 24.9699C16.2386 24.8441 16.4457 24.7184 16.5863 24.6814C16.9636 24.5926 18.9461 24.5926 19.2642 24.6814Z" fill="#E43A3E"/>
<path d="M4.3725 22.9726C4.12838 23.2167 4.09139 23.5274 4.26893 23.8677C4.55744 24.4226 5.48955 24.245 5.60792 23.6088C5.73368 22.9134 4.87554 22.4696 4.3725 22.9726Z" fill="#E43A3E"/>
</svg>
