<svg width="30" height="28" viewBox="0 0 30 22" fill="none" xmlns="http://www.w3.org/2000/svg">
<path d="M18.4128 0.0803757C18.1429 0.172234 17.8961 0.447807 17.8444 0.694677C17.8272 0.792276 17.8099 1.50992 17.8099 2.29645V3.72599H9.34753H0.890846L0.695648 3.85804C0.586566 3.92693 0.45452 4.0762 0.397109 4.18528C0.305251 4.37474 0.29951 4.81681 0.310992 11.5454C0.328215 18.6701 0.328215 18.7046 0.448779 18.8596C0.741577 19.2557 0.718612 19.25 2.49262 19.2844L4.10014 19.3132L4.23218 19.6691C4.63406 20.7771 5.56412 21.6096 6.72957 21.9024C7.21183 22.023 8.02707 22.023 8.50932 21.9024C9.68051 21.6096 10.6508 20.7255 11.0297 19.6174L11.133 19.3132H14.9968H18.8548L18.9811 19.6634C19.1763 20.203 19.4002 20.5418 19.848 20.9838C20.5312 21.6613 21.3752 22 22.3741 22C23.9242 22 25.2504 21.0872 25.7614 19.6691L25.8935 19.3132L27.501 19.2844C29.275 19.25 29.252 19.2557 29.5448 18.8596C29.6654 18.7046 29.6654 18.6414 29.6826 14.7662L29.6941 10.8278L29.5563 10.5924C29.4759 10.4661 28.8559 9.8001 28.1784 9.12265L26.9383 7.88831V5.18998C26.9383 3.01409 26.9211 2.42276 26.8522 2.12996C26.5996 1.05063 25.6868 0.212421 24.6074 0.0516701C24.3835 0.0229645 22.9827 0 21.4269 0C19.1821 0 18.5965 0.0172234 18.4128 0.0803757ZM24.7108 1.87735C25.0897 2.11274 25.1816 2.34238 25.2103 3.07724L25.2275 3.72599H23.7003C22.0239 3.72599 21.978 3.73173 21.6909 4.07046L21.5417 4.25418V6.38987C21.5417 9.34081 21.3522 9.12265 23.953 9.12265H25.704L26.835 10.2537L27.9717 11.3904V14.4734V17.5621H26.9441H25.9164L25.8188 17.2578C25.5432 16.4081 24.8888 15.6388 24.085 15.2255C23.4535 14.904 22.8908 14.7834 22.1502 14.8178C21.2202 14.8638 20.5083 15.1681 19.8366 15.8111C19.693 15.9546 19.561 16.0694 19.5495 16.0694C19.5093 16.0694 19.5323 1.79123 19.5725 1.75104C19.5954 1.72808 20.715 1.7166 22.0584 1.72808C24.4926 1.7453 24.4984 1.7453 24.7108 1.87735ZM17.8099 6.42432V7.40031H9.9159H2.02185V6.42432V5.44833H9.9159H17.8099V6.42432ZM25.216 6.42432V7.40031H24.24H23.264V6.42432V5.44833H24.24H25.216V6.42432ZM17.8099 10.0986V11.0746H9.9159H2.02185V10.0986V9.12265H9.9159H17.8099V10.0986ZM17.8099 15.1795V17.5621H14.4916H11.1675L10.9895 17.0856C10.5876 16.0465 9.82404 15.3346 8.68156 14.9442C8.23375 14.7891 7.01089 14.7891 6.55734 14.9442C5.40911 15.3346 4.6111 16.0866 4.22644 17.143L4.07143 17.5621H3.04951H2.02185V15.1795V12.797H9.9159H17.8099V15.1795ZM8.31986 16.6493C9.46235 17.0799 9.87571 18.5611 9.12362 19.5485C8.73323 20.071 8.02707 20.3695 7.39554 20.2949C5.8684 20.0997 5.18521 18.2568 6.21861 17.1315C6.454 16.8732 6.76402 16.678 7.07404 16.5804C7.37258 16.4943 7.98114 16.523 8.31986 16.6493ZM23.2411 16.7182C24.0104 17.1143 24.4237 18.0099 24.2113 18.8366C23.9817 19.738 23.2985 20.2777 22.3741 20.2834C21.9952 20.2834 21.8574 20.2604 21.5991 20.1341C20.0088 19.382 20.1581 17.1258 21.8287 16.5804C21.9091 16.5517 22.1904 16.5402 22.4603 16.5517C22.8507 16.5632 23.0057 16.5976 23.2411 16.7182Z" fill="#E43A3E"/>
</svg>
