<svg width="24" height="24" viewBox="0 -3 26 28" fill="none" xmlns="http://www.w3.org/2000/svg">
<path d="M2.57466 0.0279007C2.34187 0.0649357 1.81281 0.26598 1.60118 0.403538C1.08799 0.726267 0.643574 1.37702 0.516598 1.99073C0.431947 2.38753 0.437238 17.0691 0.516598 17.4606C0.728224 18.4764 1.60118 19.27 2.65402 19.4129C3.13018 19.4764 3.15664 19.4869 3.15664 19.6086C3.15664 19.6562 3.25716 19.8996 3.37884 20.1483C3.82855 21.0583 4.7068 21.7196 5.74377 21.9259C7.29922 22.2328 8.91287 21.3228 9.47897 19.8097L9.60066 19.4869L13.5739 19.4711C16.7272 19.4605 17.5525 19.4711 17.5737 19.524C17.9387 20.5715 18.4995 21.2329 19.3725 21.6561C19.7693 21.8466 20.4095 22 20.801 22C21.2242 22 21.8432 21.8413 22.3088 21.6138C23.0389 21.2593 23.6738 20.5398 23.9436 19.7726L24.0442 19.4869L24.7531 19.4552C25.1393 19.434 25.5626 19.3917 25.6948 19.3547C26.5519 19.1272 27.3032 18.3336 27.4884 17.4606C27.5254 17.2702 27.5466 15.9898 27.5466 13.4609C27.5466 10.4293 27.5307 9.6569 27.4672 9.29713C27.1339 7.37133 25.7636 5.8582 23.8378 5.27623C23.4675 5.15984 23.3299 5.15455 21.2507 5.12809L19.0551 5.09635L19.0286 3.4827L19.0022 1.86905L18.8117 1.47225C18.4678 0.758011 17.9017 0.276562 17.1822 0.0860977C16.8594 0.00144768 16.2828 -0.00384331 9.76996 0.00144768C5.88662 0.00144768 2.64873 0.0173187 2.57466 0.0279007ZM17.034 1.73678C17.1398 1.80556 17.2721 1.9537 17.3303 2.05951C17.4414 2.24998 17.4414 2.30817 17.4414 7.07506V11.8948H9.7435H2.0456V7.11209C2.0456 3.84776 2.06147 2.27643 2.1038 2.17591C2.18316 1.96428 2.35775 1.78969 2.60112 1.67859C2.80216 1.58335 3.09315 1.57806 9.82815 1.59394L16.8383 1.60452L17.034 1.73678ZM21.7268 9.8262V12.9371L21.8485 13.117C22.0866 13.4768 22.1236 13.482 24.15 13.482H25.9594V15.2967C25.9594 17.0744 25.9594 17.1167 25.843 17.3442C25.6261 17.7622 25.3615 17.868 24.5468 17.8733H24.0653L23.9754 17.5929C23.4992 16.1115 21.9173 15.1221 20.3619 15.3391C19.9862 15.392 19.3355 15.6036 19.2138 15.7094C19.0286 15.884 19.0286 15.8787 19.0286 11.2335V6.71H20.3777H21.7268V9.8262ZM24.0336 7.05918C24.7161 7.3925 25.2398 7.92685 25.5943 8.64109C25.8959 9.25481 25.9594 9.61986 25.9594 10.8473V11.8948H24.6367H23.314V9.35004V6.79994L23.4833 6.83698C23.5786 6.85285 23.8219 6.95337 24.0336 7.05918ZM17.4414 15.6777V17.8733L13.521 17.8627L9.59537 17.8468L9.53188 17.6352C9.2938 16.831 8.64305 16.0692 7.86532 15.6777C7.41562 15.4555 7.23044 15.3973 6.75428 15.3391C5.20941 15.1433 3.64338 16.1274 3.18309 17.5823L3.09315 17.8786L2.87094 17.8468C2.47414 17.7781 2.2731 17.6246 2.12496 17.2754C2.06147 17.1167 2.0456 16.7834 2.0456 15.2809V13.482H9.7435H17.4414V15.6777ZM7.10347 17.085C7.96055 17.4924 8.3309 18.487 7.94468 19.3494C7.5373 20.2541 6.47917 20.6456 5.60621 20.2223C4.5375 19.7039 4.26767 18.3547 5.06127 17.4818C5.61679 16.8786 6.36806 16.7358 7.10347 17.085ZM21.5311 17.0691C22.5945 17.5347 22.8855 18.9367 22.0919 19.8044C21.5946 20.344 20.9809 20.5186 20.2931 20.307C19.9598 20.2065 19.8645 20.1483 19.5841 19.8679C19.1926 19.4764 19.0551 19.143 19.0604 18.6087C19.0762 17.5982 19.9756 16.8046 20.9862 16.9104C21.1184 16.921 21.3618 16.995 21.5311 17.0691Z" fill="#E43A3E"/>
</svg>
