<svg width="32" height="20" viewBox="0 0 30 28" fill="none" xmlns="http://www.w3.org/2000/svg">
<path d="M10.7892 0.0353012C8.19786 0.287849 5.51864 1.16079 2.9108 2.59922C2.37276 2.89569 2.12021 3.06589 2.04335 3.18667C1.94453 3.35687 0.945312 7.15059 0.945312 7.37569C0.945312 7.58432 1.72492 10.3239 1.82923 10.5051C1.88963 10.5984 2.04335 10.7302 2.17512 10.7906C2.38374 10.8949 2.51002 10.9059 3.39943 10.9059H4.39315L4.55786 11.1914C4.6457 11.3506 4.83237 11.6086 4.97512 11.7678L5.23315 12.0533L3.37198 12.0698L1.5108 12.0863L1.30767 12.2455C0.813548 12.6188 0.835509 13.2886 1.35159 13.6729C1.49982 13.7827 1.57119 13.7882 4.29982 13.8047L7.09982 13.8212L9.72413 15.5671L12.343 17.3184L12.2881 17.7082C12.2551 17.9663 12.2551 18.2133 12.2881 18.4329L12.343 18.7624L9.76256 20.5027L7.17668 22.2431L4.34374 22.2706L1.5108 22.298L1.30767 22.4573C0.813548 22.8306 0.835509 23.5004 1.35159 23.8847L1.49982 24H15.0002H28.5006L28.6488 23.8847C28.9343 23.6706 29.0277 23.4949 29.0277 23.1545C29.0277 22.8965 29.0002 22.8031 28.8794 22.6439C28.5884 22.2596 28.6598 22.2706 25.6128 22.2706H22.8786L20.2653 20.5192L17.6575 18.7678L17.7124 18.4329C17.7453 18.2133 17.7453 17.9663 17.7124 17.7137L17.6575 17.3239L20.2763 15.5726L22.8951 13.8212L25.6951 13.8047C28.4292 13.7882 28.5006 13.7827 28.6488 13.6729C28.9343 13.4588 29.0277 13.2831 29.0277 12.9427C29.0277 12.6847 29.0002 12.5914 28.8794 12.4322C28.5994 12.0698 28.5445 12.0588 26.6943 12.0588H25.0363L25.3273 11.7404C25.492 11.5647 25.6841 11.3067 25.761 11.1694L25.8928 10.9114L27.1939 10.8949L28.4896 10.8784L28.6818 10.7302C29.0386 10.4557 29.0551 10.3733 29.0551 8.74824C29.0551 7.04079 29.0002 6.65099 28.6763 5.99216C28.3139 5.25648 27.7539 4.69099 27.0567 4.35059C26.288 3.97726 24.8551 3.54902 23.3233 3.24706C22.681 3.12079 22.5492 3.07687 22.0331 2.78589C19.4418 1.34746 17.081 0.507458 14.572 0.139614C13.71 0.01334 11.6237 -0.0415611 10.7892 0.0353012ZM11.4865 2.51138V3.2251L9.69119 3.20863C7.73119 3.18667 7.70923 3.18667 7.18217 2.84079L6.96806 2.70354L7.14923 2.62667C8.02217 2.26981 10.2292 1.81412 11.1461 1.79765L11.4865 1.79216V2.51138ZM14.2096 1.87452C15.4614 2.03922 16.7132 2.35765 18.0143 2.84079C18.4261 2.99452 18.7994 3.14275 18.8433 3.1702C18.8928 3.19765 17.7014 3.21961 16.0873 3.21961H13.2433V2.50589V1.79216H13.4245C13.5233 1.79216 13.8802 1.8306 14.2096 1.87452ZM6.33119 4.38354C6.51786 4.49883 6.80884 4.64157 6.97904 4.70746C7.68727 4.97648 7.62139 4.97099 15.5712 4.97648H23.0324L23.6692 5.11922C24.5477 5.31687 25.5194 5.60236 26.0081 5.8055C26.5241 6.01961 26.9139 6.36 27.1171 6.77726C27.2653 7.07922 27.2708 7.12863 27.2873 8.11687L27.3092 9.14902H26.7053H26.0959L26.0081 8.83059C25.6292 7.51844 24.3775 6.56863 23.0159 6.56863C21.6598 6.56863 20.4026 7.51844 20.0237 8.83059L19.9359 9.14902H15.1484H10.361L10.2402 8.74824C9.83394 7.40314 8.48335 6.48079 7.07237 6.5851C5.76021 6.67844 4.68413 7.54589 4.28884 8.81961L4.19551 9.12157H3.71237H3.22374L2.98217 8.24314L2.73512 7.36471L3.11394 5.8604C3.32806 5.03138 3.5257 4.32314 3.55315 4.28471C3.5861 4.24079 3.96492 4.02667 4.40413 3.80157L5.20021 3.3953L5.59551 3.7851C5.80962 3.99922 6.14453 4.26824 6.33119 4.38354ZM7.89041 8.47922C8.70296 8.89098 8.87864 9.98902 8.24178 10.6259C7.62688 11.2353 6.58923 11.12 6.13904 10.3898C5.94688 10.0824 5.88649 9.57177 5.99629 9.23138C6.08962 8.94589 6.41355 8.60549 6.73747 8.45177C7.07237 8.29255 7.55002 8.30353 7.89041 8.47922ZM23.7022 8.51216C24.4928 8.97883 24.6026 10.0824 23.9163 10.6863C23.6308 10.9333 23.4057 11.0157 23.0049 11.0157C22.5931 11.0157 22.2802 10.8784 22.0057 10.5765C21.3798 9.88471 21.6653 8.74824 22.5547 8.40785C22.8786 8.28706 23.3892 8.33099 23.7022 8.51216ZM20.2818 11.1639C20.3531 11.3067 20.5398 11.5647 20.7045 11.7404L20.9955 12.0588H15.1649H9.33433L9.58688 11.7733C9.72413 11.6141 9.90531 11.3561 9.98766 11.1969L10.1414 10.9059H15.1484H20.1555L20.2818 11.1639ZM19.6669 13.8431C19.6669 13.8596 18.9971 14.3153 18.1845 14.8588L16.6967 15.8526L16.2684 15.6329C15.401 15.2047 14.6159 15.1992 13.7594 15.622L13.3037 15.8526L11.8159 14.8588C11.0033 14.3153 10.3335 13.8596 10.3335 13.8431C10.3335 13.8267 12.4363 13.8157 15.0002 13.8157C17.5696 13.8157 19.6669 13.8267 19.6669 13.8431ZM15.5547 17.2416C15.7853 17.3953 15.9884 17.7686 15.9884 18.0486C15.9884 18.1529 15.9335 18.3506 15.8677 18.4824C15.4998 19.2071 14.5006 19.2071 14.1383 18.4824C13.979 18.1804 13.979 17.9278 14.1273 17.6204C14.3853 17.0824 15.0496 16.9122 15.5547 17.2416ZM13.5618 20.3765C14.3963 20.9255 15.6481 20.9035 16.543 20.3161L16.6857 20.2227L18.1845 21.2329L19.6779 22.2431L17.339 22.2596C16.0543 22.2651 13.9516 22.2651 12.6614 22.2596L10.3281 22.2431L11.7994 21.2439C12.6065 20.6949 13.2873 20.2447 13.3147 20.2447C13.3367 20.2392 13.452 20.2996 13.5618 20.3765Z" fill="#E43A3E"/>
</svg>
