<svg width="24" height="24" viewBox="0 0 24 24" fill="none" xmlns="http://www.w3.org/2000/svg">
<path d="M10.7604 0.0806255C9.67536 0.230629 8.68533 0.535637 7.70531 1.02565C3.4602 3.1557 1.40516 8.07582 2.88519 12.5909C3.0752 13.1759 3.53521 14.166 3.83021 14.626L4.01522 14.916L2.06517 16.871C0.995145 17.9461 0.0901232 18.8761 0.0601225 18.9361C-0.0998814 19.2511 0.0751229 19.7611 0.400131 19.9411C0.500133 19.9961 1.17515 20.2011 1.90517 20.4011C2.63519 20.5961 3.2402 20.7711 3.2502 20.7761C3.2602 20.7861 3.4402 21.4111 3.65521 22.1662C3.86522 22.9162 4.08022 23.5962 4.13022 23.6712C4.31023 23.9412 4.75524 24.0712 5.09024 23.9512C5.16525 23.9212 6.33527 22.7962 7.68031 21.4511L10.1304 19.0111L10.5304 19.0811C11.2104 19.1961 12.3954 19.2211 13.1354 19.1311C13.4954 19.0911 13.8255 19.0411 13.8705 19.0211C13.9305 19.0011 14.6005 19.6461 16.3305 21.3961C17.9756 23.0512 18.7806 23.8262 18.9256 23.9012C19.2856 24.0762 19.6356 24.0162 19.8906 23.7412C20.0006 23.6262 20.0906 23.3362 20.5706 21.5761L20.7906 20.7761L22.1657 20.3711C22.9207 20.1461 23.6007 19.9211 23.6757 19.8761C23.9557 19.6911 24.0907 19.1861 23.9357 18.9061C23.8957 18.8361 22.9957 17.9161 21.9307 16.851L19.9956 14.916L20.1806 14.626C20.4306 14.236 20.9156 13.2159 21.0706 12.7509C21.3906 11.8009 21.5506 10.9459 21.5906 9.95086C21.7356 6.21577 19.6706 2.71069 16.3255 1.03565C14.5855 0.165627 12.6254 -0.16938 10.7604 0.0806255ZM13.5054 1.74566C16.8055 2.41068 19.2406 4.88574 19.8906 8.22582C20.0106 8.86584 20.0106 10.3459 19.8856 11.0009C19.2506 14.311 16.7805 16.806 13.4804 17.461C12.6704 17.626 11.3104 17.621 10.5054 17.456C7.2003 16.776 4.75524 14.306 4.12522 11.0009C3.99022 10.2809 3.99522 8.86084 4.14522 8.12582C4.85024 4.58073 7.60531 2.06567 11.2554 1.63066C11.6604 1.58066 13.0454 1.65066 13.5054 1.74566ZM21.6056 18.8061C21.6056 18.8211 21.2056 18.9461 20.7206 19.0811C19.8256 19.3311 19.6156 19.4261 19.4456 19.6511C19.3956 19.7211 19.2456 20.1761 19.1106 20.6561C18.9806 21.1361 18.8606 21.5561 18.8506 21.5911C18.8406 21.6261 18.1156 20.9361 17.2355 20.0561L15.6455 18.4611L16.1105 18.2411C17.0205 17.8111 18.0906 17.056 18.7306 16.406L18.9806 16.151L20.2906 17.461C21.0156 18.1861 21.6056 18.7861 21.6056 18.8061ZM5.54526 16.681C6.22027 17.281 6.96029 17.7911 7.74031 18.1811L8.34532 18.4861L6.76028 20.0711L5.17025 21.6611L4.92524 20.7461C4.79024 20.2411 4.63523 19.7611 4.58023 19.6811C4.41023 19.4261 4.21022 19.3361 3.2602 19.0811L2.34518 18.8361L3.66521 17.516C4.38523 16.796 4.98524 16.201 4.99524 16.201C5.00524 16.201 5.25025 16.416 5.54526 16.681Z" fill="#E43A3E"/>
<path d="M11.6558 5.71067C11.4358 5.82568 11.2758 6.03568 10.1908 7.66572C10.1308 7.75572 10.0408 7.71572 8.76573 7.08071C7.80071 6.60069 7.3507 6.40069 7.2257 6.40069C6.85569 6.40069 6.47568 6.7157 6.42568 7.06071C6.41068 7.15071 6.59068 8.54574 6.82569 10.1658C7.2157 12.9008 7.2557 13.1159 7.3707 13.2709C7.64071 13.6209 7.3907 13.6009 11.9958 13.6009C14.8159 13.6009 16.1959 13.5859 16.2909 13.5459C16.4809 13.4759 16.6559 13.3059 16.7359 13.1209C16.8309 12.9008 17.6209 7.31571 17.5909 7.08071C17.5759 6.9707 17.5209 6.8257 17.4709 6.7557C17.3559 6.60069 16.9859 6.40069 16.8059 6.40069C16.7359 6.39569 16.0559 6.7057 15.2909 7.08571C14.1409 7.65572 13.8909 7.76072 13.8559 7.70072C13.8309 7.66072 13.5359 7.22071 13.1958 6.7257C12.6658 5.94568 12.5508 5.81068 12.3558 5.71067C12.2358 5.65067 12.0758 5.60067 12.0058 5.60067C11.9358 5.60067 11.7758 5.65067 11.6558 5.71067ZM12.5208 8.62574C12.7908 9.02075 13.0808 9.39576 13.1658 9.45576C13.2508 9.51577 13.4208 9.57577 13.5509 9.59077C13.7609 9.61077 13.8659 9.57077 14.7959 9.10576C15.6859 8.66574 15.8059 8.61574 15.7809 8.71575C15.7709 8.77575 15.6659 9.47576 15.5559 10.2758C15.4459 11.0708 15.3409 11.7858 15.3259 11.8608L15.2959 12.0008H12.0058H8.71573L8.68573 11.8608C8.67073 11.7858 8.56573 11.0708 8.45573 10.2758C8.34572 9.47576 8.24072 8.77575 8.23072 8.71575C8.20572 8.61574 8.32572 8.66574 9.21575 9.10576C10.1458 9.57077 10.2508 9.61077 10.4608 9.59077C10.5908 9.57577 10.7608 9.52077 10.8408 9.46076C10.9258 9.40076 11.2158 9.02575 11.4858 8.62574C11.7558 8.22573 11.9908 7.90073 12.0058 7.90073C12.0258 7.90073 12.2558 8.22573 12.5208 8.62574Z" fill="#E43A3E"/>
</svg>
