<svg width="26" height="24" viewBox="0 0 26 24" fill="none" xmlns="http://www.w3.org/2000/svg">
<path d="M8.62809 0.0400944C8.46077 0.104071 8.23439 0.394421 7.20094 1.84617L6.2167 3.22903L4.44507 3.79005C3.21477 4.1739 2.63407 4.38059 2.53565 4.46917C2.26006 4.69555 2.25514 4.73984 2.25514 6.79198V8.67679L1.14787 10.1778C0.444138 11.1325 0.0307575 11.7378 0.0110727 11.8362C-0.0036909 11.9248 -0.0036909 12.0724 0.0110727 12.1561C0.0307575 12.2594 0.444138 12.8647 1.14787 13.8194L2.25514 15.3204V17.2052C2.25514 19.2574 2.26006 19.3017 2.53565 19.528C2.63407 19.6166 3.21477 19.8233 4.44507 20.2072L6.2167 20.7682L7.25999 22.2248C7.83085 23.0319 8.36726 23.7504 8.45092 23.8292C8.74127 24.1097 8.85446 24.09 10.8328 23.4256L12.5995 22.8351L14.3514 23.4256C16.3248 24.0851 16.4429 24.1047 16.7284 23.8292C16.812 23.7504 17.3484 23.0319 17.9193 22.2298L18.9577 20.7731L20.7293 20.2121C21.9645 19.8233 22.5452 19.6166 22.6486 19.528C22.9192 19.3017 22.9242 19.2574 22.9242 17.2052V15.3155L24.0314 13.8194C24.7253 12.8746 25.1485 12.2594 25.1682 12.161C25.183 12.0724 25.183 11.9248 25.1682 11.8411C25.1485 11.7378 24.7253 11.1226 24.0314 10.1778L22.9242 8.68172V6.79198C22.9242 4.73984 22.9192 4.69555 22.6486 4.46917C22.5452 4.38059 21.9645 4.1739 20.7293 3.78512L18.9577 3.22411L17.9193 1.76744C17.3484 0.965281 16.812 0.246784 16.7284 0.168045C16.4429 -0.10754 16.3248 -0.0878563 14.3564 0.571585L12.6044 1.15721L10.8623 0.576506C9.15958 0.00564575 8.87415 -0.0632496 8.62809 0.0400944ZM10.8426 2.15621C11.7334 2.45148 12.5208 2.69754 12.5896 2.69754C12.6585 2.69754 13.4459 2.4564 14.3367 2.15621C15.2274 1.86094 15.9705 1.63456 15.9902 1.65425C16.005 1.67393 16.4577 2.30384 16.9892 3.05187C17.5256 3.79989 18.0128 4.44949 18.0719 4.48394C18.1309 4.52331 18.9035 4.78413 19.7894 5.06464L21.3986 5.57152V7.3087C21.3986 8.82443 21.4084 9.07049 21.4773 9.20336C21.5216 9.29194 21.9891 9.94154 22.5108 10.6502C23.0373 11.3588 23.4655 11.9691 23.4655 11.9986C23.4655 12.033 23.0373 12.6384 22.5108 13.347C21.9891 14.0606 21.5216 14.7102 21.4773 14.7938C21.4084 14.9267 21.3986 15.1826 21.3986 16.6836V18.4257L19.7894 18.9326C18.8986 19.2131 18.126 19.4739 18.0719 19.5133C18.0128 19.5526 17.5256 20.1973 16.9892 20.9453C16.4577 21.6934 16.005 22.3233 15.9902 22.343C15.9705 22.3626 15.2274 22.1363 14.3367 21.841C13.4459 21.5408 12.6585 21.2997 12.5896 21.2997C12.5208 21.2997 11.7334 21.5408 10.8426 21.841C9.95189 22.1363 9.20879 22.3626 9.19402 22.343C9.17434 22.3233 8.71667 21.6835 8.17041 20.9256C7.41747 19.8725 7.14189 19.5231 7.01886 19.4641C6.93027 19.4247 6.16257 19.1737 5.32104 18.908L3.78071 18.4208V16.6836C3.78071 15.2072 3.77087 14.9218 3.70197 14.7988C3.6626 14.7151 3.19509 14.0655 2.66852 13.3519C2.14195 12.6384 1.71381 12.033 1.71381 11.9986C1.71381 11.9642 2.14195 11.3588 2.66852 10.6453C3.19509 9.9317 3.6626 9.2821 3.70197 9.19844C3.77087 9.07541 3.78071 8.78998 3.78071 7.31362V5.57152L5.32104 5.08924C6.16257 4.8235 6.93027 4.57252 7.01886 4.53315C7.14189 4.47409 7.42239 4.11977 8.19994 3.0371C8.75604 2.25463 9.21371 1.61488 9.21863 1.61488C9.21863 1.61488 9.95189 1.85602 10.8426 2.15621Z" fill="#E43A3E"/>
<path d="M16.5024 8.50458C16.4483 8.52919 15.2426 9.71027 13.8204 11.1325C12.3982 12.5547 11.2171 13.721 11.1875 13.721C11.158 13.721 10.6167 13.1994 9.98185 12.5596C9.34702 11.9248 8.76632 11.3687 8.6925 11.3293C8.37262 11.162 7.91987 11.3047 7.73287 11.6345C7.59508 11.8707 7.59015 12.0921 7.71318 12.3333C7.80669 12.5104 10.5724 15.3008 10.8185 15.4631C10.9563 15.5517 11.286 15.5665 11.4927 15.4878C11.6994 15.4139 17.3538 9.75948 17.467 9.51342C17.5851 9.26244 17.5851 9.0656 17.467 8.84906C17.3341 8.59808 17.1028 8.45537 16.8272 8.46029C16.7042 8.46029 16.5566 8.47997 16.5024 8.50458Z" fill="#E43A3E"/>
</svg>
