<?xml version="1.0" standalone="no"?>
<!DOCTYPE svg PUBLIC "-//W3C//DTD SVG 20010904//EN"
 "http://www.w3.org/TR/2001/REC-SVG-20010904/DTD/svg10.dtd">
<svg version="1.0" xmlns="http://www.w3.org/2000/svg"
 width="1000.000000pt" height="1000.000000pt" viewBox="0 0 1000.000000 1000.000000"
 preserveAspectRatio="xMidYMid meet">
<metadata>
Created by potrace 1.14, written by Peter Selinger 2001-2017
</metadata>
<g transform="translate(0.000000,1000.000000) scale(0.100000,-0.100000)"
fill="#000000" stroke="none">
<path d="M0 5000 l0 -5000 5000 0 5000 0 0 5000 0 5000 -5000 0 -5000 0 0
-5000z m5015 4070 c-11 -5 -28 -9 -37 -9 -29 -1 -123 -48 -175 -87 -71 -53
-208 -199 -259 -275 -56 -85 -98 -175 -90 -196 6 -14 11 -12 34 10 16 15 38
27 49 27 34 0 37 -33 9 -89 -41 -79 -73 -188 -87 -288 -6 -51 -13 -93 -15 -93
-2 0 -18 9 -36 20 -70 43 -196 13 -241 -56 -12 -19 -29 -34 -39 -34 -19 0 -38
-48 -38 -96 0 -41 14 -51 33 -23 15 20 15 20 21 1 4 -10 17 -29 30 -41 14 -13
22 -29 19 -37 -3 -8 0 -21 7 -29 14 -17 65 -21 55 -5 -3 6 -16 10 -28 10 -25
0 -12 16 18 22 18 3 16 6 -9 18 -100 50 -97 183 5 238 90 48 209 7 209 -74 0
-161 120 -359 266 -437 73 -38 167 -60 226 -53 46 6 48 6 48 -17 0 -31 25 -53
80 -72 81 -28 76 -25 60 -36 -60 -38 -311 -55 -463 -30 -178 30 -330 138 -357
255 -11 51 12 123 57 175 38 45 41 55 14 46 -29 -9 -35 11 -9 29 22 16 22 16
1 16 -32 0 -50 -27 -34 -52 11 -17 10 -23 -7 -42 -43 -46 -65 -107 -59 -162 3
-28 11 -62 19 -75 40 -72 154 -161 249 -194 172 -61 444 -60 571 3 l58 28 18
-20 c31 -36 77 -101 75 -106 -1 -3 13 -7 30 -8 18 -1 44 -5 58 -8 43 -9 131
32 196 91 72 65 104 130 106 216 1 47 5 59 20 63 13 3 18 12 15 32 -2 15 -8
29 -14 31 -7 2 -10 -6 -6 -23 4 -24 3 -26 -19 -21 -23 6 -24 5 -20 -44 4 -70
-5 -109 -39 -160 -42 -64 -119 -119 -198 -140 -37 -11 -69 -19 -72 -19 -3 0
-36 29 -74 65 -60 56 -66 65 -45 65 33 0 88 35 98 64 7 16 20 25 45 29 104 17
216 118 259 234 14 37 29 84 32 103 9 45 20 57 55 65 71 16 127 -64 118 -166
-6 -60 -31 -97 -82 -123 -47 -23 -29 -42 21 -21 31 13 32 13 30 -8 -1 -13 3
-21 11 -19 7 1 12 -9 12 -28 0 -42 13 -37 33 13 l17 42 -4 -35 c-3 -19 -8 -51
-11 -70 -6 -33 -6 -34 9 -16 24 30 19 3 -10 -59 -29 -62 -51 -84 -40 -41 10
39 -9 32 -44 -16 -29 -39 -30 -40 -30 -15 0 32 -20 35 -38 7 -7 -12 -20 -19
-29 -18 -10 2 -26 -11 -40 -31 -27 -40 -29 -51 -7 -51 14 0 14 -3 4 -15 -18
-22 -6 -29 22 -14 21 11 22 11 9 -5 -18 -22 -6 -33 44 -40 44 -7 136 -35 147
-45 4 -3 4 -12 -1 -19 -6 -10 -22 -9 -80 6 -39 11 -74 16 -77 11 -10 -17 -22
-9 -29 18 -3 15 -9 22 -13 16 -5 -8 -27 -7 -76 4 -56 11 -71 11 -78 1 -8 -13
-12 7 -9 42 1 11 -2 10 -10 -3 -8 -14 -19 -17 -43 -13 -87 16 -108 17 -122 5
-12 -10 -17 -9 -27 4 -8 11 -32 16 -77 18 -36 2 -71 7 -77 12 -9 7 -13 4 -13
-9 0 -14 -3 -15 -12 -6 -7 7 -44 12 -94 12 -68 0 -83 -3 -88 -17 -6 -15 -8
-15 -16 -3 -7 11 -30 15 -87 15 -67 0 -80 -3 -90 -20 -10 -16 -12 -17 -13 -4
0 14 -7 15 -47 8 -27 -5 -65 -10 -85 -11 -28 -1 -39 -6 -44 -21 -5 -17 -8 -17
-21 -5 -12 13 -22 13 -69 2 -56 -13 -72 -13 -89 -2 -7 4 -10 -6 -7 -30 3 -33
2 -35 -9 -17 -7 11 -13 21 -13 22 -1 1 -31 -6 -66 -17 -35 -11 -66 -17 -69
-15 -10 10 -31 -19 -32 -44 0 -26 0 -26 -11 -4 -13 26 -40 25 -103 -6 -21 -10
-46 -16 -54 -13 -22 8 106 66 137 63 7 -1 27 7 45 17 54 33 138 57 147 42 6
-9 10 -7 15 8 3 12 9 21 13 20 4 -1 22 1 41 5 30 6 33 9 26 34 -5 21 -4 24 7
16 22 -17 44 -22 59 -13 11 7 10 13 -6 30 l-20 22 28 -13 c39 -18 47 -2 14 27
-32 28 -59 32 -50 8 5 -15 3 -15 -23 0 -16 9 -39 23 -51 32 -22 15 -23 15 -23
-3 0 -11 9 -29 20 -41 38 -40 20 -33 -41 18 -87 73 -105 67 -43 -15 43 -56 23
-49 -57 21 -97 85 -93 83 -85 51 l7 -28 -31 22 c-29 22 -41 36 -76 97 l-17 27
24 -27 c30 -33 66 -52 74 -38 9 14 -127 290 -142 290 -18 0 -17 -69 2 -113 17
-42 19 -50 6 -42 -5 3 -24 44 -42 90 -17 47 -36 88 -40 91 -12 7 -11 -60 0
-110 7 -26 6 -35 -1 -28 -16 16 -38 121 -37 177 1 28 3 42 6 33 10 -40 31 -16
43 50 18 99 58 249 82 304 11 27 18 51 15 54 -3 3 -20 -14 -38 -38 -17 -23
-29 -34 -25 -23 8 23 75 145 80 145 2 0 1 -11 -2 -25 -2 -14 -2 -25 1 -25 4 0
34 36 67 80 34 44 103 122 155 173 91 88 112 116 80 103 -25 -9 -17 8 15 29
16 11 33 29 39 40 5 11 26 56 47 100 92 196 305 321 554 323 39 0 49 -2 35 -8z
m-46 -97 c-8 -10 -24 -29 -38 -43 -24 -25 -91 -124 -91 -135 0 -18 33 6 128
93 59 53 99 86 90 72 -28 -41 -90 -162 -85 -166 10 -11 37 12 92 76 32 38 60
68 62 66 2 -1 -11 -39 -27 -85 -17 -45 -30 -89 -30 -98 0 -25 28 3 62 64 16
29 31 53 33 53 8 0 -20 -113 -42 -167 -23 -57 -27 -62 -42 -50 -30 27 -96 55
-158 67 -70 14 -111 5 -178 -37 -42 -27 -145 -131 -145 -147 0 -5 -11 1 -25
14 -16 15 -31 21 -45 17 -17 -4 -20 -2 -15 11 10 28 113 164 171 227 l55 60
-32 -58 c-52 -95 -32 -86 66 31 22 26 187 149 204 151 2 1 -3 -7 -10 -16z
m507 -28 c-60 -24 -188 -107 -260 -167 -29 -24 -38 -28 -33 -14 4 10 13 47 19
82 12 61 14 63 53 78 68 26 157 44 220 45 l60 1 -59 -25z m131 -45 c-57 -36
-175 -152 -160 -157 15 -5 104 40 176 88 31 22 57 36 57 33 0 -4 -29 -39 -65
-79 -36 -40 -65 -78 -65 -85 0 -15 73 29 134 82 62 53 57 39 -33 -88 -39 -56
-71 -105 -71 -109 0 -13 53 26 93 67 49 52 37 22 -29 -73 -55 -80 -102 -135
-108 -128 -2 2 -11 18 -20 36 -28 56 -125 151 -182 179 -44 21 -64 26 -104 22
-55 -6 -55 -7 -5 47 6 6 45 37 88 69 79 58 111 71 60 24 -39 -35 -73 -76 -73
-88 0 -14 23 -2 140 75 94 62 186 114 204 115 6 0 -11 -13 -37 -30z m-608
-233 c117 -54 227 -229 257 -407 11 -67 15 -131 11 -215 -5 -133 -23 -212 -66
-295 l-29 -55 -43 3 c-24 2 -82 12 -129 22 -47 10 -96 21 -110 23 -64 12 -224
64 -306 99 -92 40 -92 40 -98 81 -7 47 8 263 23 329 40 174 144 338 259 405
79 47 147 50 231 10z m319 -22 c122 -51 239 -249 287 -485 30 -145 7 -411 -39
-456 -12 -13 -334 -26 -341 -14 -3 4 4 25 14 46 52 107 66 182 66 344 0 131
-4 167 -23 235 -27 95 -80 204 -129 263 l-35 42 44 20 c52 24 106 25 156 5z
m280 -245 c8 -14 9 -20 1 -20 -6 0 -1 -16 11 -35 18 -29 19 -35 6 -35 -15 0
-40 46 -52 97 -7 28 15 24 34 -7z m30 -165 c-3 -3 -9 2 -12 12 -6 14 -5 15 5
6 7 -7 10 -15 7 -18z m57 -55 c8 0 15 8 15 18 0 14 4 12 20 -8 16 -20 22 -22
29 -11 7 11 14 4 30 -27 18 -35 19 -42 6 -42 -18 0 -19 -9 -5 -44 9 -24 7 -26
-15 -26 -18 0 -25 -5 -25 -20 0 -11 -4 -20 -10 -20 -5 0 -10 -13 -10 -28 0
-31 32 -68 49 -57 6 3 11 4 11 1 0 -2 3 -11 6 -20 6 -14 3 -14 -31 0 -37 15
-49 15 -89 -2 -18 -7 -19 -3 -13 72 3 48 1 109 -7 154 -10 54 -10 77 -2 82 6
4 14 1 19 -7 4 -8 15 -15 22 -15z m165 -325 c0 -29 19 -43 31 -24 6 10 9 7 9
-12 0 -14 3 -48 7 -75 6 -43 5 -48 -9 -36 -18 15 -28 -1 -28 -46 -1 -25 -1
-26 -12 -7 -6 10 -10 44 -9 75 1 30 -2 67 -7 81 -11 28 -4 82 9 73 5 -3 9 -16
9 -29z m-1307 -22 c18 -9 74 -31 126 -50 52 -18 100 -42 108 -52 17 -26 76
-44 113 -36 25 5 200 -17 249 -31 23 -7 -66 -91 -127 -121 -150 -73 -378 33
-479 224 -31 58 -40 83 -28 83 4 0 20 -7 38 -17z m1017 -171 c0 -18 -67 -86
-121 -123 -85 -57 -114 -60 -173 -15 -33 25 -62 37 -96 42 -28 4 -50 10 -50
13 0 4 15 22 34 40 33 32 35 33 57 17 32 -22 75 -20 115 5 19 11 42 18 51 16
15 -5 51 -2 171 12 6 0 12 -2 12 -7z m251 -59 c-8 -15 -10 -15 -11 -2 0 17 10
32 18 25 2 -3 -1 -13 -7 -23z m-584 -80 c46 -24 65 -65 41 -89 -25 -26 -78
-32 -148 -18 -75 16 -106 40 -96 77 13 54 124 71 203 30z m-1218 -33 c11 -24
11 -24 -3 -6 -9 11 -16 24 -16 30 0 12 5 7 19 -24z m1741 -271 c-43 -34 -67
-42 -30 -9 19 16 39 30 45 30 5 0 -1 -9 -15 -21z m193 -158 c27 -11 55 -28 63
-36 9 -8 23 -15 33 -15 18 0 116 -44 138 -62 7 -6 10 -15 7 -20 -4 -6 -9 -6
-13 -2 -3 5 -32 22 -63 38 l-57 30 -20 -25 -20 -24 2 29 c2 27 -2 30 -73 56
-70 26 -76 27 -93 12 -18 -16 -18 -15 -11 13 12 51 4 51 107 6z m-1967 -81 c4
-23 3 -24 -8 -5 -6 11 -12 21 -14 23 -1 2 -33 -13 -70 -32 -37 -20 -69 -34
-72 -31 -7 7 -5 9 63 44 71 36 97 36 101 1z m-254 -65 c92 -32 147 -124 128
-212 -14 -60 -34 -97 -64 -116 -25 -17 -25 -17 -44 26 -38 84 -163 166 -270
175 -29 3 -55 8 -57 12 -9 14 86 84 144 107 68 26 103 28 163 8z m2725 -6 c58
-22 157 -94 148 -109 -2 -4 -28 -9 -57 -12 -107 -9 -232 -91 -270 -175 -19
-43 -19 -43 -44 -27 -32 22 -66 96 -66 149 -2 87 65 169 150 186 61 11 79 10
139 -12z m-2925 -173 c98 -23 172 -98 184 -187 11 -78 -44 -172 -122 -208 -46
-22 -67 -21 -58 3 13 35 -63 150 -122 186 -51 29 -125 52 -166 51 -21 0 -38 3
-38 8 0 5 15 30 33 57 61 92 157 121 289 90z m3176 -16 c25 -12 57 -40 77 -68
31 -43 46 -80 27 -69 -14 10 -116 -15 -163 -39 -79 -40 -148 -120 -153 -178
-2 -20 -5 -39 -8 -41 -10 -11 -79 27 -112 61 -93 95 -83 219 24 305 74 59 218
73 308 29z m-1548 -120 c600 -53 1124 -383 1427 -899 130 -220 223 -505 237
-726 l5 -80 -10 69 c-51 365 -182 680 -392 941 -89 110 -254 267 -367 347
-120 86 -343 198 -482 243 -307 99 -620 117 -931 55 -390 -79 -772 -304 -1017
-597 -238 -286 -378 -601 -429 -968 l-10 -70 5 75 c16 255 150 608 322 849
188 265 473 493 773 620 284 120 573 167 869 141z m-1805 -89 c82 -37 143
-130 130 -200 -19 -100 -104 -158 -227 -152 -28 1 -72 35 -186 142 l-73 70 19
42 c26 57 59 85 128 107 69 22 147 18 209 -9z m3544 3 c58 -21 93 -53 115
-106 l15 -36 -95 -91 c-121 -116 -132 -123 -193 -123 -108 1 -201 86 -201 183
0 30 29 86 61 118 76 76 184 96 298 55z m-2210 -11 c-2 -31 51 -316 141 -766
50 -249 62 -294 89 -335 17 -27 42 -59 56 -72 l25 -23 0 42 c0 26 4 40 10 36
6 -3 10 -23 10 -43 l1 -37 36 40 c62 69 78 121 147 475 100 515 126 654 126
681 0 25 1 25 50 15 28 -5 50 -14 50 -18 0 -5 -12 -5 -27 -2 -23 6 -26 5 -20
-16 3 -12 -8 -95 -24 -184 -16 -88 -52 -307 -80 -486 -28 -179 -54 -344 -60
-368 -13 -58 -48 -126 -126 -245 -52 -79 -69 -98 -86 -95 -36 5 -173 223 -202
320 -7 26 -37 197 -65 380 -28 183 -63 394 -77 468 -14 74 -27 155 -29 180 -2
43 -4 45 -31 42 -42 -5 -18 11 35 24 26 7 48 12 50 13 1 0 2 -11 1 -26z
m-1657 -255 c-7 -7 -12 -20 -12 -31 0 -11 -4 -15 -12 -11 -7 5 -9 2 -6 -7 7
-19 -15 -50 -29 -41 -8 5 0 23 23 55 19 26 37 47 41 47 4 0 2 -5 -5 -12z
m4001 -50 c54 -75 120 -188 115 -193 -2 -3 -22 26 -43 63 -22 37 -41 69 -45
72 -6 5 -62 87 -74 108 -4 6 -5 12 -2 12 3 0 25 -28 49 -62z m-4043 -70 c0 -5
-6 -8 -12 -6 -7 3 -32 -28 -56 -70 -30 -50 -47 -71 -54 -64 -11 11 29 90 70
134 23 25 52 28 52 6z m4178 -161 c5 -24 -15 -21 -21 4 -3 13 -1 19 6 16 7 -2
13 -11 15 -20z m-4293 -5 c-6 -4 -26 -36 -44 -72 -41 -78 -37 -73 -50 -65 -22
13 61 145 92 145 7 0 8 -3 2 -8z m4392 -188 c-4 -5 -87 162 -86 174 0 4 20
-33 45 -82 25 -48 43 -90 41 -92z m-4467 15 c0 -4 -8 -13 -19 -18 -10 -6 -24
-24 -31 -41 -7 -16 -17 -30 -22 -30 -5 0 -6 6 -1 13 4 6 9 20 10 30 5 30 34
66 49 60 8 -3 14 -9 14 -14z m4500 -84 c0 -5 -5 -3 -10 5 -5 8 -10 20 -10 25
0 6 5 3 10 -5 5 -8 10 -19 10 -25z m-3465 1 c64 -23 88 -38 114 -74 l20 -29
-72 17 c-40 10 -107 27 -150 39 -88 25 -243 35 -266 17 -12 -9 -13 -8 -6 4 24
44 29 45 172 44 104 -1 150 -5 188 -18z m2694 -6 c25 -35 36 -59 16 -35 -28
36 -133 29 -327 -20 -137 -35 -166 -40 -159 -26 19 35 63 65 128 86 57 19 88
23 196 22 126 -1 129 -2 146 -27z m-3799 -19 c0 -6 -4 -12 -8 -15 -5 -3 -9 1
-9 9 0 8 4 15 9 15 4 0 8 -4 8 -9z m925 -64 c17 -6 46 -19 65 -30 29 -16 32
-16 15 -2 l-20 18 20 -8 c11 -3 29 -9 40 -11 31 -8 37 -9 95 -26 30 -9 76 -19
103 -23 26 -3 45 -10 42 -16 -8 -12 -3 -11 31 2 28 10 28 10 9 -10 -16 -19
-16 -21 -2 -21 10 0 17 5 17 10 0 6 6 10 13 10 14 0 228 -143 222 -149 -3 -2
-16 4 -30 13 -21 14 -29 15 -41 5 -11 -9 -17 -9 -29 1 -8 6 -19 9 -26 5 -6 -4
-4 4 6 18 10 17 13 27 6 32 -7 3 -11 -3 -11 -16 0 -19 -4 -21 -32 -15 -18 4
-41 8 -50 9 -9 1 -14 5 -12 9 3 5 -9 11 -26 15 -23 4 -28 8 -18 15 9 6 6 8
-12 7 -14 -1 -36 3 -50 9 -14 6 -19 11 -12 11 6 1 12 5 12 10 0 6 -17 8 -37 5
l-38 -5 30 14 c29 13 29 14 7 19 -12 3 -20 2 -16 -3 3 -5 3 -9 0 -9 -2 0 -12
-3 -21 -6 -9 -4 -15 -3 -14 2 4 23 -2 34 -18 34 -16 -1 -16 -2 2 -17 20 -15
20 -15 -2 -10 -33 8 -28 -2 7 -14 17 -6 30 -15 30 -21 0 -5 4 -7 8 -4 5 3 20
-3 33 -12 13 -9 60 -36 104 -58 44 -23 79 -47 77 -54 -1 -6 2 -9 7 -6 14 9 63
-12 56 -24 -4 -6 1 -7 11 -3 13 5 15 3 9 -7 -5 -8 -4 -11 3 -7 13 9 44 -2 37
-13 -7 -12 93 -60 113 -54 11 4 13 3 5 -3 -8 -6 4 -18 40 -37 29 -16 80 -58
114 -92 74 -75 173 -205 173 -226 0 -22 -90 -54 -228 -83 -111 -23 -163 -19
-488 34 -268 45 -474 76 -649 98 l-60 8 0 37 c-1 43 -12 59 -26 38 -9 -13 -10
-13 -6 0 2 8 13 14 23 13 10 -2 69 -10 129 -18 408 -57 826 -105 935 -109 93
-3 170 19 170 49 0 26 -65 121 -102 148 -46 34 -514 298 -825 464 -46 25 -86
49 -89 54 -3 6 3 21 15 33 12 12 18 26 14 30 -5 4 19 -4 52 -19 33 -15 74 -32
90 -38z m2878 -8 c-5 -4 -143 -82 -309 -172 -366 -201 -558 -311 -602 -344
-42 -31 -105 -126 -100 -150 4 -19 35 -38 83 -48 23 -5 27 -4 15 4 -12 9 -10
11 10 6 14 -2 37 -7 52 -9 41 -7 965 104 1042 125 28 8 41 7 50 -1 8 -9 5 -11
-12 -5 -23 7 -24 5 -19 -29 3 -20 0 -39 -7 -45 -6 -5 -85 -18 -176 -30 -91
-12 -316 -47 -500 -77 -285 -48 -348 -55 -420 -51 -91 6 -295 58 -319 82 -13
12 -5 27 58 109 97 128 171 193 280 250 50 26 91 49 91 52 0 2 -14 -3 -31 -11
-17 -9 -33 -14 -35 -12 -5 4 52 31 71 33 6 0 16 2 23 2 7 1 11 6 7 12 -8 12
72 53 87 44 7 -4 8 -3 4 4 -4 7 25 26 76 51 46 23 97 50 113 62 28 19 28 20 5
14 -14 -4 -30 -12 -37 -17 -7 -5 -18 -6 -24 -2 -8 4 -9 3 -5 -4 5 -8 -3 -12
-24 -12 -17 0 -29 -4 -26 -9 4 -5 -3 -7 -14 -4 -12 3 -20 0 -20 -7 0 -7 -8
-10 -20 -7 -11 3 -20 1 -20 -4 0 -5 -9 -9 -21 -9 -11 0 -17 -4 -14 -10 3 -6
-1 -7 -9 -4 -9 4 -16 1 -16 -6 0 -7 -7 -9 -15 -6 -8 3 -22 9 -32 13 -10 4 -14
3 -9 -5 3 -6 1 -14 -5 -18 -8 -4 -9 -3 -5 4 9 15 1 15 -27 1 -45 -24 -19 -5
140 103 78 53 88 56 79 31 -4 -11 2 -8 14 7 11 14 20 21 19 15 -3 -23 2 -28
14 -13 6 9 30 19 52 22 31 4 34 4 15 -3 -20 -7 -21 -9 -6 -10 11 -1 28 7 38
16 11 10 36 18 56 19 20 0 38 6 40 12 2 7 14 12 26 12 12 0 27 5 33 11 8 8 17
8 33 -1 12 -7 20 -8 16 -2 -3 5 1 12 9 16 8 3 15 2 15 -2 0 -7 102 36 160 67
11 6 22 -1 38 -22 12 -17 19 -34 15 -38z m805 -5 c-10 -10 -28 6 -28 24 0 15
1 15 17 -1 9 -9 14 -19 11 -23z m-4678 -184 c0 -5 -7 -7 -15 -4 -8 4 -15 8
-15 10 0 2 7 4 15 4 8 0 15 -4 15 -10z m3035 -70 c-3 -5 -16 -15 -28 -21 -19
-9 -19 -8 3 10 28 23 34 26 25 11z m-1339 -16 c18 -14 18 -14 -6 -3 -31 14
-36 19 -24 19 6 0 19 -7 30 -16z m230 -54 c0 -17 -6 -20 -46 -19 -25 1 -35 4
-22 6 12 2 22 11 22 19 0 8 10 14 23 14 16 0 23 -6 23 -20z m894 5 c0 -8 8
-15 18 -16 9 -1 2 -6 -16 -12 -27 -8 -36 -7 -43 4 -15 25 -10 39 16 39 16 0
25 -6 25 -15z m-1161 -21 c14 -12 -19 -1 -35 12 -18 14 -18 14 6 3 14 -6 27
-13 29 -15z m1079 -9 c-9 -20 -14 -22 -30 -14 -19 10 -19 11 3 30 27 24 42 16
27 -16z m-749 11 c9 -10 8 -16 -4 -26 -18 -15 -20 -13 -29 18 -8 25 14 31 33
8z m2791 -28 c0 -5 -4 -8 -10 -8 -5 0 -10 10 -10 23 0 18 2 19 10 7 5 -8 10
-18 10 -22z m-1784 -3 c-11 -8 -25 -15 -30 -15 -6 1 0 7 14 15 32 19 40 18 16
0z m-855 -65 c27 -22 22 -25 -16 -8 -19 8 -31 8 -51 -1 -15 -6 -29 -9 -32 -7
-4 5 54 35 69 36 4 0 17 -9 30 -20z m509 -11 c0 -5 -11 -3 -25 3 -21 9 -33 8
-62 -6 -34 -16 -35 -16 -23 -1 8 10 23 21 35 25 22 8 75 -7 75 -21z m-536 -5
c9 -3 16 -12 16 -19 0 -16 -25 -26 -45 -19 -18 7 -20 30 -2 37 6 3 13 6 14 6
1 1 8 -2 17 -5z m507 -10 c21 -26 -19 -45 -51 -24 -13 9 -12 12 4 25 25 19 30
19 47 -1z m-491 -64 c-18 -12 -30 -13 -30 -2 0 4 10 9 22 9 18 2 20 0 8 -7z
m494 -2 c-3 -4 -12 -8 -20 -8 -8 0 -14 4 -14 8 0 4 9 8 19 8 11 0 17 -4 15 -8z
m-638 -384 c19 -15 19 -16 -1 -8 -11 4 -33 7 -48 7 -20 0 -24 3 -15 8 20 13
42 11 64 -7z m789 6 c3 -5 0 -7 -8 -4 -7 2 -27 0 -43 -6 -27 -9 -28 -9 -10 5
23 17 52 20 61 5z m1129 -12 c-5 -8 -2 -9 11 -4 20 7 60 -15 88 -51 10 -13 25
-30 34 -39 30 -30 5 -23 -105 28 l-112 53 43 11 c23 6 43 12 45 13 2 0 0 -4
-4 -11z m-3109 -51 c-98 -49 -157 -73 -134 -55 9 7 14 18 12 24 -2 6 8 16 21
24 14 7 23 17 20 22 -3 4 -4 8 -2 8 2 0 19 6 39 13 21 7 56 11 80 9 l43 -5
-79 -40z m1185 27 c0 -17 -46 -19 -56 -3 -3 6 -1 15 6 19 17 11 50 0 50 -16z
m795 -5 c-8 -12 -52 -12 -60 0 -3 6 2 14 12 20 20 11 57 -4 48 -20z m-797 -46
c-6 -7 -18 -13 -28 -13 -10 0 -22 6 -28 13 -8 9 -2 12 28 12 30 0 36 -3 28
-12z m772 2 c8 0 22 4 30 10 13 8 13 7 3 -6 -15 -18 -48 -18 -66 1 -10 10 -9
11 3 4 8 -5 22 -9 30 -9z m151 -58 c-10 -9 -11 -8 -5 6 3 10 9 15 12 12 3 -3
0 -11 -7 -18z m-734 -187 c-10 -192 -18 -219 -139 -454 -60 -116 -167 -329
-239 -473 -105 -212 -134 -263 -150 -263 -11 0 -22 6 -25 13 -3 8 39 106 92
218 147 311 283 606 315 686 23 57 29 87 29 146 0 95 -11 109 -72 96 -107 -24
-156 -63 -628 -508 -85 -80 -181 -170 -212 -200 -49 -45 -60 -52 -73 -41 -8 7
-15 18 -15 26 0 7 44 55 98 106 53 51 228 224 387 384 160 161 300 295 313
299 12 3 20 10 17 15 -3 4 8 14 25 22 16 7 30 16 30 20 0 3 26 12 58 18 31 6
82 17 112 24 82 19 84 16 77 -134z m432 135 c30 -8 57 -12 60 -10 4 2 36 -5
71 -15 36 -10 61 -19 55 -20 -5 0 5 -8 23 -17 18 -8 30 -18 28 -21 -3 -2 11
-17 32 -32 20 -16 205 -195 411 -400 302 -301 372 -375 364 -388 -5 -9 -14
-17 -19 -19 -5 -2 -108 90 -229 203 -315 296 -508 472 -549 501 -49 36 -159
65 -181 49 -26 -19 -24 -156 2 -221 30 -73 252 -554 344 -745 44 -90 77 -170
74 -178 -9 -25 -48 -9 -67 28 -9 19 -81 163 -160 320 -331 660 -307 608 -318
693 -15 120 -13 289 4 287 1 0 25 -7 55 -15z m267 -36 c13 -21 -14 -33 -43
-19 l-28 13 25 8 c36 10 38 10 46 -2z m-981 -12 c-11 -8 -27 -16 -37 -20 -14
-5 -17 4 -9 31 1 1 16 2 33 2 30 0 31 -1 13 -13z m491 -49 c5 -7 3 -8 -7 -3
-12 8 -12 6 -1 -8 16 -19 8 -37 -18 -37 -25 0 -35 17 -19 36 10 12 9 13 -7 8
-16 -5 -16 -4 -4 5 20 14 47 14 56 -1z m-13 -225 c-7 -2 -19 -2 -25 0 -7 3 -2
5 12 5 14 0 19 -2 13 -5z m-2970 -163 c174 -54 300 -170 388 -355 94 -200 86
-390 -23 -547 -22 -31 -59 -69 -81 -85 -36 -24 -52 -28 -109 -28 -80 0 -112
19 -145 86 -29 58 -21 97 47 208 44 75 50 91 50 140 0 68 -27 131 -78 185
-111 116 -288 116 -510 2 -300 -155 -353 -392 -136 -602 36 -35 72 -64 80 -64
11 0 55 19 132 56 2 1 -16 42 -38 90 -50 108 -58 156 -33 204 27 52 75 80 139
80 81 0 103 -25 196 -218 83 -173 98 -227 79 -285 -18 -53 -58 -82 -240 -169
-234 -112 -267 -114 -410 -18 -125 84 -210 179 -271 304 -62 125 -83 206 -84
316 0 203 117 408 309 537 128 86 311 162 445 183 82 13 216 4 293 -20z m1790
-47 c-20 -32 -46 -71 -58 -88 -35 -47 -79 -135 -98 -193 -24 -76 -37 -87 -61
-48 -26 43 -35 80 -25 99 6 9 5 18 0 22 -6 3 -7 15 -2 28 4 12 6 28 4 34 -3 7
8 24 24 37 61 52 126 116 117 116 -7 0 -120 -19 -271 -47 -21 -4 -33 -2 -33 6
0 6 7 11 15 11 8 0 15 5 15 11 0 6 7 9 14 6 18 -7 240 27 311 47 87 25 89 23
48 -41z m2374 41 c124 -29 286 -54 311 -47 17 4 23 2 18 -6 -5 -7 1 -11 14
-11 13 0 20 -5 17 -12 -2 -7 -11 -11 -18 -9 -18 6 -271 51 -284 51 -5 0 24
-32 65 -70 41 -39 71 -70 66 -70 -5 0 -3 -6 3 -14 7 -8 13 -42 13 -75 1 -49
-3 -67 -26 -101 -14 -22 -28 -40 -30 -40 -3 0 -12 21 -22 48 -34 94 -65 154
-127 250 -79 122 -79 122 -73 122 3 0 35 -7 73 -16z m1985 -5 c114 -29 167
-181 91 -261 -36 -39 -60 -47 -163 -59 -141 -16 -200 -59 -241 -174 -28 -80
-25 -140 11 -213 56 -112 192 -214 364 -273 113 -40 238 -41 314 -3 104 52
169 169 179 324 l6 86 -64 30 c-35 16 -67 30 -71 32 -4 2 -23 -31 -43 -73 -47
-103 -71 -134 -121 -157 -37 -16 -50 -17 -83 -8 -80 21 -130 92 -118 165 8 49
149 335 186 377 42 48 100 63 167 43 27 -8 123 -52 214 -97 221 -111 234 -132
234 -363 -1 -157 -15 -220 -84 -361 -85 -171 -201 -277 -363 -331 -109 -35
-259 -37 -390 -5 -115 29 -291 113 -393 189 -240 180 -330 448 -239 718 104
311 349 478 607 414z m-4804 -74 c-3 -3 -9 2 -12 12 -6 14 -5 15 5 6 7 -7 10
-15 7 -18z m163 -252 c13 -16 12 -17 -3 -4 -17 13 -22 21 -14 21 2 0 10 -8 17
-17z m99 -118 c13 -14 21 -25 18 -25 -2 0 -15 11 -28 25 -13 14 -21 25 -18 25
2 0 15 -11 28 -25z m2610 -98 c-101 -98 -264 -223 -350 -267 -41 -21 -20 -5
80 60 110 73 218 161 310 254 35 36 67 66 70 66 3 0 -47 -51 -110 -113z
m-2350 -138 c111 -81 154 -107 275 -171 131 -69 133 -77 2 -12 -171 86 -422
269 -476 348 -8 12 17 -9 55 -45 38 -36 103 -90 144 -120z m760 -168 c16 -102
21 -116 46 -136 30 -24 96 -35 206 -35 37 0 57 -4 53 -10 -4 -6 7 -10 27 -9
30 1 31 2 8 8 -15 5 27 10 107 13 72 4 140 11 151 17 33 18 50 70 72 226 11
82 22 151 24 153 2 2 7 -6 11 -17 3 -11 28 -48 56 -82 107 -134 135 -156 206
-168 35 -6 26 -10 -107 -49 -80 -24 -161 -47 -180 -51 -19 -5 -28 -10 -20 -11
27 -4 63 2 135 21 115 30 122 32 105 21 -25 -17 -199 -60 -310 -77 -198 -32
-488 -19 -685 31 -93 23 -281 87 -269 91 6 2 40 -8 76 -21 92 -35 184 -58 248
-62 46 -3 30 4 -100 41 -85 25 -168 49 -185 54 l-30 9 33 1 c74 2 151 67 242
205 l45 68 8 -58 c5 -33 17 -110 27 -173z m-444 93 c-4 -9 -9 -15 -11 -12 -3
3 -3 13 1 22 4 9 9 15 11 12 3 -3 3 -13 -1 -22z m773 -24 c11 0 25 8 31 18 7
10 10 11 7 3 -10 -41 -69 -37 -74 5 -2 15 -1 14 7 -3 5 -13 18 -23 29 -23z
m11 30 c0 -5 -4 -10 -10 -10 -5 0 -10 5 -10 10 0 6 5 10 10 10 6 0 10 -4 10
-10z m-64 -76 c-6 -19 -12 -28 -14 -20 -3 13 14 56 22 56 2 0 -2 -16 -8 -36z
m119 -9 c6 -30 6 -30 -10 4 -17 38 -19 49 -6 36 5 -6 12 -23 16 -40z m-810
-23 c22 -12 36 -21 32 -22 -17 -1 -87 41 -87 53 0 8 2 9 8 1 4 -6 25 -21 47
-32z m1625 33 c0 -6 -97 -55 -107 -55 -4 1 17 14 47 30 61 32 60 32 60 25z
m-105 -25 c-16 -11 -34 -20 -40 -20 -12 0 46 38 60 39 6 1 -3 -8 -20 -19z
m-45 -50 c-8 -5 -19 -10 -25 -10 -5 0 -3 5 5 10 8 5 20 10 25 10 6 0 3 -5 -5
-10z m-802 -16 c44 -5 48 -9 32 -34 -6 -10 -26 -14 -72 -12 -120 3 -168 17
-168 49 0 12 14 13 83 8 45 -3 101 -8 125 -11z m348 1 c-3 -19 -12 -28 -34
-30 -9 -1 -33 -5 -52 -8 -19 -4 -59 -8 -88 -10 -44 -3 -55 0 -63 16 -6 10 -8
21 -5 24 5 6 133 19 208 22 27 1 36 -3 34 -14z m365 -20 c-18 -8 -38 -15 -45
-15 -15 1 46 28 64 29 8 0 0 -6 -19 -14z m1713 -116 c42 -31 729 -839 782
-919 99 -149 -20 -317 -199 -281 -32 7 -187 59 -345 117 -495 182 -476 176
-461 157 8 -9 103 -123 212 -252 110 -130 208 -254 220 -276 43 -85 17 -173
-66 -214 -42 -21 -51 -22 -94 -11 -27 6 -62 23 -80 38 -55 47 -758 888 -782
938 -45 89 -10 207 73 245 60 27 104 23 224 -20 59 -22 238 -87 397 -145 160
-57 303 -109 319 -115 36 -14 55 -39 -188 248 -215 255 -251 304 -261 360 -10
62 22 126 77 152 60 28 115 21 172 -22z m-4326 -135 c91 -38 143 -134 122
-230 -6 -27 -41 -125 -79 -219 -39 -93 -138 -338 -221 -544 -83 -206 -163
-393 -178 -414 -67 -99 -207 -106 -275 -15 -34 46 -27 106 26 238 25 63 49
122 52 131 4 12 -31 49 -127 134 -73 65 -145 129 -159 142 l-25 23 -124 -69
c-67 -39 -136 -73 -152 -76 -71 -16 -147 29 -166 99 -13 47 1 119 30 158 17
23 85 67 209 137 101 57 213 120 249 141 36 21 85 49 110 62 25 14 140 78 255
143 330 186 363 197 453 159z m929 -599 c282 -94 355 -127 414 -186 91 -91
129 -244 95 -379 -48 -186 -143 -289 -302 -326 -61 -14 -73 -21 -68 -33 50
-111 84 -265 91 -413 5 -107 4 -120 -17 -162 -39 -81 -135 -109 -221 -65 -63
32 -82 85 -123 346 -20 122 -45 246 -56 277 -23 61 -69 106 -125 123 l-33 11
-68 -197 c-37 -108 -78 -217 -92 -244 -56 -106 -182 -125 -264 -40 -32 33 -33
38 -33 111 0 82 -4 68 307 976 40 117 73 194 93 220 31 41 76 64 125 65 14 1
138 -37 277 -84z m2222 5 c33 -16 101 -102 101 -126 0 -3 31 -85 70 -182 212
-539 338 -871 344 -904 21 -118 -76 -215 -191 -193 -73 13 -109 67 -196 285
-221 561 -347 892 -356 931 -33 145 100 255 228 189z m-814 -190 c133 -34 227
-105 279 -212 39 -81 45 -159 14 -218 -29 -57 -78 -90 -132 -90 -60 0 -99 29
-144 107 -70 120 -124 152 -224 133 -60 -12 -81 -23 -107 -56 -41 -52 -21
-113 49 -149 16 -8 87 -29 157 -45 182 -43 275 -76 343 -121 111 -75 160 -171
168 -335 7 -160 -34 -271 -138 -367 -102 -94 -232 -139 -405 -138 -155 1 -264
41 -355 130 -62 62 -102 127 -125 204 -42 143 18 257 136 257 72 0 103 -28
162 -143 64 -127 98 -153 198 -151 140 3 230 101 190 207 -17 45 -72 76 -182
102 -263 63 -330 90 -412 165 -144 132 -166 388 -47 554 105 146 363 220 575
166z"/>
<path d="M4315 8518 c-83 -46 -205 -188 -205 -239 0 -16 4 -29 8 -29 15 0 188
195 211 238 16 31 11 43 -14 30z"/>
<path d="M4283 8405 c-43 -37 -83 -106 -83 -143 0 -43 24 -26 77 53 85 127 88
160 6 90z"/>
<path d="M4338 8357 c-50 -47 -80 -125 -51 -134 22 -8 104 139 84 151 -5 3
-20 -5 -33 -17z"/>
<path d="M4361 8284 c-36 -45 -40 -83 -8 -71 16 6 51 97 37 97 -5 0 -18 -12
-29 -26z"/>
<path d="M4012 8126 c-46 -67 -94 -263 -77 -315 8 -26 31 -27 43 -3 5 9 13 39
17 66 9 67 26 106 19 46 -3 -25 0 -58 5 -73 9 -24 14 -26 31 -17 11 6 20 21
20 35 0 13 6 52 14 87 13 56 20 115 17 143 -1 13 -48 -57 -66 -98 -20 -46 -18
-18 5 69 27 99 15 124 -28 60z"/>
<path d="M4240 8015 c0 -21 16 -27 29 -11 9 11 7 15 -9 19 -13 3 -20 0 -20 -8z"/>
<path d="M4372 8019 c2 -6 8 -10 13 -10 5 0 11 4 13 10 2 6 -4 11 -13 11 -9 0
-15 -5 -13 -11z"/>
<path d="M4212 7899 c2 -6 8 -10 13 -10 5 0 11 4 13 10 2 6 -4 11 -13 11 -9 0
-15 -5 -13 -11z"/>
<path d="M5682 7829 c2 -6 8 -10 13 -10 5 0 11 4 13 10 2 6 -4 11 -13 11 -9 0
-15 -5 -13 -11z"/>
<path d="M5742 7758 c5 -15 28 -18 29 -3 0 6 -7 12 -17 13 -10 3 -15 -1 -12
-10z"/>
<path d="M5740 7674 c0 -9 5 -14 12 -12 18 6 21 28 4 28 -9 0 -16 -7 -16 -16z"/>
<path d="M4055 7661 c-7 -24 3 -83 21 -128 20 -47 94 -97 94 -63 0 8 -95 195
-106 208 -1 2 -5 -6 -9 -17z"/>
<path d="M4130 7615 c0 -36 26 -94 45 -101 35 -14 37 13 5 70 -35 61 -50 70
-50 31z"/>
<path d="M4190 7603 c1 -19 22 -53 34 -53 11 0 6 46 -6 58 -17 17 -28 15 -28
-5z"/>
<path d="M5085 7250 c-3 -5 -1 -10 4 -10 6 0 11 5 11 10 0 6 -2 10 -4 10 -3 0
-8 -4 -11 -10z"/>
<path d="M4100 5486 c0 -2 8 -10 18 -17 15 -13 16 -12 3 4 -13 16 -21 21 -21
13z"/>
<path d="M4194 5405 c3 -20 13 -28 26 -20 8 5 8 11 -1 21 -15 18 -28 18 -25
-1z"/>
<path d="M6247 5579 c7 -7 15 -10 18 -7 3 3 -2 9 -12 12 -14 6 -15 5 -6 -5z"/>
<path d="M6100 5525 c13 -16 5 -20 -30 -16 -9 2 -6 -4 7 -14 19 -13 26 -14 47
-3 l25 13 -31 18 c-24 14 -28 15 -18 2z m20 -25 c-8 -5 -19 -10 -25 -10 -5 0
-3 5 5 10 8 5 20 10 25 10 6 0 3 -5 -5 -10z"/>
<path d="M5905 5490 c-3 -5 -1 -10 4 -10 6 0 11 5 11 10 0 6 -2 10 -4 10 -3 0
-8 -4 -11 -10z"/>
<path d="M6028 5483 c7 -3 16 -2 19 1 4 3 -2 6 -13 5 -11 0 -14 -3 -6 -6z"/>
<path d="M5799 5417 c-14 -12 -20 -19 -15 -14 19 14 28 7 15 -10 -9 -11 -3
-10 19 6 36 25 37 27 19 34 -8 3 -25 -5 -38 -16z m31 3 c0 -5 -5 -10 -11 -10
-5 0 -7 5 -4 10 3 6 8 10 11 10 2 0 4 -4 4 -10z"/>
<path d="M5270 3000 c-8 -5 -10 -10 -5 -10 6 0 17 5 25 10 8 5 11 10 5 10 -5
0 -17 -5 -25 -10z"/>
<path d="M2593 2332 c-89 -53 -161 -100 -160 -104 1 -4 40 -41 87 -82 97 -86
88 -89 143 44 19 47 51 120 71 163 19 42 32 77 28 76 -4 0 -80 -44 -169 -97z"/>
<path d="M3749 1826 l-46 -134 110 -37 c216 -73 286 -58 318 68 14 58 -7 107
-59 137 -29 18 -254 100 -272 100 -3 0 -26 -60 -51 -134z"/>
</g>
</svg>
