<?xml version="1.0" ?><!DOCTYPE svg  PUBLIC '-//W3C//DTD SVG 1.1//EN'  'http://www.w3.org/Graphics/SVG/1.1/DTD/svg11.dtd'><svg height="512px" style="enable-background:new 0 0 512 512;" version="1.1" viewBox="0 0 512 512" width="512px" xml:space="preserve" xmlns="http://www.w3.org/2000/svg" xmlns:xlink="http://www.w3.org/1999/xlink"><g id="play__x2C__store__x2C__google_._apps."><g><path d="M425.614,86.28c-43.31-43.311-103.361-70.276-169.652-70.276    c-66.16,0-126.207,26.966-169.652,70.276c-43.445,43.445-70.282,103.492-70.282,169.789c0,66.156,26.836,126.212,70.282,169.65    c43.445,43.311,103.492,70.276,169.652,70.276c66.291,0,126.342-26.966,169.652-70.276    c43.443-43.438,70.282-103.494,70.282-169.65C495.896,189.772,469.058,129.726,425.614,86.28z M412.465,412.438    c-40.126,39.988-95.389,64.83-156.502,64.83c-60.979,0-116.379-24.842-156.365-64.83c-39.993-39.989-64.835-95.389-64.835-156.368    c0-61.113,24.842-116.514,64.835-156.502c39.986-39.993,95.386-64.7,156.365-64.7c61.114,0,116.376,24.707,156.502,64.7    c39.988,39.988,64.698,95.389,64.698,156.502C477.163,317.049,452.453,372.448,412.465,412.438z" style="fill:#DD4434;"/><path d="M164.744,164.798c-0.663,1.59-0.744,3.451-0.744,5.578v171.25c0,1.992,0.081,3.852,0.744,5.441    l96.051-90.998L164.744,164.798z" style="fill:#DD4434;"/><path d="M298.211,220.595l-112.125-62.308c-4.521-2.92-8.903-3.585-12.755-2.527l96.583,91.67    L298.211,220.595z" style="fill:#DD4434;"/><path d="M339.661,243.582l-29.891-16.61l-30.823,29.098l31.216,29.489l29.096-15.941    C353.61,261.644,348.297,248.494,339.661,243.582z" style="fill:#DD4434;"/><path d="M173.063,356.104c3.984,1.335,8.5,0.398,13.022-2.262l112.522-61.641l-28.963-27.497    L173.063,356.104z" style="fill:#DD4434;"/></g></g><g id="Layer_1"/></svg>